<svg xmlns="http://www.w3.org/2000/svg" xmlns:xlink="http://www.w3.org/1999/xlink" viewBox="0 0 200 200"><defs><clipPath id="a"><circle cx="23.78" cy="80.28" r="2.88" fill="none"/></clipPath><linearGradient id="b" y1="100" x2="200" y2="100" gradientTransform="matrix(1, 0, 0, -1, 0, 200)" gradientUnits="userSpaceOnUse"><stop offset="0" stop-color="#bb49df"/><stop offset="1" stop-color="#4d66f8"/></linearGradient><linearGradient id="c" x1="44.66" y1="109.39" x2="65.1" y2="109.39" gradientTransform="matrix(0.96, 0.29, 0.29, -0.96, -29.8, 178.97)" xlink:href="#b"/><linearGradient id="d" x1="44.19" y1="99.69" x2="50.54" y2="99.69" gradientTransform="matrix(0.96, 0.29, 0.29, -0.96, -27.28, 181.61)" xlink:href="#b"/><linearGradient id="e" x1="70.48" y1="58.06" x2="129.42" y2="58.06" gradientUnits="userSpaceOnUse"><stop offset="0" stop-color="#010201"/><stop offset="1" stop-color="#6b6b6c"/></linearGradient></defs><polygon points="172.79 122.18 134.56 111.72 146.31 68.78 175.41 76.74 181.98 88.58 172.79 122.18" fill="#fff"/><path d="M173.14,122.78,134,112.07l12-43.89,29.77,8.15,6.78,12.18Zm-38-11.4,37.29,10.2,9-32.94-6.38-11.48-28.43-7.77Z"/><path d="M169.5,116.54,147,110.37,155.8,78l22.55,6.17Zm-21.34-6.86,20.66,5.65,8.32-30.45-20.65-5.65Z"/><rect x="124.69" y="91.54" width="44.51" height="0.98" transform="translate(19.45 209.52) rotate(-74.72)"/><polyline points="181.55 88.82 172.42 86.33 174.92 77.2" fill="#fff"/><polygon points="181.42 89.3 171.82 86.67 174.45 77.07 175.39 77.33 173.02 85.98 181.68 88.35 181.42 89.3"/><path d="M167.29,110l-14.61-4,5.84-21.36,14.61,4Zm-13.41-4.68,12.72,3.48,5.32-19.47-12.71-3.48Z"/><rect x="163.82" y="85.15" width="0.98" height="14.16" transform="translate(31.99 226.37) rotate(-74.7)"/><rect x="162.42" y="90.25" width="0.98" height="14.16" transform="translate(26.04 228.78) rotate(-74.7)"/><rect x="161.03" y="95.35" width="0.98" height="14.16" transform="translate(20.1 231.2) rotate(-74.7)"/><rect x="152.32" y="96.83" width="21.16" height="0.98" transform="translate(26.09 228.81) rotate(-74.72)"/><rect x="21.4" y="66.64" width="36.69" height="57.28" transform="translate(-26.31 15.95) rotate(-17.14)" fill="#fff"/><path d="M30.33,128.67,13.16,73l36-11.1,17.17,55.68Zm-15.94-55L31,127.44l34.1-10.52L48.51,63.12Z"/><polyline points="45.67 94.9 41.04 79.89 36.47 79.95 40.23 77.25 35.62 77.19 39.37 74.45 26.78 78.93" fill="#fff"/><path d="M45.67,95.39A.5.5,0,0,1,45.2,95L40.68,80.38l-4.2.06h0a.49.49,0,0,1-.3-.89l2.54-1.83H35.61a.49.49,0,0,1-.46-.35.47.47,0,0,1,.17-.54L36.38,76,27,79.39a.5.5,0,0,1-.63-.29h0a.49.49,0,0,1,.29-.62h0L39.2,74a.49.49,0,0,1,.6.24.48.48,0,0,1-.15.62l-2.56,1.88h3.15a.48.48,0,0,1,.46.34.51.51,0,0,1-.18.55L38,79.44h3a.46.46,0,0,1,.47.34l4.63,15a.5.5,0,0,1-.32.62Z"/><path d="M46.6,107,43,95.22l5.17-1.59,3.63,11.78ZM44.19,95.87l3.06,9.91,3.29-1-3.06-9.91Z"/><polyline points="49.52 105.59 51.42 111.75 53.9 110.98 50.55 116.42 55.18 115.05 49.26 112.45 51.42 111.75" fill="#fff"/><path d="M50.55,116.91a.51.51,0,0,1-.39-.19.52.52,0,0,1,0-.56L51.49,114l-2.43-1.07a.49.49,0,0,1-.3-.48.52.52,0,0,1,.34-.44l1.71-.55-1.76-5.7a.49.49,0,0,1,.33-.61h0a.49.49,0,0,1,.61.31h0l1.76,5.69,2-.62a.5.5,0,0,1,.53.17.52.52,0,0,1,0,.56l-1.41,2.28,2.46,1.08a.49.49,0,0,1,.3.48.5.5,0,0,1-.35.44l-4.63,1.37Zm1.84-2.54-.75,1.22,2.11-.63Zm-1.76-1.85,1.38.6.79-1.29Z"/><line x1="43.73" y1="88.53" x2="26.67" y2="93.79" fill="none"/><path d="M29.16,93.51a.5.5,0,1,1-.14-1h0L43.58,88a.5.5,0,0,1,.62.33.49.49,0,0,1-.33.61h0L29.3,93.49A.32.32,0,0,1,29.16,93.51Z"/><path d="M26.67,93.79a12.82,12.82,0,0,0,2.92-3.05l-.1,2.18,1.31,1.74A13.31,13.31,0,0,0,26.67,93.79Z"/><polyline points="26.67 93.79 32.72 113.41 48.95 108.41" fill="#fff"/><path d="M32.4,114,26.2,93.94a.5.5,0,0,1,.33-.62.49.49,0,0,1,.61.33h0l5.91,19.15,12.93-4a.51.51,0,0,1,.62.32.5.5,0,0,1-.33.62Z"/><path d="M49,108.41a14.55,14.55,0,0,0-3.32,3.46l.12-2.48-1.5-2A14.88,14.88,0,0,0,49,108.41Z"/><path d="M60.61,119.33,43.44,63.66l5.72-1.77,17.17,55.68Z"/><g clip-path="url(#a)"><polygon points="21.56 77.11 20.61 81.17 20.61 77.11 21.56 77.11" fill="#bb49df"/><polygon points="21.61 77.11 20.61 81.41 20.61 81.17 21.56 77.11 21.61 77.11" fill="#bb49df"/><polygon points="21.66 77.11 20.61 81.64 20.61 81.41 21.61 77.11 21.66 77.11" fill="#ba49df"/><polygon points="21.72 77.11 20.61 81.86 20.61 81.64 21.66 77.11 21.72 77.11" fill="#b94adf"/><polygon points="21.77 77.11 20.61 82.09 20.61 81.86 21.72 77.11 21.77 77.11" fill="#b84ae0"/><polygon points="21.83 77.11 20.61 82.33 20.61 82.09 21.77 77.11 21.83 77.11" fill="#b74ae0"/><polygon points="21.88 77.11 20.61 82.56 20.61 82.33 21.83 77.11 21.88 77.11" fill="#b64ae0"/><polygon points="21.93 77.11 20.61 82.78 20.61 82.56 21.88 77.11 21.93 77.11" fill="#b54be0"/><polygon points="21.99 77.11 20.61 83.01 20.61 82.78 21.93 77.11 21.99 77.11" fill="#b44be1"/><polygon points="22.04 77.11 20.61 83.24 20.61 83.01 21.99 77.11 22.04 77.11" fill="#b34be1"/><polygon points="22.1 77.11 20.61 83.45 20.61 83.45 20.61 83.24 22.04 77.11 22.1 77.11" fill="#b24be1"/><polygon points="22.15 77.11 20.66 83.45 20.61 83.45 22.1 77.11 22.15 77.11" fill="#b14ce1"/><polygon points="22.2 77.11 20.72 83.45 20.66 83.45 22.15 77.11 22.2 77.11" fill="#b04ce2"/><polygon points="22.26 77.11 20.77 83.45 20.72 83.45 22.2 77.11 22.26 77.11" fill="#af4ce2"/><polygon points="22.31 77.11 20.82 83.45 20.77 83.45 22.26 77.11 22.31 77.11" fill="#ae4ce2"/><polygon points="22.36 77.11 20.88 83.45 20.82 83.45 22.31 77.11 22.36 77.11" fill="#ad4de2"/><polygon points="22.42 77.11 20.93 83.45 20.88 83.45 22.36 77.11 22.42 77.11" fill="#ac4de2"/><polygon points="22.47 77.11 20.99 83.45 20.93 83.45 22.42 77.11 22.47 77.11" fill="#ab4de3"/><polygon points="22.53 77.11 21.04 83.45 20.99 83.45 22.47 77.11 22.53 77.11" fill="#aa4ee3"/><polygon points="22.58 77.11 21.09 83.45 21.04 83.45 22.53 77.11 22.58 77.11" fill="#a94ee3"/><polygon points="22.64 77.11 21.15 83.45 21.09 83.45 22.58 77.11 22.64 77.11" fill="#a84ee3"/><polygon points="22.69 77.11 21.2 83.45 21.15 83.45 22.64 77.11 22.69 77.11" fill="#a74ee4"/><polygon points="22.74 77.11 21.26 83.45 21.2 83.45 22.69 77.11 22.74 77.11" fill="#a64fe4"/><polygon points="22.8 77.11 21.31 83.45 21.26 83.45 22.74 77.11 22.8 77.11" fill="#a54fe4"/><polygon points="22.85 77.11 21.36 83.45 21.31 83.45 22.8 77.11 22.85 77.11" fill="#a44fe4"/><polygon points="22.9 77.11 21.42 83.45 21.36 83.45 22.85 77.11 22.9 77.11" fill="#a34fe5"/><polygon points="22.96 77.11 21.47 83.45 21.42 83.45 22.9 77.11 22.96 77.11" fill="#a250e5"/><polygon points="23.01 77.11 21.53 83.45 21.47 83.45 22.96 77.11 23.01 77.11" fill="#a150e5"/><polygon points="23.07 77.11 21.58 83.45 21.53 83.45 23.01 77.11 23.07 77.11" fill="#a050e5"/><polygon points="23.12 77.11 21.63 83.45 21.58 83.45 23.07 77.11 23.12 77.11" fill="#9f50e5"/><polygon points="23.17 77.11 21.69 83.45 21.63 83.45 23.12 77.11 23.17 77.11" fill="#9e51e6"/><polygon points="23.23 77.11 21.74 83.45 21.69 83.45 23.17 77.11 23.23 77.11" fill="#9d51e6"/><polygon points="23.28 77.11 21.8 83.45 21.74 83.45 23.23 77.11 23.28 77.11" fill="#9c51e6"/><polygon points="23.34 77.11 21.85 83.45 21.8 83.45 23.28 77.11 23.34 77.11" fill="#9b52e6"/><polygon points="23.39 77.11 21.9 83.45 21.85 83.45 23.34 77.11 23.39 77.11" fill="#9a52e7"/><polygon points="23.44 77.11 21.96 83.45 21.9 83.45 23.39 77.11 23.44 77.11" fill="#9952e7"/><polygon points="23.5 77.11 22.01 83.45 21.96 83.45 23.44 77.11 23.5 77.11" fill="#9852e7"/><polygon points="23.55 77.11 22.06 83.45 22.01 83.45 23.5 77.11 23.55 77.11" fill="#9753e7"/><polygon points="23.6 77.11 22.12 83.45 22.06 83.45 23.55 77.11 23.6 77.11" fill="#9653e7"/><polygon points="23.66 77.11 22.17 83.45 22.12 83.45 23.6 77.11 23.66 77.11" fill="#9553e8"/><polygon points="23.71 77.11 22.23 83.45 22.17 83.45 23.66 77.11 23.71 77.11" fill="#9453e8"/><polygon points="23.77 77.11 22.28 83.45 22.23 83.45 23.71 77.11 23.77 77.11" fill="#9354e8"/><polygon points="23.82 77.11 22.33 83.45 22.28 83.45 23.77 77.11 23.82 77.11" fill="#9254e8"/><polygon points="23.87 77.11 22.39 83.45 22.33 83.45 23.82 77.11 23.87 77.11" fill="#9154e9"/><polygon points="23.93 77.11 22.44 83.45 22.39 83.45 23.87 77.11 23.93 77.11" fill="#9054e9"/><polygon points="23.98 77.11 22.5 83.45 22.44 83.45 23.93 77.11 23.98 77.11" fill="#8f55e9"/><polygon points="24.04 77.11 22.55 83.45 22.5 83.45 23.98 77.11 24.04 77.11" fill="#8e55e9"/><polygon points="24.09 77.11 22.6 83.45 22.55 83.45 24.04 77.11 24.09 77.11" fill="#8d55ea"/><polygon points="24.14 77.11 22.66 83.45 22.6 83.45 24.09 77.11 24.14 77.11" fill="#8c56ea"/><polygon points="24.2 77.11 22.71 83.45 22.66 83.45 24.14 77.11 24.2 77.11" fill="#8b56ea"/><polygon points="24.25 77.11 22.77 83.45 22.71 83.45 24.2 77.11 24.25 77.11" fill="#8a56ea"/><polygon points="24.3 77.11 22.82 83.45 22.77 83.45 24.25 77.11 24.3 77.11" fill="#8956ea"/><polygon points="24.36 77.11 22.87 83.45 22.82 83.45 24.3 77.11 24.36 77.11" fill="#8857eb"/><polygon points="24.41 77.11 22.93 83.45 22.87 83.45 24.36 77.11 24.41 77.11" fill="#8757eb"/><polygon points="24.47 77.11 22.98 83.45 22.93 83.45 24.41 77.11 24.47 77.11" fill="#8657eb"/><polygon points="24.52 77.11 23.03 83.45 22.98 83.45 24.47 77.11 24.52 77.11" fill="#8557eb"/><polygon points="24.57 77.11 23.09 83.45 23.03 83.45 24.52 77.11 24.57 77.11" fill="#8358ec"/><polygon points="24.63 77.11 23.14 83.45 23.09 83.45 24.57 77.11 24.63 77.11" fill="#8258ec"/><polygon points="24.68 77.11 23.2 83.45 23.14 83.45 24.63 77.11 24.68 77.11" fill="#8158ec"/><polygon points="24.73 77.11 23.25 83.45 23.2 83.45 24.68 77.11 24.73 77.11" fill="#8058ec"/><polygon points="24.79 77.11 23.3 83.45 23.25 83.45 24.73 77.11 24.79 77.11" fill="#7f59ed"/><polygon points="24.84 77.11 23.36 83.45 23.3 83.45 24.79 77.11 24.84 77.11" fill="#7e59ed"/><polygon points="24.9 77.11 23.41 83.45 23.36 83.45 24.84 77.11 24.9 77.11" fill="#7d59ed"/><polygon points="24.95 77.11 23.46 83.45 23.41 83.45 24.9 77.11 24.95 77.11" fill="#7c59ed"/><polygon points="25 77.11 23.52 83.45 23.46 83.45 24.95 77.11 25 77.11" fill="#7b5aed"/><polygon points="25.06 77.11 23.57 83.45 23.52 83.45 25 77.11 25.06 77.11" fill="#7a5aee"/><polygon points="25.11 77.11 23.63 83.45 23.57 83.45 25.06 77.11 25.11 77.11" fill="#795aee"/><polygon points="25.17 77.11 23.68 83.45 23.63 83.45 25.11 77.11 25.17 77.11" fill="#785bee"/><polygon points="25.22 77.11 23.73 83.45 23.68 83.45 25.17 77.11 25.22 77.11" fill="#775bee"/><polygon points="25.27 77.11 23.79 83.45 23.73 83.45 25.22 77.11 25.27 77.11" fill="#765bef"/><polygon points="25.33 77.11 23.84 83.45 23.79 83.45 25.27 77.11 25.33 77.11" fill="#755bef"/><polygon points="25.38 77.11 23.9 83.45 23.84 83.45 25.33 77.11 25.38 77.11" fill="#745cef"/><polygon points="25.44 77.11 23.95 83.45 23.9 83.45 25.38 77.11 25.44 77.11" fill="#735cef"/><polygon points="25.49 77.11 24 83.45 23.95 83.45 25.44 77.11 25.49 77.11" fill="#725cf0"/><polygon points="25.54 77.11 24.06 83.45 24 83.45 25.49 77.11 25.54 77.11" fill="#715cf0"/><polygon points="25.6 77.11 24.11 83.45 24.06 83.45 25.54 77.11 25.6 77.11" fill="#705df0"/><polygon points="25.65 77.11 24.16 83.45 24.11 83.45 25.6 77.11 25.65 77.11" fill="#6f5df0"/><polygon points="25.7 77.11 24.22 83.45 24.16 83.45 25.65 77.11 25.7 77.11" fill="#6e5df0"/><polygon points="25.76 77.11 24.27 83.45 24.22 83.45 25.7 77.11 25.76 77.11" fill="#6d5df1"/><polygon points="25.81 77.11 24.33 83.45 24.27 83.45 25.76 77.11 25.81 77.11" fill="#6c5ef1"/><polygon points="25.87 77.11 24.38 83.45 24.33 83.45 25.81 77.11 25.87 77.11" fill="#6b5ef1"/><polygon points="25.92 77.11 24.43 83.45 24.38 83.45 25.87 77.11 25.92 77.11" fill="#6a5ef1"/><polygon points="25.97 77.11 24.49 83.45 24.43 83.45 25.92 77.11 25.97 77.11" fill="#695ff2"/><polygon points="26.03 77.11 24.54 83.45 24.49 83.45 25.97 77.11 26.03 77.11" fill="#685ff2"/><polygon points="26.08 77.11 24.6 83.45 24.54 83.45 26.03 77.11 26.08 77.11" fill="#675ff2"/><polygon points="26.14 77.11 24.65 83.45 24.6 83.45 26.08 77.11 26.14 77.11" fill="#665ff2"/><polygon points="26.19 77.11 24.7 83.45 24.65 83.45 26.14 77.11 26.19 77.11" fill="#6560f2"/><polygon points="26.24 77.11 24.76 83.45 24.7 83.45 26.19 77.11 26.24 77.11" fill="#6460f3"/><polygon points="26.3 77.11 24.81 83.45 24.76 83.45 26.24 77.11 26.3 77.11" fill="#6360f3"/><polygon points="26.35 77.11 24.86 83.45 24.81 83.45 26.3 77.11 26.35 77.11" fill="#6260f3"/><polygon points="26.41 77.11 24.92 83.45 24.86 83.45 26.35 77.11 26.41 77.11" fill="#6161f3"/><polygon points="26.46 77.11 24.97 83.45 24.92 83.45 26.41 77.11 26.46 77.11" fill="#6061f4"/><polygon points="26.51 77.11 25.03 83.45 24.97 83.45 26.46 77.11 26.51 77.11" fill="#5f61f4"/><polygon points="26.57 77.11 25.08 83.45 25.03 83.45 26.51 77.11 26.57 77.11" fill="#5e61f4"/><polygon points="26.62 77.11 25.14 83.45 25.08 83.45 26.57 77.11 26.62 77.11" fill="#5d62f4"/><polygon points="26.68 77.11 25.19 83.45 25.14 83.45 26.62 77.11 26.68 77.11" fill="#5c62f5"/><polygon points="26.73 77.11 25.24 83.45 25.19 83.45 26.68 77.11 26.73 77.11" fill="#5b62f5"/><polygon points="26.78 77.11 25.3 83.45 25.24 83.45 26.73 77.11 26.78 77.11" fill="#5a63f5"/><polygon points="26.84 77.11 25.35 83.45 25.3 83.45 26.78 77.11 26.84 77.11" fill="#5963f5"/><polygon points="26.89 77.11 25.4 83.45 25.35 83.45 26.84 77.11 26.89 77.11" fill="#5863f5"/><polygon points="26.94 77.11 25.46 83.45 25.4 83.45 26.89 77.11 26.94 77.11" fill="#5763f6"/><polygon points="26.95 77.32 25.51 83.45 25.46 83.45 26.94 77.11 26.95 77.11 26.95 77.32" fill="#5664f6"/><polygon points="26.95 77.55 25.57 83.45 25.51 83.45 26.95 77.32 26.95 77.55" fill="#5564f6"/><polygon points="26.95 77.78 25.62 83.45 25.57 83.45 26.95 77.55 26.95 77.78" fill="#5464f6"/><polygon points="26.95 78.01 25.67 83.45 25.62 83.45 26.95 77.78 26.95 78.01" fill="#5364f7"/><polygon points="26.95 78.24 25.73 83.45 25.67 83.45 26.95 78.01 26.95 78.24" fill="#5265f7"/><polygon points="26.95 78.47 25.78 83.45 25.73 83.45 26.95 78.24 26.95 78.47" fill="#5165f7"/><polygon points="26.95 78.7 25.84 83.45 25.78 83.45 26.95 78.47 26.95 78.7" fill="#5065f7"/><polygon points="26.95 78.93 25.89 83.45 25.84 83.45 26.95 78.7 26.95 78.93" fill="#4f65f8"/><polygon points="26.95 79.16 25.94 83.45 25.89 83.45 26.95 78.93 26.95 79.16" fill="#4e66f8"/><polygon points="26.95 79.39 26 83.45 25.94 83.45 26.95 79.16 26.95 79.39" fill="#4d66f8"/><polygon points="26 83.45 26.95 79.39 26.95 83.45 26 83.45" fill="#4d66f8"/></g><path d="M23.78,83.66a3.38,3.38,0,0,1-.09-6.76,3.55,3.55,0,0,1,.86.1,3.37,3.37,0,0,1,2.51,4h0A3.37,3.37,0,0,1,23.78,83.66Zm0-5.77a2.34,2.34,0,0,0-1.26.36,2.41,2.41,0,0,0-.77,3.29,2.36,2.36,0,0,0,1.49,1.07,2.37,2.37,0,0,0,2.83-1.78h0A2.4,2.4,0,0,0,24.32,78a2.55,2.55,0,0,0-.55-.11Zm2.82,3Z"/><path d="M100,149.57c-9.36,0-15.37-12.29-19-13.16-12.63-3,3.33-10.66,3.33-18.31V101h31.22v17.1c0,9.91,14.86,16,4.56,18.45-3.43.81-9.63,13-20.13,13" fill="#fff"/><path d="M100,150.06c-6.26,0-11-5.28-14.55-9.14-1.83-2-3.41-3.76-4.55-4-3-.72-4.61-1.72-5.09-3.15-.71-2.11,1.24-4.49,3.49-7.25,2.14-2.61,4.56-5.57,4.56-8.39V100.54h32.2V118.1c0,4.26,2.89,7.84,5.22,10.72,1.91,2.35,3.41,4.21,2.86,5.82-.37,1.09-1.61,1.85-3.9,2.39-1,.24-2.48,1.81-4.19,3.62C112.32,144.63,107.2,150.06,100,150.06ZM84.85,101.52V118.1c0,3.17-2.54,6.27-4.78,9-2,2.43-3.86,4.72-3.32,6.31.35,1.06,1.83,1.9,4.39,2.52,1.43.34,3,2.1,5,4.32,3.37,3.73,8,8.82,13.82,8.82,6.77,0,11.72-5.26,15.33-9.1,1.9-2,3.39-3.6,4.68-3.9,1.88-.45,3-1,3.2-1.75.38-1.11-1-2.86-2.69-4.9-2.42-3-5.44-6.73-5.44-11.33V101.52Z"/><path d="M71,76.55c-.18-4.43,3.24-1.36,3.24-1.36S67,35.3,99.7,35.08s26,39.77,26,39.77,3.39-3.11,3.26,1.32a29.28,29.28,0,0,1-1.12,7.55,10,10,0,0,1-5.13,7.56s-.84,8.9-4.5,12.61-9.54,12.2-18,12c-8.42.36-14.4-8-18.12-11.71s-4.67-12.55-4.67-12.55a9.86,9.86,0,0,1-5.21-7.5A28.64,28.64,0,0,1,71,76.55" fill="#fff"/><path d="M99.69,116.35c-7,0-12.34-5.84-15.92-9.74-.72-.79-1.4-1.53-2-2.13-3.48-3.42-4.59-11-4.79-12.58a10.22,10.22,0,0,1-5.23-7.71,28.52,28.52,0,0,1-1.26-7.62h0c-.06-1.51.27-2.42,1-2.77a2.32,2.32,0,0,1,2.07.32,60,60,0,0,1-.45-10.55c.27-6,1.68-14.51,6.79-20.67,4.52-5.46,11.18-8.25,19.78-8.31s15.31,2.65,19.91,8c5.19,6.09,6.7,14.55,7.06,20.58a63,63,0,0,1-.31,10.55,2.3,2.3,0,0,1,2.06-.35c.75.34,1.09,1.25,1,2.76a30.42,30.42,0,0,1-1.13,7.64,10.36,10.36,0,0,1-5.15,7.78c-.17,1.55-1.19,9.17-4.61,12.64-.62.62-1.3,1.38-2,2.19-3.82,4.27-9.08,10.13-16.31,9.91ZM72.14,74.64a.41.41,0,0,0-.22,0c-.33.15-.49.82-.45,1.84h0a28.56,28.56,0,0,0,1.22,7.4V84a9.43,9.43,0,0,0,4.93,7.1l.25.11v.27c0,.09,1,8.76,4.53,12.26.63.61,1.32,1.36,2,2.16,3.76,4.09,8.9,9.72,15.72,9.41,6.82.24,11.89-5.45,15.59-9.58.74-.82,1.43-1.6,2.06-2.23,3.49-3.54,4.36-12.23,4.36-12.31v-.27l.24-.12a9.55,9.55,0,0,0,4.86-7.17v-.11a29.14,29.14,0,0,0,1.1-7.42c0-1-.14-1.68-.46-1.83s-1.45.41-2,.89l-1,1,.23-1.41c0-.2,3.24-20.21-6.37-31.49-4.4-5.16-10.85-7.74-19.15-7.7s-14.71,2.73-19,8c-9.46,11.41-6,31.38-6,31.58L75,76.5l-1.06-1A3.6,3.6,0,0,0,72.14,74.64Z"/><path d="M100,199a100.44,100.44,0,0,0,68.51-27c-2.71-11.46-8.06-32.08-8.28-32.75-.43-1.34-1.77-4.72-3.85-5.34s-33.69-9.78-38.28-11.7c0,0-3.4,13.64-18.26,13.64S81.3,122.21,81.3,122.21c-4.59,1.92-35.68,11.13-37.75,11.7s-3.4,4-3.86,5.34c-.21.66-5.36,21.3-8.07,32.87A100.4,100.4,0,0,0,100,199" fill="#fff"/><path d="M100,199.51a101,101,0,0,1-68.72-27l-.21-.19.07-.28c2.71-11.59,7.88-32.28,8.09-32.91.63-1.84,2-5,4.18-5.66s33.2-9.8,37.7-11.68l.52-.22.14.54c.15.54,3.76,13.28,18.07,13.28s17.65-12.73,17.78-13.27l.14-.55.53.22c4.47,1.87,35.51,10.92,38.22,11.68,2.42.72,3.82,4.51,4.19,5.66.22.67,5.59,21.35,8.29,32.79l.06.28-.21.19A100.91,100.91,0,0,1,100,199.51ZM32.16,172A99.86,99.86,0,0,0,168,171.83c-2.72-11.47-8-31.76-8.21-32.43-.65-2-2-4.56-3.52-5s-31.73-9.2-37.83-11.52c-.84,2.57-5.2,13.48-18.57,13.48s-18-11-18.87-13.5c-6,2.3-35.14,10.92-37.32,11.52-1.81.54-3.07,3.69-3.52,5C40,140,34.89,160.34,32.16,172Z"/><path d="M116.66,88.55c-4.47.62-13.16,2.52-14.71-6.71,0,0-.86-2.89,2.56-3.58s15.33-2.31,16.42,1.35c.19.75.19,8.33-4.27,8.94M96.81,81.72c-1.5,9-10,7.14-14.31,6.54s-4.35-8-4.17-8.71c1.06-3.57,12.67-2,16-1.32a2.86,2.86,0,0,1,2.49,2A3.13,3.13,0,0,1,96.81,81.72ZM78.32,79.23l-1.76-.9m25.3,1.94s-2.84-1.26-5,0M121,79.65l2.15-.67" fill="#fff"/><path d="M111,89.62c-4.08,0-8.46-1.33-9.53-7.7h0a3.56,3.56,0,0,1-.08-1.3,5.91,5.91,0,0,0-4-.11,3.91,3.91,0,0,1-.08,1.32c-1.5,8.88-9.64,7.68-14,7l-.85-.12a4.31,4.31,0,0,1-3-2c-1.7-2.51-1.68-6.41-1.56-7.23l-1.49-.76.44-.88,1.48.76c2.8-3.54,16-.93,16.17-.9a3.48,3.48,0,0,1,2.66,1.81,6.83,6.83,0,0,1,4.57.11c0-.09.09-.18.14-.27a3.74,3.74,0,0,1,2.61-1.62c.15,0,14.54-2.88,16.8,1.23l1.72-.54.3.94-1.76.55c.08,1.4-.16,4.87-1.64,7a4.39,4.39,0,0,1-3.1,2l-.88.13A32.47,32.47,0,0,1,111,89.62Zm2.87-11.85a48.87,48.87,0,0,0-9.26,1,2.8,2.8,0,0,0-2,1.16,2.5,2.5,0,0,0-.23,1.8c1.39,8.24,8.55,7.19,13.29,6.5l.88-.13A3.49,3.49,0,0,0,119,86.46c1.59-2.34,1.55-6.26,1.44-6.73C120,78.27,117.2,77.77,113.87,77.77Zm-28.64,0c-3.25,0-6,.5-6.43,1.92-.11.43-.14,4.26,1.4,6.53a3.42,3.42,0,0,0,2.36,1.56l.86.12c4.61.68,11.57,1.7,12.9-6.26h0a2.88,2.88,0,0,0,0-1.24,2.41,2.41,0,0,0-2.11-1.64A48.41,48.41,0,0,0,85.23,77.77Z"/><path d="M100,200A100,100,0,1,1,200,100,100,100,0,0,1,100,200ZM100,3.92A96.08,96.08,0,1,0,196.08,100h0A96.19,96.19,0,0,0,100,3.92Z" fill="url(#b)"/><rect x="52.88" y="62.46" width="4.02" height="56.3" transform="translate(-24.27 20.2) rotate(-17.14)" fill="url(#c)"/><rect x="45.64" y="95.13" width="3.44" height="10.37" transform="translate(-27.46 18.41) rotate(-17.14)" fill="url(#d)"/><path d="M127.63,68.8a22.89,22.89,0,0,1-1.33,7.45c-1.13,2.85-.57,5.94-2.6,5.88,0,0,0-4.71,0-5.91.2-7.43-1.31-16.11-4.41-19.26-3.88-4-16.16,0-19.73,0s-15.13-3.92-19,0c-3.1,3.15-4.6,11.83-4.41,19.26,0,1.2,0,5.91,0,5.91-2,.06-1.45-3-2.58-5.88a22.37,22.37,0,0,1-1.33-7.45C72,65.39,68.17,53.44,72.63,46a23.87,23.87,0,0,1,5.19-4.26l-5.51-3.45S82.53,37,91.52,35.18c1.32-.27,2.61-.56,3.83-.85A26.18,26.18,0,0,1,99.59,34c13.32,0,26.75,10.41,27.67,12C131.73,53.44,127.91,65.39,127.63,68.8Z" stroke="#000" stroke-miterlimit="10" fill="url(#e)"/></svg>