<svg width="332" height="479" viewBox="0 0 332 479" fill="none" xmlns="http://www.w3.org/2000/svg">
<path opacity="0.8" d="M107.232 100.359L75.3452 84.3459V125.254L91.2885 133.156L107.232 141.058V100.359Z" fill="url(#paint0_linear)"/>
<path d="M138.773 84.8136L106.619 69L75 84.8136L106.619 100.627L138.773 84.8136Z" fill="#D3F7FB"/>
<path opacity="0.4" d="M138.515 84.9706L106.629 100.628V141.326L122.442 133.625L138.256 125.925L138.515 84.9706Z" fill="url(#paint1_linear)"/>
<path d="M169.756 26.2199L143.321 12.9443V46.858L156.538 53.4089L169.756 59.9599V26.2199Z" fill="url(#paint2_linear)"/>
<path d="M196.191 13.1099L169.534 0L143.321 13.1099L169.534 26.2199L196.191 13.1099Z" fill="#FFB38B"/>
<path opacity="0.7" d="M195.972 13.1917L169.515 26.2165V59.9999L183.032 53.9347L196.142 47.5507L195.972 13.1917Z" fill="url(#paint3_linear)"/>
<path d="M233.593 97.2728L196.186 78.4872V126.477L214.889 135.747L233.593 145.017V97.2728Z" fill="url(#paint4_linear)"/>
<path d="M271 78.7218L233.279 60.1704L196.186 78.7218L233.279 97.2731L271 78.7218Z" fill="#FD91B9"/>
<path opacity="0.7" d="M270.697 78.9055L233.29 97.2731V145.017L251.841 135.983L270.393 126.95L270.697 78.9055Z" fill="url(#paint5_linear)"/>
<path d="M107.53 155.47C107.237 155.177 106.763 155.177 106.47 155.47L101.697 160.243C101.404 160.536 101.404 161.01 101.697 161.303C101.99 161.596 102.464 161.596 102.757 161.303L107 157.061L111.243 161.303C111.536 161.596 112.01 161.596 112.303 161.303C112.596 161.01 112.596 160.536 112.303 160.243L107.53 155.47ZM106.47 227.53C106.763 227.823 107.237 227.823 107.53 227.53L112.303 222.757C112.596 222.464 112.596 221.99 112.303 221.697C112.01 221.404 111.536 221.404 111.243 221.697L107 225.939L102.757 221.697C102.464 221.404 101.99 221.404 101.697 221.697C101.404 221.99 101.404 222.464 101.697 222.757L106.47 227.53ZM106.25 156L106.25 227L107.75 227L107.75 156L106.25 156Z" fill="#404040"/>
<path d="M171.53 74.4697C171.237 74.1768 170.763 74.1768 170.47 74.4697L165.697 79.2426C165.404 79.5355 165.404 80.0104 165.697 80.3033C165.99 80.5962 166.464 80.5962 166.757 80.3033L171 76.0607L175.243 80.3033C175.536 80.5962 176.01 80.5962 176.303 80.3033C176.596 80.0104 176.596 79.5355 176.303 79.2426L171.53 74.4697ZM170.47 159.53C170.763 159.823 171.237 159.823 171.53 159.53L176.303 154.757C176.596 154.464 176.596 153.99 176.303 153.697C176.01 153.404 175.536 153.404 175.243 153.697L171 157.939L166.757 153.697C166.464 153.404 165.99 153.404 165.697 153.697C165.404 153.99 165.404 154.464 165.697 154.757L170.47 159.53ZM170.25 75L170.25 159H171.75L171.75 75H170.25Z" fill="#404040"/>
<path d="M234.219 155.47C233.926 155.177 233.452 155.177 233.159 155.47L228.386 160.243C228.093 160.536 228.093 161.01 228.386 161.303C228.679 161.596 229.153 161.596 229.446 161.303L233.689 157.061L237.932 161.303C238.224 161.596 238.699 161.596 238.992 161.303C239.285 161.01 239.285 160.536 238.992 160.243L234.219 155.47ZM233.159 227.979C233.452 228.272 233.926 228.272 234.219 227.979L238.992 223.206C239.285 222.913 239.285 222.438 238.992 222.145C238.699 221.852 238.224 221.852 237.932 222.145L233.689 226.388L229.446 222.145C229.153 221.852 228.679 221.852 228.386 222.145C228.093 222.438 228.093 222.913 228.386 223.206L233.159 227.979ZM232.939 156V227.448L234.439 227.448V156L232.939 156Z" fill="#404040"/>
<rect x="37.8077" y="241.5" width="261.857" height="171.56" fill="#F5F5F5" stroke="#8C8C8C"/>
<rect x="41.3077" y="245" width="254.857" height="164.56" fill="#EDF0FF" stroke="#4A67FB" stroke-width="6"/>
<path d="M298.872 412.604L330.692 469.522H0.930182L38.5765 412.604H298.872Z" fill="#F5F5F5" stroke="#8C8C8C"/>
<path d="M208.342 440.879L218.193 458.121H113.281L124.936 440.879H208.342Z" fill="#E8E8E8" stroke="#8C8C8C"/>
<rect y="470.022" width="332" height="8.20879" fill="#8C8C8C"/>
<rect x="71.296" y="274.379" width="195.187" height="105.802" fill="#595959"/>
<rect width="195.187" height="5.47253" transform="matrix(1 0 0 -1 71.296 274.379)" fill="#C4C4C4"/>
<rect x="79.3517" y="283.956" width="30.0989" height="3.64835" rx="1.82418" fill="#C4C4C4"/>
<rect x="114.011" y="283.956" width="90.2967" height="3.64835" rx="1.82418" fill="#C4C4C4"/>
<rect x="79.3517" y="293.989" width="160.527" height="3.64835" rx="1.82418" fill="#C4C4C4"/>
<rect x="79.3517" y="304.022" width="160.527" height="3.64835" rx="1.82418" fill="#C4C4C4"/>
<defs>
<linearGradient id="paint0_linear" x1="91.0098" y1="168.422" x2="139.025" y2="141.897" gradientUnits="userSpaceOnUse">
<stop stop-color="#23D8ED"/>
<stop offset="1" stop-color="#4967FB"/>
</linearGradient>
<linearGradient id="paint1_linear" x1="122.293" y1="168.518" x2="170.166" y2="141.904" gradientUnits="userSpaceOnUse">
<stop stop-color="#23D8ED"/>
<stop offset="1" stop-color="#4967FB"/>
</linearGradient>
<linearGradient id="paint2_linear" x1="156.686" y1="-10.1338" x2="117.126" y2="11.7206" gradientUnits="userSpaceOnUse">
<stop stop-color="#FF6917"/>
<stop offset="1" stop-color="#FB2474"/>
</linearGradient>
<linearGradient id="paint3_linear" x1="182.977" y1="-9.7847" x2="143.348" y2="12.3645" gradientUnits="userSpaceOnUse">
<stop stop-color="#FF6917"/>
<stop offset="1" stop-color="#FB2474"/>
</linearGradient>
<linearGradient id="paint4_linear" x1="215.099" y1="45.8303" x2="159.119" y2="76.7555" gradientUnits="userSpaceOnUse">
<stop stop-color="#FB2474"/>
<stop offset="1" stop-color="#C844DB"/>
</linearGradient>
<linearGradient id="paint5_linear" x1="252.203" y1="46.4539" x2="196.388" y2="77.4828" gradientUnits="userSpaceOnUse">
<stop stop-color="#FB2474"/>
<stop offset="1" stop-color="#C844DB"/>
</linearGradient>
</defs>
</svg>
