<svg width="107" height="110" viewBox="0 0 107 110" fill="none" xmlns="http://www.w3.org/2000/svg">
<circle cx="25.6427" cy="66.6792" r="13.6929" fill="#DBE1FE"/>
<path d="M48.187 63.1167C48.1267 62.7107 47.8256 62.3846 47.4202 62.2844L45.071 61.718C43.7789 61.4085 42.8458 60.6996 42.4428 59.72C42.0337 58.7422 42.1929 57.5801 42.8888 56.4479L44.1486 54.3879C44.3615 54.0361 44.3418 53.5931 44.1009 53.2616C42.6944 51.325 40.9969 49.6287 39.0597 48.2204C38.8844 48.0934 38.6775 48.0249 38.4593 48.0249C38.2727 48.0249 38.092 48.0756 37.9328 48.1721L35.8734 49.4326C35.1645 49.866 34.4215 50.095 33.7251 50.095C32.222 50.095 31.0236 49.0051 30.599 47.2516L30.038 44.8947C29.9366 44.4946 29.6093 44.1965 29.2056 44.1351C28.0364 43.952 26.8385 43.8584 25.6425 43.8584C24.4476 43.8584 23.2486 43.952 22.0805 44.1351C21.6787 44.1959 21.346 44.5023 21.2524 44.8976L20.6841 47.2504C20.259 49.0045 19.063 50.0944 17.5592 50.0944C16.8622 50.0944 16.1199 49.8654 15.411 49.4326L13.3498 48.171C13.1918 48.0756 13.0105 48.0243 12.8257 48.0243C12.6063 48.0243 12.3994 48.0923 12.2259 48.2198C10.2899 49.6258 8.59535 51.3215 7.18464 53.2598C6.94197 53.5919 6.9211 54.0337 7.13456 54.3879L8.39859 56.4473C9.09023 57.5759 9.24943 58.7368 8.84339 59.7206C8.43794 60.7002 7.50602 61.4085 6.21515 61.7174L3.86179 62.2844C3.46052 62.384 3.16001 62.7107 3.0992 63.1161C2.91436 64.311 2.82135 65.51 2.82135 66.6768C2.82135 67.849 2.91436 69.0493 3.0992 70.2405C3.15942 70.6436 3.46768 70.9763 3.86298 71.0699L6.21515 71.6381C7.50482 71.9487 8.43794 72.6595 8.84339 73.6367C9.24883 74.6199 9.08963 75.7837 8.3974 76.9136L7.13456 78.9718C6.9217 79.3247 6.94257 79.7666 7.18345 80.0975C8.59535 82.037 10.2911 83.7345 12.2241 85.1374C12.3982 85.2644 12.6051 85.333 12.8203 85.333C13.0087 85.333 13.193 85.2793 13.3516 85.1809L15.4116 83.9253C16.1265 83.4894 16.87 83.2581 17.5598 83.2581C19.0624 83.2581 20.2596 84.3486 20.6847 86.1069L21.253 88.4578C21.346 88.8549 21.6691 89.156 22.0811 89.2246C23.2677 89.4082 24.4661 89.5013 25.6461 89.5013C26.8218 89.5013 28.0185 89.4082 29.2098 89.2246C29.6164 89.156 29.942 88.8561 30.0386 88.4578L30.6008 86.1069C31.0271 84.3486 32.2244 83.2581 33.7269 83.2581C34.415 83.2581 35.1591 83.4894 35.8752 83.9253L37.9322 85.1798C38.0926 85.2793 38.2774 85.333 38.4664 85.333C38.6817 85.333 38.8886 85.2644 39.0603 85.1374C40.9975 83.7315 42.6932 82.0358 44.1015 80.0975C44.3436 79.7654 44.3633 79.323 44.1504 78.9706L42.8905 76.9136C42.1935 75.7795 42.0355 74.6157 42.4446 73.6367C42.8464 72.6595 43.7795 71.9505 45.071 71.6381L47.422 71.0711C47.8191 70.9769 48.1291 70.6436 48.1864 70.2417C48.3712 69.0564 48.4642 67.8574 48.4642 66.6768C48.4636 65.5118 48.3706 64.3146 48.187 63.1167ZM25.6455 77.4454C19.7081 77.4454 14.8773 72.6135 14.8773 66.6757C14.8773 60.7413 19.7081 55.913 25.6455 55.913C31.5804 55.913 36.4094 60.7413 36.4094 66.6757C36.4094 72.6135 31.5804 77.4454 25.6455 77.4454Z" fill="#DBE1FE" stroke="#4A67FB" stroke-width="5.07143"/>
<rect x="45.9286" y="92.0347" width="10.1429" height="15.2143" rx="2.53571" stroke="#4A67FB" stroke-width="5.07143"/>
<path fill-rule="evenodd" clip-rule="evenodd" d="M61.6501 83.9902C61.6501 81.7747 63.1052 79.8491 65.1371 78.9661C77.7086 73.5024 86.5 60.9742 86.5 46.3926C86.5 26.7865 70.6061 10.8926 51 10.8926C31.3938 10.8926 15.5 26.7865 15.5 46.3926C15.5 60.9743 24.2914 73.5026 36.8631 78.9662C38.8949 79.8492 40.3501 81.7748 40.3501 83.9903V94.5728C40.3501 97.3737 42.6206 99.6443 45.4215 99.6443H56.5786C59.3795 99.6443 61.6501 97.3737 61.6501 94.5728V83.9902Z" fill="#F6F7FF"/>
<mask id="path-5-inside-1" fill="white">
<path fill-rule="evenodd" clip-rule="evenodd" d="M61.6501 83.9902C61.6501 81.7747 63.1052 79.8491 65.1371 78.9661C77.7086 73.5024 86.5 60.9742 86.5 46.3926C86.5 26.7865 70.6061 10.8926 51 10.8926C31.3938 10.8926 15.5 26.7865 15.5 46.3926C15.5 60.9743 24.2914 73.5026 36.8631 78.9662C38.8949 79.8492 40.3501 81.7748 40.3501 83.9903V94.5728C40.3501 97.3737 42.6206 99.6443 45.4215 99.6443H56.5786C59.3795 99.6443 61.6501 97.3737 61.6501 94.5728V83.9902Z"/>
</mask>
<path d="M36.8631 78.9662L34.8417 83.6173L36.8631 78.9662ZM65.1371 78.9661L63.1156 74.3149L65.1371 78.9661ZM81.4285 46.3926C81.4285 58.8832 73.9017 69.6272 63.1156 74.3149L67.1585 83.6172C81.5154 77.3776 91.5714 63.0652 91.5714 46.3926H81.4285ZM51 15.964C67.8052 15.964 81.4285 29.5873 81.4285 46.3926H91.5714C91.5714 23.9856 73.4069 5.82115 51 5.82115V15.964ZM20.5714 46.3926C20.5714 29.5873 34.1947 15.964 51 15.964V5.82115C28.593 5.82115 10.4285 23.9856 10.4285 46.3926H20.5714ZM38.8844 74.315C28.0983 69.6273 20.5714 58.8833 20.5714 46.3926H10.4285C10.4285 63.0652 20.4846 77.3778 34.8417 83.6173L38.8844 74.315ZM45.4215 94.5728V83.9903H35.2786V94.5728H45.4215ZM56.5786 94.5728H45.4215V104.716H56.5786V94.5728ZM56.5786 83.9902V94.5728H66.7215V83.9902H56.5786ZM35.2786 94.5728C35.2786 100.175 39.8198 104.716 45.4215 104.716V94.5728H45.4215H35.2786ZM34.8417 83.6173C35.0387 83.703 35.1699 83.8253 35.2356 83.9176C35.2926 83.9978 35.2786 84.0185 35.2786 83.9903H45.4215C45.4215 79.4591 42.4804 75.8778 38.8844 74.315L34.8417 83.6173ZM56.5786 104.716C62.1804 104.716 66.7215 100.175 66.7215 94.5728H56.5786V94.5728V104.716ZM63.1156 74.3149C59.5197 75.8777 56.5786 79.459 56.5786 83.9902H66.7215C66.7215 84.0184 66.7076 83.9977 66.7646 83.9175C66.8302 83.8252 66.9614 83.7029 67.1585 83.6172L63.1156 74.3149Z" fill="#4A67FB" mask="url(#path-5-inside-1)"/>
<path d="M39.1715 29.9102C34.0497 33.5923 30.7142 39.6028 30.7142 46.3923C30.7142 54.9057 35.9585 62.1941 43.3928 65.2035" stroke="#4A67FB" stroke-width="5.07143" stroke-linecap="round"/>
<circle cx="77.6248" cy="29.9096" r="15.975" fill="#EDF0FF"/>
<path d="M103.926 25.7532C103.856 25.2795 103.505 24.899 103.032 24.7822L100.291 24.1213C98.7838 23.7603 97.6952 22.9332 97.2249 21.7904C96.7477 20.6496 96.9335 19.2938 97.7453 17.9729L99.2151 15.5696C99.4634 15.1591 99.4405 14.6423 99.1594 14.2556C97.5185 11.9962 95.5381 10.0172 93.278 8.37421C93.0735 8.22604 92.8321 8.14605 92.5775 8.14605C92.3598 8.14605 92.149 8.20518 91.9633 8.31786L89.5607 9.78837C88.7336 10.2941 87.8668 10.5612 87.0544 10.5612C85.3007 10.5612 83.9025 9.28962 83.4072 7.24385L82.7527 4.49412C82.6344 4.02737 82.2525 3.67957 81.7816 3.60792C80.4175 3.39437 79.02 3.28516 77.6246 3.28516C76.2306 3.28516 74.8317 3.39437 73.469 3.60792C73.0002 3.67887 72.612 4.03641 72.5028 4.4976L71.8399 7.24246C71.3439 9.28893 69.9485 10.5605 68.1942 10.5605C67.381 10.5605 66.5149 10.2934 65.6879 9.78837L63.2831 8.31647C63.0988 8.20517 62.8873 8.14535 62.6717 8.14535C62.4157 8.14535 62.1743 8.22465 61.9719 8.37351C59.7132 10.0138 57.7363 11.9921 56.0905 14.2535C55.8073 14.6409 55.783 15.1564 56.032 15.5696L57.5067 17.9722C58.3136 19.289 58.4994 20.6433 58.0257 21.791C57.5526 22.9339 56.4654 23.7603 54.9594 24.1206L52.2138 24.7822C51.7457 24.8983 51.3951 25.2795 51.3241 25.7525C51.1085 27.1465 51 28.5454 51 29.9067C51 31.2742 51.1085 32.6745 51.3241 34.0643C51.3944 34.5345 51.754 34.9227 52.2152 35.0319L54.9594 35.6948C56.464 36.0572 57.5526 36.8864 58.0257 38.0265C58.4987 39.1735 58.313 40.5314 57.5053 41.8495L56.032 44.2508C55.7837 44.6626 55.808 45.178 56.0891 45.5641C57.7363 47.8269 59.7146 49.8073 61.9698 51.444C62.1729 51.5922 62.4143 51.6722 62.6654 51.6722C62.8852 51.6722 63.1002 51.6096 63.2852 51.4948L65.6886 50.0299C66.5226 49.5214 67.39 49.2515 68.1949 49.2515C69.9478 49.2515 71.3446 50.5237 71.8406 52.5751L72.5035 55.3179C72.612 55.7811 72.989 56.1324 73.4697 56.2124C74.854 56.4266 76.2522 56.5352 77.6288 56.5352C79.0005 56.5352 80.3966 56.4266 81.7865 56.2124C82.2609 56.1324 82.6407 55.7825 82.7534 55.3179L83.4093 52.5751C83.9067 50.5237 85.3035 49.2515 87.0564 49.2515C87.8592 49.2515 88.7273 49.5214 89.5627 50.0299L91.9626 51.4934C92.1497 51.6096 92.3654 51.6722 92.5859 51.6722C92.837 51.6722 93.0784 51.5922 93.2787 51.444C95.5388 49.8038 97.5171 47.8255 99.1601 45.5641C99.4426 45.1766 99.4655 44.6605 99.2172 44.2494L97.7473 41.8495C96.9342 40.5265 96.7498 39.1687 97.227 38.0265C97.6959 36.8864 98.7845 36.0593 100.291 35.6948L103.034 35.0333C103.497 34.9234 103.859 34.5345 103.926 34.0657C104.141 32.6828 104.25 31.284 104.25 29.9067C104.249 28.5475 104.141 27.1507 103.926 25.7532ZM77.6281 42.47C70.7012 42.47 65.0653 36.8328 65.0653 29.9053C65.0653 22.9819 70.7012 17.3489 77.6281 17.3489C84.5522 17.3489 90.186 22.9819 90.186 29.9053C90.186 36.8328 84.5522 42.47 77.6281 42.47Z" fill="#DBE1FE" stroke="#4A67FB" stroke-width="5.07143"/>
</svg>
