<svg width="617" height="784" viewBox="0 0 617 784" fill="none" xmlns="http://www.w3.org/2000/svg">
<g filter="url(#filter0_d)">
<path d="M606.5 672.843L417.462 581.343L236 672.843L420.462 771.343L606.5 672.843Z" fill="#404040"/>
</g>
<path d="M607 622.343L522 664.843V714.843L607 669.398V622.343Z" fill="#F3F3F3"/>
<path d="M505 573.343L420 615.843V665.843L505 620.398V573.343Z" fill="#F3F3F3"/>
<path d="M502 723.18C505.158 725.22 511.579 728.404 512 728.812L522 734.343L524.5 718.343L502 707.343V723.18Z" fill="white"/>
<path d="M318 663.343L236 623.843V668.843L318 712.843V663.343Z" fill="#D7D7D7"/>
<path d="M522 665.839L436.5 623.843V672.349L522 714.343V665.839Z" fill="#D7D7D7"/>
<path d="M420.5 615.339L335 573.343V621.849L420.5 663.843V615.339Z" fill="#D7D7D7"/>
<path d="M606.5 623.343L521.853 581.343L437 624.343L521.853 665.843L606.5 623.343Z" fill="#E8E8E8"/>
<path d="M504.5 573.343L419.853 531.343L335 574.343L419.853 615.843L504.5 573.343Z" fill="#E8E8E8"/>
<path d="M522.53 589.812C522.237 589.52 521.763 589.52 521.47 589.812L516.697 594.585C516.404 594.878 516.404 595.353 516.697 595.646C516.99 595.939 517.464 595.939 517.757 595.646L522 591.403L526.243 595.646C526.536 595.939 527.01 595.939 527.303 595.646C527.596 595.353 527.596 594.878 527.303 594.585L522.53 589.812ZM522.75 623.343L522.75 590.343L521.25 590.343L521.25 623.343L522.75 623.343Z" fill="#404040"/>
<path d="M521.47 623.873C521.763 624.166 522.237 624.166 522.53 623.873L527.303 619.1C527.596 618.807 527.596 618.332 527.303 618.039C527.01 617.747 526.536 617.747 526.243 618.039L522 622.282L517.757 618.039C517.464 617.747 516.99 617.747 516.697 618.039C516.404 618.332 516.404 618.807 516.697 619.1L521.47 623.873ZM521.25 590.343V623.343L522.75 623.343V590.343L521.25 590.343Z" fill="#404040"/>
<path d="M338 706.343L317 716.343V728.843L338 733.843V706.343Z" fill="white"/>
<path d="M403 623.343L318 663.343V712.343L403 672.398V623.343Z" fill="#F3F3F3"/>
<path d="M405 622.343L325.5 583.843L236 624.343L317.5 664.343L405 622.343Z" fill="#E8E8E8"/>
<path d="M318.53 592.812C318.237 592.52 317.763 592.52 317.47 592.812L312.697 597.585C312.404 597.878 312.404 598.353 312.697 598.646C312.99 598.939 313.464 598.939 313.757 598.646L318 594.403L322.243 598.646C322.536 598.939 323.01 598.939 323.303 598.646C323.596 598.353 323.596 597.878 323.303 597.585L318.53 592.812ZM318.75 626.343L318.75 593.343L317.25 593.343L317.25 626.343L318.75 626.343Z" fill="#404040"/>
<path d="M317.47 626.873C317.763 627.166 318.237 627.166 318.53 626.873L323.303 622.1C323.596 621.807 323.596 621.332 323.303 621.039C323.01 620.747 322.536 620.747 322.243 621.039L318 625.282L313.757 621.039C313.464 620.747 312.99 620.747 312.697 621.039C312.404 621.332 312.404 621.807 312.697 622.1L317.47 626.873ZM317.25 593.343V626.343L318.75 626.343V593.343L317.25 593.343Z" fill="#404040"/>
<path d="M420 716.843L338 675.343V723.343L420 767.843V716.843Z" fill="#D7D7D7"/>
<path d="M504.5 677.343L424 636.343L338 676.343L420.5 717.843L504.5 677.343Z" fill="#E8E8E8"/>
<path d="M505 676.343L420 717.445V768.343L505 723.949V676.343Z" fill="#F3F3F3"/>
<path d="M422.53 644.812C422.237 644.52 421.763 644.52 421.47 644.812L416.697 649.585C416.404 649.878 416.404 650.353 416.697 650.646C416.99 650.939 417.464 650.939 417.757 650.646L422 646.403L426.243 650.646C426.536 650.939 427.01 650.939 427.303 650.646C427.596 650.353 427.596 649.878 427.303 649.585L422.53 644.812ZM422.75 676.343L422.75 645.343L421.25 645.343L421.25 676.343L422.75 676.343Z" fill="#404040"/>
<path d="M421.47 676.873C421.763 677.166 422.237 677.166 422.53 676.873L427.303 672.1C427.596 671.807 427.596 671.332 427.303 671.039C427.01 670.747 426.536 670.747 426.243 671.039L422 675.282L417.757 671.039C417.464 670.747 416.99 670.747 416.697 671.039C416.404 671.332 416.404 671.807 416.697 672.1L421.47 676.873ZM421.25 645.343V676.343H422.75V645.343H421.25Z" fill="#404040"/>
<path d="M421 510.449L343 470.343V501.052L421 541.854V510.449Z" fill="#404040"/>
<path d="M497.5 472.343L420.966 436.343L343 470.343L420.966 510.843L497.5 472.343Z" fill="#8C8C8C"/>
<path d="M497.5 472.56L421 510.074V541.343L497.5 503.031V472.56Z" fill="#606060"/>
<path d="M330 552.449L252 512.343V543.052L330 583.854V552.449Z" fill="#404040"/>
<path d="M406.5 514.343L329.966 478.343L252 512.343L329.966 552.843L406.5 514.343Z" fill="#8C8C8C"/>
<path d="M406.5 514.56L330 552.074V583.343L406.5 545.031V514.56Z" fill="#606060"/>
<path d="M507 552.449L429 512.343V543.052L507 583.854V552.449Z" fill="#404040"/>
<path d="M583.5 514.343L506.966 478.343L429 512.343L506.966 552.843L583.5 514.343Z" fill="#8C8C8C"/>
<path d="M583.5 514.56L507 552.074V583.343L583.5 545.031V514.56Z" fill="#606060"/>
<path d="M419 596.106L341 556V586.709L419 627.511V596.106Z" fill="#404040"/>
<path d="M495.5 558L418.966 518L341 556L418.966 596.5L495.5 558Z" fill="#8C8C8C"/>
<path d="M495.5 558.217L419 595.731V627L495.5 588.688V558.217Z" fill="#606060"/>
<path d="M423.835 411.514L265 333.155V448.37L424.541 527.282L423.835 411.514Z" fill="#4A67FB"/>
<path d="M587.612 334.567L423.835 261.343L265 333.861L423.835 411.514L587.612 334.567Z" fill="#A4B2FC"/>
<path d="M587.612 334.567L423.835 411.514L424.541 467.282L587.612 389.63V334.567Z" fill="#6E85FC"/>
<path opacity="0.95" d="M587.777 335.343L424 412.29L424.706 528.058L587.777 450.405V335.343Z" fill="#6E85FC"/>
<path d="M521.47 513.873C521.763 514.166 522.237 514.166 522.53 513.873L527.303 509.1C527.596 508.807 527.596 508.332 527.303 508.039C527.01 507.747 526.536 507.747 526.243 508.039L522 512.282L517.757 508.039C517.464 507.747 516.99 507.747 516.697 508.039C516.404 508.332 516.404 508.807 516.697 509.1L521.47 513.873ZM521.25 480.343V513.343L522.75 513.343V480.343L521.25 480.343Z" fill="#404040"/>
<path d="M317.47 516.873C317.763 517.166 318.237 517.166 318.53 516.873L323.303 512.1C323.596 511.807 323.596 511.332 323.303 511.039C323.01 510.747 322.536 510.747 322.243 511.039L318 515.282L313.757 511.039C313.464 510.747 312.99 510.747 312.697 511.039C312.404 511.332 312.404 511.807 312.697 512.1L317.47 516.873ZM317.25 483.343V516.343L318.75 516.343V483.343L317.25 483.343Z" fill="#404040"/>
<path d="M422.53 534.812C422.237 534.52 421.763 534.52 421.47 534.812L416.697 539.585C416.404 539.878 416.404 540.353 416.697 540.646C416.99 540.939 417.464 540.939 417.757 540.646L422 536.403L426.243 540.646C426.536 540.939 427.01 540.939 427.303 540.646C427.596 540.353 427.596 539.878 427.303 539.585L422.53 534.812ZM422.75 566.343L422.75 535.343L421.25 535.343L421.25 566.343L422.75 566.343Z" fill="#404040"/>
<path d="M421.47 566.873C421.763 567.166 422.237 567.166 422.53 566.873L427.303 562.1C427.596 561.807 427.596 561.332 427.303 561.039C427.01 560.747 426.536 560.747 426.243 561.039L422 565.282L417.757 561.039C417.464 560.747 416.99 560.747 416.697 561.039C416.404 561.332 416.404 561.807 416.697 562.1L421.47 566.873ZM421.25 535.343V566.343H422.75V535.343H421.25Z" fill="#404040"/>
<path d="M521.47 333.873C521.763 334.166 522.237 334.166 522.53 333.873L527.303 329.1C527.596 328.807 527.596 328.332 527.303 328.039C527.01 327.747 526.536 327.747 526.243 328.039L522 332.282L517.757 328.039C517.464 327.747 516.99 327.747 516.697 328.039C516.404 328.332 516.404 328.807 516.697 329.1L521.47 333.873ZM521.25 300.343V333.343L522.75 333.343V300.343L521.25 300.343Z" fill="#404040"/>
<path d="M317.47 336.873C317.763 337.166 318.237 337.166 318.53 336.873L323.303 332.1C323.596 331.807 323.596 331.332 323.303 331.039C323.01 330.747 322.536 330.747 322.243 331.039L318 335.282L313.757 331.039C313.464 330.747 312.99 330.747 312.697 331.039C312.404 331.332 312.404 331.807 312.697 332.1L317.47 336.873ZM317.25 303.343V336.343L318.75 336.343V303.343L317.25 303.343Z" fill="#404040"/>
<path d="M422.53 354.812C422.237 354.52 421.763 354.52 421.47 354.812L416.697 359.585C416.404 359.878 416.404 360.353 416.697 360.646C416.99 360.939 417.464 360.939 417.757 360.646L422 356.403L426.243 360.646C426.536 360.939 427.01 360.939 427.303 360.646C427.596 360.353 427.596 359.878 427.303 359.585L422.53 354.812ZM422.75 386.343L422.75 355.343L421.25 355.343L421.25 386.343L422.75 386.343Z" fill="#404040"/>
<path d="M421.47 386.873C421.763 387.166 422.237 387.166 422.53 386.873L427.303 382.1C427.596 381.807 427.596 381.332 427.303 381.039C427.01 380.747 426.536 380.747 426.243 381.039L422 385.282L417.757 381.039C417.464 380.747 416.99 380.747 416.697 381.039C416.404 381.332 416.404 381.807 416.697 382.1L421.47 386.873ZM421.25 355.343V386.343H422.75V355.343H421.25Z" fill="#404040"/>
<path d="M421 218.449L343 178.343V209.052L421 249.854V218.449Z" fill="#8B042F"/>
<path d="M497.5 180.343L420.966 144.343L343 178.343L420.966 218.843L497.5 180.343Z" fill="#F4718B"/>
<path d="M497.5 180.343L421 218.074V249.343L497.5 211.031V180.343Z" fill="#D51A46"/>
<path d="M332 260.843L254 221.343V252.052L332 292.854V260.843Z" fill="#8B042F"/>
<path d="M408.5 223.343L331.966 187.343L254 221.343L332 261.343L408.5 223.343Z" fill="#F4718B"/>
<path d="M408.5 223.56L332 261.074V292.343L408.5 254.031V223.56Z" fill="#D51A46"/>
<path d="M507 260.449L433 224.343V255.052L507 291.854V260.449Z" fill="#8B042F"/>
<path d="M583.5 224.343L506.966 188.343L433 224.343L506.966 260.843L583.5 224.343Z" fill="#F4718B"/>
<path d="M583.5 224.56L507 260.843V291.343L583.5 255.031V224.56Z" fill="#D51A46"/>
<path d="M423 304.949L345 264.843V295.552L423 336.354V304.949Z" fill="#8B042F"/>
<path d="M499.5 266.843L422.966 230.843L345 264.843L422.966 305.343L499.5 266.843Z" fill="#F4718B"/>
<path d="M499.5 267.06L423 304.574V335.843L499.5 297.531V267.06Z" fill="#D51A46"/>
<path d="M513.003 88.0523L477 69.9719V116.16L495.001 125.082L513.003 134.004V88.0523Z" fill="url(#paint0_linear)"/>
<path d="M549.005 70.1977L512.7 52.3428L477 70.1977L512.7 88.0527L549.005 70.1977Z" fill="#FD91B9"/>
<path opacity="0.7" d="M548.714 70.3747L512.711 88.0527V134.004L530.566 125.31L548.421 116.615L548.714 70.3747Z" fill="url(#paint1_linear)"/>
<path d="M324.53 154.47C324.237 154.177 323.763 154.177 323.47 154.47L318.697 159.243C318.404 159.536 318.404 160.01 318.697 160.303C318.99 160.596 319.464 160.596 319.757 160.303L324 156.061L328.243 160.303C328.536 160.596 329.01 160.596 329.303 160.303C329.596 160.01 329.596 159.536 329.303 159.243L324.53 154.47ZM323.47 217.53C323.763 217.823 324.237 217.823 324.53 217.53L329.303 212.757C329.596 212.464 329.596 211.99 329.303 211.697C329.01 211.404 328.536 211.404 328.243 211.697L324 215.939L319.757 211.697C319.464 211.404 318.99 211.404 318.697 211.697C318.404 211.99 318.404 212.464 318.697 212.757L323.47 217.53ZM323.25 155V217L324.75 217V155L323.25 155Z" fill="#404040"/>
<path d="M420.53 216.47C420.237 216.177 419.763 216.177 419.47 216.47L414.697 221.243C414.404 221.536 414.404 222.01 414.697 222.303C414.99 222.596 415.464 222.596 415.757 222.303L420 218.061L424.243 222.303C424.536 222.596 425.01 222.596 425.303 222.303C425.596 222.01 425.596 221.536 425.303 221.243L420.53 216.47ZM419.47 279.53C419.763 279.823 420.237 279.823 420.53 279.53L425.303 274.757C425.596 274.464 425.596 273.99 425.303 273.697C425.01 273.404 424.536 273.404 424.243 273.697L420 277.939L415.757 273.697C415.464 273.404 414.99 273.404 414.697 273.697C414.404 273.99 414.404 274.464 414.697 274.757L419.47 279.53ZM419.25 217V279L420.75 279V217L419.25 217Z" fill="#404040"/>
<path d="M423.53 88.4697C423.237 88.1768 422.763 88.1768 422.47 88.4697L417.697 93.2426C417.404 93.5355 417.404 94.0104 417.697 94.3033C417.99 94.5962 418.464 94.5962 418.757 94.3033L423 90.0607L427.243 94.3033C427.536 94.5962 428.01 94.5962 428.303 94.3033C428.596 94.0104 428.596 93.5355 428.303 93.2426L423.53 88.4697ZM422.47 163.53C422.763 163.823 423.237 163.823 423.53 163.53L428.303 158.757C428.596 158.464 428.596 157.99 428.303 157.697C428.01 157.404 427.536 157.404 427.243 157.697L423 161.939L418.757 157.697C418.464 157.404 417.99 157.404 417.697 157.697C417.404 157.99 417.404 158.464 417.697 158.757L422.47 163.53ZM422.25 89L422.25 163H423.75L423.75 89H422.25Z" fill="#404040"/>
<path d="M515.53 154.112C515.237 153.819 514.763 153.819 514.47 154.112L509.697 158.885C509.404 159.178 509.404 159.652 509.697 159.945C509.99 160.238 510.464 160.238 510.757 159.945L515 155.703L519.243 159.945C519.536 160.238 520.01 160.238 520.303 159.945C520.596 159.652 520.596 159.178 520.303 158.885L515.53 154.112ZM514.47 217.93C514.763 218.223 515.237 218.223 515.53 217.93L520.303 213.157C520.596 212.864 520.596 212.39 520.303 212.097C520.01 211.804 519.536 211.804 519.243 212.097L515 216.339L510.757 212.097C510.464 211.804 509.99 211.804 509.697 212.097C509.404 212.39 509.404 212.864 509.697 213.157L514.47 217.93ZM514.25 154.642V217.4L515.75 217.4V154.642L514.25 154.642Z" fill="#404040"/>
<path d="M59.4148 27.3428C62.517 27.3428 64.3118 25.4188 64.3118 22.2369C64.3118 19.07 62.517 17.161 59.5192 17.161H56.1186V27.3428H59.4148ZM57.6548 26.0004V18.5033H59.4247C61.652 18.5033 62.8004 19.8357 62.8004 22.2369C62.8004 24.6482 61.652 26.0004 59.3303 26.0004H57.6548ZM69.394 27.4969C71.0595 27.4969 72.2377 26.6766 72.5758 25.4337L71.1689 25.1801C70.9004 25.901 70.2541 26.2689 69.4089 26.2689C68.1362 26.2689 67.2811 25.4436 67.2413 23.972H72.6703V23.445C72.6703 20.6858 71.0197 19.607 69.2896 19.607C67.1618 19.607 65.7598 21.2277 65.7598 23.5743C65.7598 25.9458 67.1419 27.4969 69.394 27.4969ZM67.2463 22.8584C67.3059 21.7746 68.0914 20.835 69.2995 20.835C70.4529 20.835 71.2086 21.6901 71.2136 22.8584H67.2463ZM74.3196 30.2064H75.8061V26.1546H75.8956C76.1641 26.6418 76.7109 27.4919 78.103 27.4919C79.9524 27.4919 81.2947 26.0104 81.2947 23.5395C81.2947 21.0637 79.9325 19.607 78.0881 19.607C76.6712 19.607 76.1591 20.472 75.8956 20.9443H75.7713V19.7064H74.3196V30.2064ZM75.7763 23.5246C75.7763 21.9287 76.4723 20.8698 77.7699 20.8698C79.1172 20.8698 79.7933 22.0083 79.7933 23.5246C79.7933 25.0558 79.0973 26.2242 77.7699 26.2242C76.4922 26.2242 75.7763 25.1304 75.7763 23.5246ZM82.9602 17.161V25.5629C82.9602 26.771 83.5817 27.4173 84.8693 27.3975C85.267 27.3925 85.5852 27.3279 85.794 27.2632L85.5256 26.075C85.4212 26.1048 85.3168 26.1396 85.0582 26.1446C84.581 26.1595 84.4467 25.911 84.4467 25.2547V17.161H82.9602ZM89.9913 27.4969C92.144 27.4969 93.551 25.9209 93.551 23.5594C93.551 21.183 92.144 19.607 89.9913 19.607C87.8386 19.607 86.4316 21.183 86.4316 23.5594C86.4316 25.9209 87.8386 27.4969 89.9913 27.4969ZM89.9963 26.249C88.5893 26.249 87.9331 25.021 87.9331 23.5544C87.9331 22.0928 88.5893 20.8499 89.9963 20.8499C91.3933 20.8499 92.0495 22.0928 92.0495 23.5544C92.0495 25.021 91.3933 26.249 89.9963 26.249ZM95.8764 30.2064C97.1044 30.2064 97.88 29.5651 98.3224 28.3619L101.479 19.7213L99.8736 19.7064L97.9396 25.6325H97.8601L95.9261 19.7064H94.3352L97.1293 27.4422L96.9453 27.9493C96.5675 28.9635 96.0355 29.048 95.2202 28.8243L94.8622 30.0423C95.0412 30.1219 95.429 30.2064 95.8764 30.2064ZM105.898 27.4969C107.563 27.4969 108.742 26.6766 109.08 25.4337L107.673 25.1801C107.404 25.901 106.758 26.2689 105.913 26.2689C104.64 26.2689 103.785 25.4436 103.745 23.972H109.174V23.445C109.174 20.6858 107.524 19.607 105.794 19.607C103.666 19.607 102.264 21.2277 102.264 23.5743C102.264 25.9458 103.646 27.4969 105.898 27.4969ZM103.75 22.8584C103.81 21.7746 104.595 20.835 105.803 20.835C106.957 20.835 107.713 21.6901 107.718 22.8584H103.75ZM113.682 27.4919C115.074 27.4919 115.621 26.6418 115.89 26.1546H116.014V27.3428H117.466V17.161H115.979V20.9443H115.89C115.621 20.472 115.114 19.607 113.692 19.607C111.848 19.607 110.49 21.0637 110.49 23.5395C110.49 26.0104 111.828 27.4919 113.682 27.4919ZM114.01 26.2242C112.683 26.2242 111.992 25.0558 111.992 23.5246C111.992 22.0083 112.668 20.8698 114.01 20.8698C115.308 20.8698 116.004 21.9287 116.004 23.5246C116.004 25.1304 115.293 26.2242 114.01 26.2242ZM56.9787 51.3428L57.9134 48.6482H61.8906L62.8203 51.3428H64.451L60.7869 41.161H59.0121L55.348 51.3428H56.9787ZM58.3608 47.3556L59.8622 43.0104H59.9418L61.4432 47.3556H58.3608ZM65.802 54.2064H67.2885V50.1546H67.378C67.6465 50.6418 68.1934 51.4919 69.5854 51.4919C71.4348 51.4919 72.7772 50.0104 72.7772 47.5395C72.7772 45.0637 71.415 43.607 69.5705 43.607C68.1536 43.607 67.6415 44.472 67.378 44.9443H67.2537V43.7064H65.802V54.2064ZM67.2587 47.5246C67.2587 45.9287 67.9547 44.8698 69.2523 44.8698C70.5996 44.8698 71.2757 46.0083 71.2757 47.5246C71.2757 49.0558 70.5797 50.2242 69.2523 50.2242C67.9746 50.2242 67.2587 49.1304 67.2587 47.5246ZM74.4426 54.2064H75.9292V50.1546H76.0186C76.2871 50.6418 76.834 51.4919 78.226 51.4919C80.0755 51.4919 81.4178 50.0104 81.4178 47.5395C81.4178 45.0637 80.0556 43.607 78.2111 43.607C76.7942 43.607 76.2821 44.472 76.0186 44.9443H75.8944V43.7064H74.4426V54.2064ZM75.8993 47.5246C75.8993 45.9287 76.5953 44.8698 77.8929 44.8698C79.2402 44.8698 79.9164 46.0083 79.9164 47.5246C79.9164 49.0558 79.2203 50.2242 77.8929 50.2242C76.6152 50.2242 75.8993 49.1304 75.8993 47.5246ZM83.0833 41.161V49.5629C83.0833 50.771 83.7047 51.4173 84.9924 51.3975C85.3901 51.3925 85.7083 51.3279 85.9171 51.2632L85.6486 50.075C85.5442 50.1048 85.4398 50.1396 85.1813 50.1446C84.704 50.1595 84.5698 49.911 84.5698 49.2547V41.161H83.0833ZM86.8977 51.3428H88.3842V43.7064H86.8977V51.3428ZM87.6484 42.5281C88.1605 42.5281 88.5881 42.1304 88.5881 41.6432C88.5881 41.156 88.1605 40.7533 87.6484 40.7533C87.1314 40.7533 86.7088 41.156 86.7088 41.6432C86.7088 42.1304 87.1314 42.5281 87.6484 42.5281ZM93.6007 51.4969C95.4054 51.4969 96.5737 50.4131 96.7377 48.9266H95.291C95.1021 49.7519 94.4608 50.2391 93.6106 50.2391C92.3528 50.2391 91.5424 49.1901 91.5424 47.5246C91.5424 45.8889 92.3677 44.8598 93.6106 44.8598C94.5552 44.8598 95.1319 45.4564 95.291 46.1723H96.7377C96.5787 44.6311 95.3208 43.607 93.5858 43.607C91.4331 43.607 90.041 45.2277 90.041 47.5594C90.041 49.8612 91.3833 51.4969 93.6007 51.4969ZM100.55 51.5118C101.812 51.5118 102.523 50.8705 102.807 50.2987H102.866V51.3428H104.318V46.2718C104.318 44.0494 102.568 43.607 101.355 43.607C99.973 43.607 98.7003 44.1638 98.2031 45.5558L99.6001 45.874C99.8189 45.3321 100.376 44.8101 101.375 44.8101C102.335 44.8101 102.827 45.3122 102.827 46.1773V46.2121C102.827 46.754 102.27 46.7441 100.898 46.9031C99.451 47.0722 97.9695 47.45 97.9695 49.1851C97.9695 50.6865 99.098 51.5118 100.55 51.5118ZM100.873 50.3186C100.033 50.3186 99.4261 49.9408 99.4261 49.205C99.4261 48.4095 100.132 48.1262 100.992 48.0118C101.474 47.9472 102.618 47.8179 102.832 47.6041V48.5885C102.832 49.4933 102.111 50.3186 100.873 50.3186ZM109.863 43.7064H108.297V41.8769H106.81V43.7064H105.692V44.8996H106.81V49.4088C106.805 50.7959 107.864 51.4671 109.037 51.4422C109.51 51.4372 109.828 51.3477 110.002 51.2831L109.733 50.0551C109.634 50.075 109.45 50.1198 109.211 50.1198C108.729 50.1198 108.297 49.9607 108.297 49.1006V44.8996H109.863V43.7064ZM111.507 51.3428H112.994V43.7064H111.507V51.3428ZM112.258 42.5281C112.77 42.5281 113.197 42.1304 113.197 41.6432C113.197 41.156 112.77 40.7533 112.258 40.7533C111.741 40.7533 111.318 41.156 111.318 41.6432C111.318 42.1304 111.741 42.5281 112.258 42.5281ZM118.21 51.4969C120.363 51.4969 121.77 49.9209 121.77 47.5594C121.77 45.183 120.363 43.607 118.21 43.607C116.057 43.607 114.65 45.183 114.65 47.5594C114.65 49.9209 116.057 51.4969 118.21 51.4969ZM118.215 50.249C116.808 50.249 116.152 49.021 116.152 47.5544C116.152 46.0928 116.808 44.8499 118.215 44.8499C119.612 44.8499 120.268 46.0928 120.268 47.5544C120.268 49.021 119.612 50.249 118.215 50.249ZM124.915 46.8087C124.915 45.5906 125.661 44.8946 126.695 44.8946C127.705 44.8946 128.316 45.5558 128.316 46.6645V51.3428H129.803V46.4855C129.803 44.5963 128.763 43.607 127.202 43.607C126.054 43.607 125.303 44.1389 124.95 44.9493H124.856V43.7064H123.429V51.3428H124.915V46.8087ZM137.518 45.5708C137.21 44.3825 136.281 43.607 134.63 43.607C132.905 43.607 131.682 44.5168 131.682 45.8691C131.682 46.9529 132.338 47.6737 133.77 47.9919L135.062 48.2753C135.798 48.4394 136.141 48.7675 136.141 49.2448C136.141 49.8364 135.51 50.2987 134.536 50.2987C133.646 50.2987 133.074 49.9159 132.895 49.1652L131.458 49.384C131.707 50.7362 132.83 51.4969 134.545 51.4969C136.39 51.4969 137.668 50.5175 137.668 49.1354C137.668 48.0566 136.982 47.3904 135.58 47.0672L134.366 46.7888C133.526 46.5899 133.163 46.3066 133.168 45.7895C133.163 45.2029 133.8 44.7852 134.645 44.7852C135.57 44.7852 135.997 45.2973 136.171 45.8094L137.518 45.5708Z" fill="#333333"/>
<path d="M20.6719 485.836H22.1534C22.1087 484.205 20.6669 483.022 18.5987 483.022C16.5554 483.022 14.9893 484.19 14.9893 485.945C14.9893 487.362 16.0036 488.192 17.6392 488.635L18.8423 488.963C19.9311 489.251 20.7713 489.609 20.7713 490.514C20.7713 491.508 19.8217 492.165 18.5142 492.165C17.331 492.165 16.3466 491.638 16.2571 490.529H14.7159C14.8153 492.373 16.2422 493.512 18.5241 493.512C20.9155 493.512 22.2926 492.254 22.2926 490.529C22.2926 488.694 20.657 487.983 19.3643 487.665L18.37 487.407C17.5746 487.203 16.5156 486.83 16.5206 485.856C16.5206 484.991 17.3111 484.349 18.5639 484.349C19.7322 484.349 20.5625 484.896 20.6719 485.836ZM27.2257 493.497C29.3784 493.497 30.7853 491.921 30.7853 489.559C30.7853 487.183 29.3784 485.607 27.2257 485.607C25.073 485.607 23.666 487.183 23.666 489.559C23.666 491.921 25.073 493.497 27.2257 493.497ZM27.2306 492.249C25.8237 492.249 25.1674 491.021 25.1674 489.554C25.1674 488.093 25.8237 486.85 27.2306 486.85C28.6277 486.85 29.2839 488.093 29.2839 489.554C29.2839 491.021 28.6277 492.249 27.2306 492.249ZM37.282 490.176C37.2869 491.473 36.3224 492.09 35.4872 492.09C34.5675 492.09 33.9311 491.424 33.9311 490.385V485.706H32.4446V490.564C32.4446 492.458 33.4837 493.442 34.9503 493.442C36.0987 493.442 36.8793 492.836 37.2322 492.02H37.3118V493.343H38.7734V485.706H37.282V490.176ZM40.7708 493.343H42.2573V488.679C42.2573 487.68 43.0279 486.959 44.0819 486.959C44.3901 486.959 44.7381 487.014 44.8574 487.049V485.627C44.7083 485.607 44.415 485.592 44.226 485.592C43.3311 485.592 42.5655 486.099 42.2871 486.919H42.2076V485.706H40.7708V493.343ZM49.087 493.497C50.8917 493.497 52.06 492.413 52.2241 490.927H50.7773C50.5884 491.752 49.9471 492.239 49.0969 492.239C47.8391 492.239 47.0288 491.19 47.0288 489.525C47.0288 487.889 47.854 486.86 49.0969 486.86C50.0415 486.86 50.6183 487.456 50.7773 488.172H52.2241C52.065 486.631 50.8072 485.607 49.0721 485.607C46.9194 485.607 45.5273 487.228 45.5273 489.559C45.5273 491.861 46.8697 493.497 49.087 493.497ZM57.1049 493.497C58.7704 493.497 59.9487 492.677 60.2868 491.434L58.8798 491.18C58.6113 491.901 57.965 492.269 57.1199 492.269C55.8471 492.269 54.992 491.444 54.9522 489.972H60.3812V489.445C60.3812 486.686 58.7306 485.607 57.0005 485.607C54.8727 485.607 53.4707 487.228 53.4707 489.574C53.4707 491.946 54.8528 493.497 57.1049 493.497ZM54.9572 488.858C55.0169 487.775 55.8024 486.835 57.0105 486.835C58.1639 486.835 58.9196 487.69 58.9245 488.858H54.9572ZM71.4082 485.836H72.8897C72.845 484.205 71.4032 483.022 69.335 483.022C67.2917 483.022 65.7257 484.19 65.7257 485.945C65.7257 487.362 66.7399 488.192 68.3755 488.635L69.5787 488.963C70.6674 489.251 71.5076 489.609 71.5076 490.514C71.5076 491.508 70.5581 492.165 69.2505 492.165C68.0673 492.165 67.0829 491.638 66.9934 490.529H65.4522C65.5517 492.373 66.9785 493.512 69.2605 493.512C71.6518 493.512 73.0289 492.254 73.0289 490.529C73.0289 488.694 71.3933 487.983 70.1007 487.665L69.1064 487.407C68.3109 487.203 67.252 486.83 67.2569 485.856C67.2569 484.991 68.0474 484.349 69.3002 484.349C70.4686 484.349 71.2988 484.896 71.4082 485.836ZM77.962 493.497C79.7667 493.497 80.935 492.413 81.0991 490.927H79.6523C79.4634 491.752 78.8221 492.239 77.9719 492.239C76.7141 492.239 75.9038 491.19 75.9038 489.525C75.9038 487.889 76.729 486.86 77.9719 486.86C78.9165 486.86 79.4933 487.456 79.6523 488.172H81.0991C80.94 486.631 79.6822 485.607 77.9471 485.607C75.7944 485.607 74.4023 487.228 74.4023 489.559C74.4023 491.861 75.7447 493.497 77.962 493.497ZM84.1752 488.809C84.1752 487.591 84.9458 486.895 86.0048 486.895C87.0289 486.895 87.6404 487.546 87.6404 488.665V493.343H89.127V488.486C89.127 486.581 88.0829 485.607 86.5119 485.607C85.3237 485.607 84.6078 486.124 84.2498 486.949H84.1554V483.161H82.6887V493.343H84.1752V488.809ZM94.4018 493.497C96.0673 493.497 97.2456 492.677 97.5836 491.434L96.1767 491.18C95.9082 491.901 95.2619 492.269 94.4167 492.269C93.144 492.269 92.2889 491.444 92.2491 489.972H97.6781V489.445C97.6781 486.686 96.0275 485.607 94.2974 485.607C92.1696 485.607 90.7676 487.228 90.7676 489.574C90.7676 491.946 92.1497 493.497 94.4018 493.497ZM92.2541 488.858C92.3137 487.775 93.0993 486.835 94.3074 486.835C95.4608 486.835 96.2164 487.69 96.2214 488.858H92.2541ZM99.3274 493.343H100.814V488.635C100.814 487.606 101.535 486.89 102.38 486.89C103.205 486.89 103.777 487.437 103.777 488.267V493.343H105.259V488.476C105.259 487.556 105.82 486.89 106.79 486.89C107.575 486.89 108.222 487.327 108.222 488.361V493.343H109.708V488.222C109.708 486.477 108.734 485.607 107.352 485.607C106.253 485.607 105.428 486.134 105.06 486.949H104.98C104.647 486.114 103.946 485.607 102.927 485.607C101.918 485.607 101.167 486.109 100.849 486.949H100.754V485.706H99.3274V493.343ZM113.923 493.512C115.186 493.512 115.896 492.87 116.18 492.299H116.24V493.343H117.691V488.272C117.691 486.049 115.941 485.607 114.728 485.607C113.346 485.607 112.073 486.164 111.576 487.556L112.973 487.874C113.192 487.332 113.749 486.81 114.748 486.81C115.708 486.81 116.2 487.312 116.2 488.177V488.212C116.2 488.754 115.643 488.744 114.271 488.903C112.824 489.072 111.343 489.45 111.343 491.185C111.343 492.687 112.471 493.512 113.923 493.512ZM114.246 492.319C113.406 492.319 112.799 491.941 112.799 491.205C112.799 490.41 113.505 490.126 114.365 490.012C114.847 489.947 115.991 489.818 116.205 489.604V490.589C116.205 491.493 115.484 492.319 114.246 492.319ZM125.393 487.571C125.085 486.383 124.156 485.607 122.505 485.607C120.78 485.607 119.557 486.517 119.557 487.869C119.557 488.953 120.213 489.674 121.645 489.992L122.938 490.275C123.673 490.439 124.016 490.767 124.016 491.245C124.016 491.836 123.385 492.299 122.411 492.299C121.521 492.299 120.949 491.916 120.77 491.165L119.333 491.384C119.582 492.736 120.705 493.497 122.42 493.497C124.265 493.497 125.543 492.517 125.543 491.135C125.543 490.057 124.857 489.39 123.455 489.067L122.241 488.789C121.401 488.59 121.038 488.307 121.043 487.79C121.038 487.203 121.675 486.785 122.52 486.785C123.445 486.785 123.872 487.297 124.046 487.809L125.393 487.571Z" fill="#333333"/>
<path d="M0.616477 386.483H2.42116V394.02H0.616477V395.343H5.7571V394.02H3.95739V386.483H5.7571V385.161H0.616477V386.483ZM8.85689 390.809C8.85689 389.591 9.60263 388.895 10.6367 388.895C11.646 388.895 12.2575 389.556 12.2575 390.665V395.343H13.744V390.486C13.744 388.596 12.7049 387.607 11.1438 387.607C9.99538 387.607 9.24467 388.139 8.89169 388.949H8.79723V387.706H7.37038V395.343H8.85689V390.809ZM19.3718 387.706H17.7262V387.02C17.7262 386.344 18.0046 385.976 18.7305 385.976C19.0387 385.976 19.2575 386.046 19.3967 386.091L19.7447 384.888C19.5359 384.808 19.1033 384.684 18.5018 384.684C17.2937 384.684 16.2347 385.39 16.2347 386.821V387.706H15.0565V388.9H16.2347V395.343H17.7262V388.9H19.3718V387.706ZM23.8214 395.497C25.9741 395.497 27.381 393.921 27.381 391.559C27.381 389.183 25.9741 387.607 23.8214 387.607C21.6687 387.607 20.2617 389.183 20.2617 391.559C20.2617 393.921 21.6687 395.497 23.8214 395.497ZM23.8263 394.249C22.4194 394.249 21.7631 393.021 21.7631 391.554C21.7631 390.093 22.4194 388.85 23.8263 388.85C25.2234 388.85 25.8796 390.093 25.8796 391.554C25.8796 393.021 25.2234 394.249 23.8263 394.249ZM29.0403 395.343H30.5268V390.679C30.5268 389.68 31.2974 388.959 32.3514 388.959C32.6596 388.959 33.0076 389.014 33.127 389.049V387.627C32.9778 387.607 32.6845 387.592 32.4956 387.592C31.6007 387.592 30.835 388.099 30.5566 388.919H30.4771V387.706H29.0403V395.343ZM34.4134 395.343H35.8999V390.635C35.8999 389.606 36.6207 388.89 37.4659 388.89C38.2912 388.89 38.8629 389.437 38.8629 390.267V395.343H40.3445V390.476C40.3445 389.556 40.9062 388.89 41.8757 388.89C42.6612 388.89 43.3075 389.327 43.3075 390.361V395.343H44.794V390.222C44.794 388.477 43.8196 387.607 42.4375 387.607C41.3388 387.607 40.5135 388.134 40.1456 388.949H40.0661C39.733 388.114 39.032 387.607 38.0128 387.607C37.0036 387.607 36.2528 388.109 35.9347 388.949H35.8402V387.706H34.4134V395.343ZM49.0087 395.512C50.2715 395.512 50.9824 394.87 51.2658 394.299H51.3255V395.343H52.7772V390.272C52.7772 388.049 51.0272 387.607 49.8141 387.607C48.432 387.607 47.1593 388.164 46.6621 389.556L48.0591 389.874C48.2779 389.332 48.8347 388.81 49.834 388.81C50.7935 388.81 51.2857 389.312 51.2857 390.177V390.212C51.2857 390.754 50.7289 390.744 49.3567 390.903C47.91 391.072 46.4284 391.45 46.4284 393.185C46.4284 394.687 47.557 395.512 49.0087 395.512ZM49.3319 394.319C48.4917 394.319 47.8851 393.941 47.8851 393.205C47.8851 392.41 48.5911 392.126 49.4512 392.012C49.9334 391.947 51.0769 391.818 51.2907 391.604V392.589C51.2907 393.493 50.5698 394.319 49.3319 394.319ZM58.3217 387.706H56.7557V385.877H55.2692V387.706H54.1506V388.9H55.2692V393.409C55.2642 394.796 56.3232 395.467 57.4964 395.442C57.9688 395.437 58.2869 395.348 58.4609 395.283L58.1925 394.055C58.093 394.075 57.9091 394.12 57.6705 394.12C57.1882 394.12 56.7557 393.961 56.7557 393.101V388.9H58.3217V387.706ZM59.9661 395.343H61.4526V387.706H59.9661V395.343ZM60.7168 386.528C61.2289 386.528 61.6564 386.13 61.6564 385.643C61.6564 385.156 61.2289 384.753 60.7168 384.753C60.1998 384.753 59.7772 385.156 59.7772 385.643C59.7772 386.13 60.1998 386.528 60.7168 386.528ZM66.669 395.497C68.8217 395.497 70.2287 393.921 70.2287 391.559C70.2287 389.183 68.8217 387.607 66.669 387.607C64.5163 387.607 63.1094 389.183 63.1094 391.559C63.1094 393.921 64.5163 395.497 66.669 395.497ZM66.674 394.249C65.267 394.249 64.6108 393.021 64.6108 391.554C64.6108 390.093 65.267 388.85 66.674 388.85C68.071 388.85 68.7273 390.093 68.7273 391.554C68.7273 393.021 68.071 394.249 66.674 394.249ZM73.3745 390.809C73.3745 389.591 74.1202 388.895 75.1543 388.895C76.1635 388.895 76.775 389.556 76.775 390.665V395.343H78.2615V390.486C78.2615 388.596 77.2225 387.607 75.6614 387.607C74.513 387.607 73.7623 388.139 73.4093 388.949H73.3148V387.706H71.888V395.343H73.3745V390.809ZM84.0795 385.161V395.343H85.5412V387.97H85.6357L88.6385 395.328H89.8516L92.8544 387.975H92.9489V395.343H94.4105V385.161H92.5462L89.3047 393.076H89.1854L85.9439 385.161H84.0795ZM99.7413 395.497C101.894 395.497 103.301 393.921 103.301 391.559C103.301 389.183 101.894 387.607 99.7413 387.607C97.5886 387.607 96.1816 389.183 96.1816 391.559C96.1816 393.921 97.5886 395.497 99.7413 395.497ZM99.7463 394.249C98.3393 394.249 97.6831 393.021 97.6831 391.554C97.6831 390.093 98.3393 388.85 99.7463 388.85C101.143 388.85 101.8 390.093 101.8 391.554C101.8 393.021 101.143 394.249 99.7463 394.249ZM107.819 395.492C109.211 395.492 109.758 394.642 110.026 394.155H110.151V395.343H111.602V385.161H110.116V388.944H110.026C109.758 388.472 109.251 387.607 107.829 387.607C105.984 387.607 104.627 389.064 104.627 391.54C104.627 394.01 105.964 395.492 107.819 395.492ZM108.147 394.224C106.82 394.224 106.129 393.056 106.129 391.525C106.129 390.008 106.805 388.87 108.147 388.87C109.445 388.87 110.141 389.929 110.141 391.525C110.141 393.13 109.43 394.224 108.147 394.224ZM117.015 395.497C118.681 395.497 119.859 394.677 120.197 393.434L118.79 393.18C118.521 393.901 117.875 394.269 117.03 394.269C115.757 394.269 114.902 393.444 114.862 391.972H120.291V391.445C120.291 388.686 118.641 387.607 116.911 387.607C114.783 387.607 113.381 389.228 113.381 391.574C113.381 393.946 114.763 395.497 117.015 395.497ZM114.867 390.858C114.927 389.775 115.713 388.835 116.921 388.835C118.074 388.835 118.83 389.69 118.835 390.858H114.867ZM121.941 385.161V393.563C121.941 394.771 122.562 395.417 123.85 395.397C124.248 395.392 124.566 395.328 124.775 395.263L124.506 394.075C124.402 394.105 124.297 394.14 124.039 394.145C123.561 394.16 123.427 393.911 123.427 393.255V385.161H121.941Z" fill="#333333"/>
<path d="M20.9787 211.343L21.9134 208.648H25.8906L26.8203 211.343H28.451L24.7869 201.161H23.0121L19.348 211.343H20.9787ZM22.3608 207.356L23.8622 203.01H23.9418L25.4432 207.356H22.3608ZM29.802 214.206H31.2885V210.155H31.378C31.6465 210.642 32.1934 211.492 33.5854 211.492C35.4348 211.492 36.7772 210.01 36.7772 207.54C36.7772 205.064 35.415 203.607 33.5705 203.607C32.1536 203.607 31.6415 204.472 31.378 204.944H31.2537V203.706H29.802V214.206ZM31.2587 207.525C31.2587 205.929 31.9547 204.87 33.2523 204.87C34.5996 204.87 35.2757 206.008 35.2757 207.525C35.2757 209.056 34.5797 210.224 33.2523 210.224C31.9746 210.224 31.2587 209.13 31.2587 207.525ZM38.4426 214.206H39.9292V210.155H40.0186C40.2871 210.642 40.834 211.492 42.226 211.492C44.0755 211.492 45.4178 210.01 45.4178 207.54C45.4178 205.064 44.0556 203.607 42.2111 203.607C40.7942 203.607 40.2821 204.472 40.0186 204.944H39.8944V203.706H38.4426V214.206ZM39.8993 207.525C39.8993 205.929 40.5953 204.87 41.8929 204.87C43.2402 204.87 43.9164 206.008 43.9164 207.525C43.9164 209.056 43.2203 210.224 41.8929 210.224C40.6152 210.224 39.8993 209.13 39.8993 207.525ZM47.0833 201.161V209.563C47.0833 210.771 47.7047 211.417 48.9924 211.397C49.3901 211.392 49.7083 211.328 49.9171 211.263L49.6486 210.075C49.5442 210.105 49.4398 210.14 49.1813 210.145C48.704 210.16 48.5698 209.911 48.5698 209.255V201.161H47.0833ZM50.8977 211.343H52.3842V203.706H50.8977V211.343ZM51.6484 202.528C52.1605 202.528 52.5881 202.13 52.5881 201.643C52.5881 201.156 52.1605 200.753 51.6484 200.753C51.1314 200.753 50.7088 201.156 50.7088 201.643C50.7088 202.13 51.1314 202.528 51.6484 202.528ZM57.6007 211.497C59.4054 211.497 60.5737 210.413 60.7377 208.927H59.291C59.1021 209.752 58.4608 210.239 57.6106 210.239C56.3528 210.239 55.5424 209.19 55.5424 207.525C55.5424 205.889 56.3677 204.86 57.6106 204.86C58.5552 204.86 59.1319 205.456 59.291 206.172H60.7377C60.5787 204.631 59.3208 203.607 57.5858 203.607C55.4331 203.607 54.041 205.228 54.041 207.559C54.041 209.861 55.3833 211.497 57.6007 211.497ZM64.5497 211.512C65.8125 211.512 66.5234 210.87 66.8068 210.299H66.8665V211.343H68.3182V206.272C68.3182 204.049 66.5682 203.607 65.3551 203.607C63.973 203.607 62.7003 204.164 62.2031 205.556L63.6001 205.874C63.8189 205.332 64.3757 204.81 65.375 204.81C66.3345 204.81 66.8267 205.312 66.8267 206.177V206.212C66.8267 206.754 66.2699 206.744 64.8977 206.903C63.451 207.072 61.9695 207.45 61.9695 209.185C61.9695 210.687 63.098 211.512 64.5497 211.512ZM64.8729 210.319C64.0327 210.319 63.4261 209.941 63.4261 209.205C63.4261 208.41 64.1321 208.126 64.9922 208.012C65.4744 207.947 66.6179 207.818 66.8317 207.604V208.589C66.8317 209.493 66.1108 210.319 64.8729 210.319ZM73.8627 203.706H72.2967V201.877H70.8102V203.706H69.6916V204.9H70.8102V209.409C70.8052 210.796 71.8642 211.467 73.0375 211.442C73.5098 211.437 73.8279 211.348 74.002 211.283L73.7335 210.055C73.6341 210.075 73.4501 210.12 73.2115 210.12C72.7292 210.12 72.2967 209.961 72.2967 209.101V204.9H73.8627V203.706ZM75.5071 211.343H76.9936V203.706H75.5071V211.343ZM76.2578 202.528C76.7699 202.528 77.1974 202.13 77.1974 201.643C77.1974 201.156 76.7699 200.753 76.2578 200.753C75.7408 200.753 75.3182 201.156 75.3182 201.643C75.3182 202.13 75.7408 202.528 76.2578 202.528ZM82.21 211.497C84.3627 211.497 85.7697 209.921 85.7697 207.559C85.7697 205.183 84.3627 203.607 82.21 203.607C80.0574 203.607 78.6504 205.183 78.6504 207.559C78.6504 209.921 80.0574 211.497 82.21 211.497ZM82.215 210.249C80.8081 210.249 80.1518 209.021 80.1518 207.554C80.1518 206.093 80.8081 204.85 82.215 204.85C83.612 204.85 84.2683 206.093 84.2683 207.554C84.2683 209.021 83.612 210.249 82.215 210.249ZM88.9155 206.809C88.9155 205.591 89.6612 204.895 90.6953 204.895C91.7045 204.895 92.3161 205.556 92.3161 206.665V211.343H93.8026V206.486C93.8026 204.596 92.7635 203.607 91.2024 203.607C90.054 203.607 89.3033 204.139 88.9503 204.949H88.8558V203.706H87.429V211.343H88.9155V206.809ZM105.174 203.836H106.655C106.611 202.205 105.169 201.022 103.101 201.022C101.057 201.022 99.4913 202.19 99.4913 203.945C99.4913 205.362 100.506 206.192 102.141 206.635L103.344 206.963C104.433 207.251 105.273 207.609 105.273 208.514C105.273 209.508 104.324 210.165 103.016 210.165C101.833 210.165 100.849 209.638 100.759 208.529H99.2179C99.3173 210.373 100.744 211.512 103.026 211.512C105.417 211.512 106.795 210.254 106.795 208.529C106.795 206.694 105.159 205.983 103.866 205.665L102.872 205.407C102.077 205.203 101.018 204.83 101.023 203.856C101.023 202.991 101.813 202.349 103.066 202.349C104.234 202.349 105.064 202.896 105.174 203.836ZM111.728 211.497C113.532 211.497 114.701 210.413 114.865 208.927H113.418C113.229 209.752 112.588 210.239 111.738 210.239C110.48 210.239 109.669 209.19 109.669 207.525C109.669 205.889 110.495 204.86 111.738 204.86C112.682 204.86 113.259 205.456 113.418 206.172H114.865C114.706 204.631 113.448 203.607 111.713 203.607C109.56 203.607 108.168 205.228 108.168 207.559C108.168 209.861 109.51 211.497 111.728 211.497ZM117.941 206.809C117.941 205.591 118.711 204.895 119.77 204.895C120.795 204.895 121.406 205.546 121.406 206.665V211.343H122.893V206.486C122.893 204.581 121.849 203.607 120.278 203.607C119.089 203.607 118.373 204.124 118.015 204.949H117.921V201.161H116.454V211.343H117.941V206.809ZM128.167 211.497C129.833 211.497 131.011 210.677 131.349 209.434L129.942 209.18C129.674 209.901 129.028 210.269 128.182 210.269C126.91 210.269 126.055 209.444 126.015 207.972H131.444V207.445C131.444 204.686 129.793 203.607 128.063 203.607C125.935 203.607 124.533 205.228 124.533 207.574C124.533 209.946 125.915 211.497 128.167 211.497ZM126.02 206.858C126.079 205.775 126.865 204.835 128.073 204.835C129.226 204.835 129.982 205.69 129.987 206.858H126.02ZM133.093 211.343H134.58V206.635C134.58 205.606 135.3 204.89 136.146 204.89C136.971 204.89 137.543 205.437 137.543 206.267V211.343H139.024V206.476C139.024 205.556 139.586 204.89 140.555 204.89C141.341 204.89 141.987 205.327 141.987 206.361V211.343H143.474V206.222C143.474 204.477 142.499 203.607 141.117 203.607C140.018 203.607 139.193 204.134 138.825 204.949H138.746C138.413 204.114 137.712 203.607 136.692 203.607C135.683 203.607 134.933 204.109 134.614 204.949H134.52V203.706H133.093V211.343ZM147.688 211.512C148.951 211.512 149.662 210.87 149.945 210.299H150.005V211.343H151.457V206.272C151.457 204.049 149.707 203.607 148.494 203.607C147.112 203.607 145.839 204.164 145.342 205.556L146.739 205.874C146.958 205.332 147.514 204.81 148.514 204.81C149.473 204.81 149.965 205.312 149.965 206.177V206.212C149.965 206.754 149.409 206.744 148.036 206.903C146.59 207.072 145.108 207.45 145.108 209.185C145.108 210.687 146.237 211.512 147.688 211.512ZM148.012 210.319C147.171 210.319 146.565 209.941 146.565 209.205C146.565 208.41 147.271 208.126 148.131 208.012C148.613 207.947 149.757 207.818 149.97 207.604V208.589C149.97 209.493 149.249 210.319 148.012 210.319ZM159.159 205.571C158.851 204.383 157.921 203.607 156.271 203.607C154.545 203.607 153.322 204.517 153.322 205.869C153.322 206.953 153.979 207.674 155.411 207.992L156.703 208.275C157.439 208.439 157.782 208.767 157.782 209.245C157.782 209.836 157.151 210.299 156.176 210.299C155.286 210.299 154.714 209.916 154.536 209.165L153.099 209.384C153.347 210.736 154.471 211.497 156.186 211.497C158.031 211.497 159.308 210.517 159.308 209.135C159.308 208.057 158.622 207.39 157.22 207.067L156.007 206.789C155.167 206.59 154.804 206.307 154.809 205.79C154.804 205.203 155.44 204.785 156.286 204.785C157.21 204.785 157.638 205.297 157.812 205.809L159.159 205.571Z" fill="#333333"/>
<path d="M62.6719 730.836H64.1534C64.1087 729.205 62.6669 728.022 60.5987 728.022C58.5554 728.022 56.9893 729.19 56.9893 730.945C56.9893 732.362 58.0036 733.192 59.6392 733.635L60.8423 733.963C61.9311 734.251 62.7713 734.609 62.7713 735.514C62.7713 736.508 61.8217 737.165 60.5142 737.165C59.331 737.165 58.3466 736.638 58.2571 735.529H56.7159C56.8153 737.373 58.2422 738.512 60.5241 738.512C62.9155 738.512 64.2926 737.254 64.2926 735.529C64.2926 733.694 62.657 732.983 61.3643 732.665L60.37 732.407C59.5746 732.203 58.5156 731.83 58.5206 730.856C58.5206 729.991 59.3111 729.349 60.5639 729.349C61.7322 729.349 62.5625 729.896 62.6719 730.836ZM69.2257 738.497C71.3784 738.497 72.7853 736.921 72.7853 734.559C72.7853 732.183 71.3784 730.607 69.2257 730.607C67.073 730.607 65.666 732.183 65.666 734.559C65.666 736.921 67.073 738.497 69.2257 738.497ZM69.2306 737.249C67.8237 737.249 67.1674 736.021 67.1674 734.554C67.1674 733.093 67.8237 731.85 69.2306 731.85C70.6277 731.85 71.2839 733.093 71.2839 734.554C71.2839 736.021 70.6277 737.249 69.2306 737.249ZM79.282 735.176C79.2869 736.473 78.3224 737.09 77.4872 737.09C76.5675 737.09 75.9311 736.424 75.9311 735.385V730.706H74.4446V735.564C74.4446 737.458 75.4837 738.442 76.9503 738.442C78.0987 738.442 78.8793 737.836 79.2322 737.02H79.3118V738.343H80.7734V730.706H79.282V735.176ZM82.7708 738.343H84.2573V733.679C84.2573 732.68 85.0279 731.959 86.0819 731.959C86.3901 731.959 86.7381 732.014 86.8574 732.049V730.627C86.7083 730.607 86.415 730.592 86.226 730.592C85.3311 730.592 84.5655 731.099 84.2871 731.919H84.2076V730.706H82.7708V738.343ZM91.087 738.497C92.8917 738.497 94.06 737.413 94.2241 735.927H92.7773C92.5884 736.752 91.9471 737.239 91.0969 737.239C89.8391 737.239 89.0288 736.19 89.0288 734.525C89.0288 732.889 89.854 731.86 91.0969 731.86C92.0415 731.86 92.6183 732.456 92.7773 733.172H94.2241C94.065 731.631 92.8072 730.607 91.0721 730.607C88.9194 730.607 87.5273 732.228 87.5273 734.559C87.5273 736.861 88.8697 738.497 91.087 738.497ZM99.1049 738.497C100.77 738.497 101.949 737.677 102.287 736.434L100.88 736.18C100.611 736.901 99.965 737.269 99.1199 737.269C97.8471 737.269 96.992 736.444 96.9522 734.972H102.381V734.445C102.381 731.686 100.731 730.607 99.0005 730.607C96.8727 730.607 95.4707 732.228 95.4707 734.574C95.4707 736.946 96.8528 738.497 99.1049 738.497ZM96.9572 733.858C97.0169 732.775 97.8024 731.835 99.0105 731.835C100.164 731.835 100.92 732.69 100.925 733.858H96.9572ZM113.408 730.836H114.89C114.845 729.205 113.403 728.022 111.335 728.022C109.292 728.022 107.726 729.19 107.726 730.945C107.726 732.362 108.74 733.192 110.376 733.635L111.579 733.963C112.667 734.251 113.508 734.609 113.508 735.514C113.508 736.508 112.558 737.165 111.251 737.165C110.067 737.165 109.083 736.638 108.993 735.529H107.452C107.552 737.373 108.979 738.512 111.26 738.512C113.652 738.512 115.029 737.254 115.029 735.529C115.029 733.694 113.393 732.983 112.101 732.665L111.106 732.407C110.311 732.203 109.252 731.83 109.257 730.856C109.257 729.991 110.047 729.349 111.3 729.349C112.469 729.349 113.299 729.896 113.408 730.836ZM117.685 741.206C118.913 741.206 119.689 740.565 120.131 739.362L123.288 730.721L121.682 730.706L119.748 736.633H119.669L117.735 730.706H116.144L118.938 738.442L118.754 738.949C118.376 739.964 117.844 740.048 117.029 739.824L116.671 741.042C116.85 741.122 117.238 741.206 117.685 741.206ZM130.411 732.571C130.103 731.383 129.173 730.607 127.523 730.607C125.797 730.607 124.574 731.517 124.574 732.869C124.574 733.953 125.231 734.674 126.662 734.992L127.955 735.275C128.691 735.439 129.034 735.767 129.034 736.245C129.034 736.836 128.403 737.299 127.428 737.299C126.538 737.299 125.966 736.916 125.787 736.165L124.351 736.384C124.599 737.736 125.723 738.497 127.438 738.497C129.282 738.497 130.56 737.517 130.56 736.135C130.56 735.057 129.874 734.39 128.472 734.067L127.259 733.789C126.419 733.59 126.056 733.307 126.061 732.79C126.056 732.203 126.692 731.785 127.537 731.785C128.462 731.785 128.89 732.297 129.064 732.809L130.411 732.571ZM135.759 730.706H134.193V728.877H132.707V730.706H131.588V731.9H132.707V736.409C132.702 737.796 133.761 738.467 134.934 738.442C135.406 738.437 135.724 738.348 135.898 738.283L135.63 737.055C135.531 737.075 135.347 737.12 135.108 737.12C134.626 737.12 134.193 736.961 134.193 736.101V731.9H135.759V730.706ZM140.613 738.497C142.278 738.497 143.456 737.677 143.795 736.434L142.388 736.18C142.119 736.901 141.473 737.269 140.628 737.269C139.355 737.269 138.5 736.444 138.46 734.972H143.889V734.445C143.889 731.686 142.238 730.607 140.508 730.607C138.381 730.607 136.979 732.228 136.979 734.574C136.979 736.946 138.361 738.497 140.613 738.497ZM138.465 733.858C138.525 732.775 139.31 731.835 140.518 731.835C141.672 731.835 142.427 732.69 142.432 733.858H138.465ZM145.538 738.343H147.025V733.635C147.025 732.606 147.746 731.89 148.591 731.89C149.416 731.89 149.988 732.437 149.988 733.267V738.343H151.469V733.476C151.469 732.556 152.031 731.89 153.001 731.89C153.786 731.89 154.433 732.327 154.433 733.361V738.343H155.919V733.222C155.919 731.477 154.945 730.607 153.562 730.607C152.464 730.607 151.638 731.134 151.271 731.949H151.191C150.858 731.114 150.157 730.607 149.138 730.607C148.129 730.607 147.378 731.109 147.06 731.949H146.965V730.706H145.538V738.343ZM163.634 732.571C163.325 731.383 162.396 730.607 160.745 730.607C159.02 730.607 157.797 731.517 157.797 732.869C157.797 733.953 158.453 734.674 159.885 734.992L161.178 735.275C161.914 735.439 162.257 735.767 162.257 736.245C162.257 736.836 161.625 737.299 160.651 737.299C159.761 737.299 159.189 736.916 159.01 736.165L157.573 736.384C157.822 737.736 158.945 738.497 160.661 738.497C162.505 738.497 163.783 737.517 163.783 736.135C163.783 735.057 163.097 734.39 161.695 734.067L160.482 733.789C159.642 733.59 159.279 733.307 159.284 732.79C159.279 732.203 159.915 731.785 160.76 731.785C161.685 731.785 162.112 732.297 162.286 732.809L163.634 732.571Z" fill="#333333"/>
<path d="M273.499 90.843C273.499 90.843 193.662 92.9408 187.122 60.0403C180.581 27.1397 151.608 32.3242 151.608 32.3242" stroke="#404040" stroke-width="1.5" stroke-linecap="round" stroke-dasharray="0.01 5"/>
<path d="M239.054 240.352C223.708 239.742 226.371 233.767 204.413 218.936C182.454 204.105 165.738 208.936 165.738 208.936" stroke="#404040" stroke-width="1.5" stroke-linecap="round" stroke-dasharray="0.01 5"/>
<path d="M189.59 512.644C189.59 512.644 156.677 516.871 158.469 500.39C159.607 489.922 138.999 489.343 138.999 489.343" stroke="#404040" stroke-width="1.5" stroke-linecap="round" stroke-dasharray="0.01 5"/>
<path d="M242 412.843C242 412.843 182.708 416.824 184.5 400.343C185.638 389.875 139.003 389.339 139.003 389.339" stroke="#404040" stroke-width="1.5" stroke-linecap="round" stroke-dasharray="0.01 5"/>
<path d="M169.999 734.341C169.999 734.341 201.81 740.75 210.374 726.878C218.938 713.005 275.999 716.341 275.999 716.341" stroke="#404040" stroke-width="1.5" stroke-linecap="round" stroke-dasharray="0.01 5"/>
<path d="M423.473 135.552L391 119.244V160.904L407.236 168.951L423.473 176.998V135.552Z" fill="url(#paint2_linear)"/>
<path d="M455.946 119.447L423.2 103.343L391 119.447L423.2 135.552L455.946 119.447Z" fill="#C945DB"/>
<path opacity="0.7" d="M455.677 119.548L423.177 135.548V177.048L439.782 169.597L455.886 161.755L455.677 119.548Z" fill="url(#paint3_linear)"/>
<path opacity="0.8" d="M324.185 97.2061L288.387 79.2286V125.154L306.286 134.025L324.185 142.896V97.2061Z" fill="url(#paint4_linear)"/>
<path d="M359.595 79.7532L323.497 62L288 79.7532L323.497 97.5065L359.595 79.7532Z" fill="#D3F7FB"/>
<path opacity="0.4" d="M359.306 79.9294L323.508 97.5068V143.197L341.261 134.552L359.015 125.907L359.306 79.9294Z" fill="url(#paint5_linear)"/>
<path d="M425.473 35.5517L393 19.2438V60.9039L409.236 68.9512L425.473 76.9985V35.5517Z" fill="url(#paint6_linear)"/>
<path d="M457.946 19.4472L425.2 3.34277L393 19.4472L425.2 35.5517L457.946 19.4472Z" fill="#FFB38B"/>
<path opacity="0.7" d="M457.677 19.5479L425.177 35.5479V77.0479L441.782 69.5972L457.886 61.7551L457.677 19.5479Z" fill="url(#paint7_linear)"/>
<defs>
<filter id="filter0_d" x="226" y="573.343" width="390.5" height="210" filterUnits="userSpaceOnUse" color-interpolation-filters="sRGB">
<feFlood flood-opacity="0" result="BackgroundImageFix"/>
<feColorMatrix in="SourceAlpha" type="matrix" values="0 0 0 0 0 0 0 0 0 0 0 0 0 0 0 0 0 0 127 0"/>
<feOffset dy="2"/>
<feGaussianBlur stdDeviation="5"/>
<feColorMatrix type="matrix" values="0 0 0 0 0 0 0 0 0 0 0 0 0 0 0 0 0 0 0.25 0"/>
<feBlend mode="normal" in2="BackgroundImageFix" result="effect1_dropShadow"/>
<feBlend mode="normal" in="SourceGraphic" in2="effect1_dropShadow" result="shape"/>
</filter>
<linearGradient id="paint0_linear" x1="495.203" y1="38.5409" x2="441.324" y2="68.3052" gradientUnits="userSpaceOnUse">
<stop stop-color="#FB2474"/>
<stop offset="1" stop-color="#C844DB"/>
</linearGradient>
<linearGradient id="paint1_linear" x1="530.914" y1="39.1413" x2="477.195" y2="69.0054" gradientUnits="userSpaceOnUse">
<stop stop-color="#FB2474"/>
<stop offset="1" stop-color="#C844DB"/>
</linearGradient>
<linearGradient id="paint2_linear" x1="407.52" y1="90.3664" x2="358.622" y2="117.379" gradientUnits="userSpaceOnUse">
<stop stop-color="#4967FB"/>
<stop offset="1" stop-color="#C844DB"/>
</linearGradient>
<linearGradient id="paint3_linear" x1="439.818" y1="90.7979" x2="390.834" y2="118.175" gradientUnits="userSpaceOnUse">
<stop stop-color="#4967FB"/>
<stop offset="1" stop-color="#C844DB"/>
</linearGradient>
<linearGradient id="paint4_linear" x1="305.973" y1="173.617" x2="359.878" y2="143.839" gradientUnits="userSpaceOnUse">
<stop stop-color="#23D8ED"/>
<stop offset="1" stop-color="#4967FB"/>
</linearGradient>
<linearGradient id="paint5_linear" x1="341.094" y1="173.725" x2="394.839" y2="143.847" gradientUnits="userSpaceOnUse">
<stop stop-color="#23D8ED"/>
<stop offset="1" stop-color="#4967FB"/>
</linearGradient>
<linearGradient id="paint6_linear" x1="409.418" y1="-9.10577" x2="360.822" y2="17.7405" gradientUnits="userSpaceOnUse">
<stop stop-color="#FF6917"/>
<stop offset="1" stop-color="#FB2474"/>
</linearGradient>
<linearGradient id="paint7_linear" x1="441.715" y1="-8.67668" x2="393.034" y2="18.5318" gradientUnits="userSpaceOnUse">
<stop stop-color="#FF6917"/>
<stop offset="1" stop-color="#FB2474"/>
</linearGradient>
</defs>
</svg>
