<svg width="545" height="696" viewBox="0 0 545 696" fill="none" xmlns="http://www.w3.org/2000/svg">
<g filter="url(#filter0_d)">
<path d="M534.5 579.5L345.462 488L165 578.5L246 622L266 612.5V633L348.462 678L434.5 632.77L424.5 627.27L431 614.27L450 623.77L534.5 579.5Z" fill="#404040"/>
</g>
<path opacity="0.8" d="M296.798 111.208L261 93.2305V139.156L278.899 148.027L296.798 156.898V111.208Z" fill="url(#paint0_linear)"/>
<path d="M332.207 93.7552L296.109 76.002L260.612 93.7552L296.109 111.508L332.207 93.7552Z" fill="#D3F7FB"/>
<path opacity="0.4" d="M331.918 93.9316L296.12 111.509V157.199L313.873 148.554L331.627 139.909L331.918 93.9316Z" fill="url(#paint1_linear)"/>
<path d="M535 529.23L450 571.73V621.73L535 576.286V529.23Z" fill="#F3F3F3"/>
<path d="M433 480.23L348 522.73V572.73L433 527.286V480.23Z" fill="#F3F3F3"/>
<path d="M246 570.23L164 530.73V575.73L246 619.73V570.23Z" fill="#D7D7D7"/>
<path d="M450 572.726L364.5 530.73V579.237L450 621.23V572.726Z" fill="#D7D7D7"/>
<path d="M348.5 522.226L263 480.23V528.737L348.5 570.73V522.226Z" fill="#D7D7D7"/>
<path d="M534.5 530.23L449.853 488.23L365 531.23L449.853 572.73L534.5 530.23Z" fill="#E8E8E8"/>
<path d="M432.5 490.23L347.853 448.23L263 491.23L347.853 532.73L432.5 490.23Z" fill="#E8E8E8"/>
<path d="M450.53 499.7C450.237 499.407 449.763 499.407 449.47 499.7L444.697 504.473C444.404 504.766 444.404 505.241 444.697 505.534C444.99 505.827 445.464 505.827 445.757 505.534L450 501.291L454.243 505.534C454.536 505.827 455.01 505.827 455.303 505.534C455.596 505.241 455.596 504.766 455.303 504.473L450.53 499.7ZM450.75 533.23L450.75 500.23L449.25 500.23L449.25 533.23L450.75 533.23Z" fill="#404040"/>
<path d="M449.47 533.761C449.763 534.054 450.237 534.054 450.53 533.761L455.303 528.988C455.596 528.695 455.596 528.22 455.303 527.927C455.01 527.634 454.536 527.634 454.243 527.927L450 532.17L445.757 527.927C445.464 527.634 444.99 527.634 444.697 527.927C444.404 528.22 444.404 528.695 444.697 528.988L449.47 533.761ZM449.25 500.23V533.23L450.75 533.23V500.23L449.25 500.23Z" fill="#404040"/>
<path d="M535 421.99L350.966 338.23L170 421.99L350.966 512.23L535 421.99Z" fill="#8C8C8C"/>
<path d="M535 421.23L351 511.461V542.73L535 451.702V421.23Z" fill="#606060"/>
<path d="M141.979 23.2305L142.913 20.5359H146.891L147.82 23.2305H149.451L145.787 13.0487H144.012L140.348 23.2305H141.979ZM143.361 19.2433L144.862 14.8981H144.942L146.443 19.2433H143.361ZM150.788 26.0941H152.275V22.0423H152.364C152.632 22.5295 153.179 23.3796 154.571 23.3796C156.421 23.3796 157.763 21.8981 157.763 19.4272C157.763 16.9513 156.401 15.4947 154.556 15.4947C153.14 15.4947 152.628 16.3597 152.364 16.832H152.24V15.5941H150.788V26.0941ZM152.245 19.4123C152.245 17.8164 152.941 16.7575 154.238 16.7575C155.586 16.7575 156.262 17.896 156.262 19.4123C156.262 20.9435 155.566 22.1119 154.238 22.1119C152.961 22.1119 152.245 21.0181 152.245 19.4123ZM159.415 26.0941H160.901V22.0423H160.991C161.259 22.5295 161.806 23.3796 163.198 23.3796C165.047 23.3796 166.39 21.8981 166.39 19.4272C166.39 16.9513 165.028 15.4947 163.183 15.4947C161.766 15.4947 161.254 16.3597 160.991 16.832H160.866V15.5941H159.415V26.0941ZM160.871 19.4123C160.871 17.8164 161.567 16.7575 162.865 16.7575C164.212 16.7575 164.888 17.896 164.888 19.4123C164.888 20.9435 164.192 22.1119 162.865 22.1119C161.587 22.1119 160.871 21.0181 160.871 19.4123ZM168.041 13.0487V21.4506C168.041 22.6587 168.663 23.305 169.95 23.2852C170.348 23.2802 170.666 23.2156 170.875 23.1509L170.607 21.9627C170.502 21.9925 170.398 22.0273 170.139 22.0323C169.662 22.0472 169.528 21.7987 169.528 21.1424V13.0487H168.041ZM171.842 23.2305H173.328V15.5941H171.842V23.2305ZM172.592 14.4158C173.105 14.4158 173.532 14.0181 173.532 13.5309C173.532 13.0437 173.105 12.641 172.592 12.641C172.075 12.641 171.653 13.0437 171.653 13.5309C171.653 14.0181 172.075 14.4158 172.592 14.4158ZM178.531 23.3846C180.335 23.3846 181.504 22.3008 181.668 20.8143H180.221C180.032 21.6396 179.391 22.1268 178.541 22.1268C177.283 22.1268 176.472 21.0778 176.472 19.4123C176.472 17.7766 177.298 16.7475 178.541 16.7475C179.485 16.7475 180.062 17.3441 180.221 18.06H181.668C181.509 16.5188 180.251 15.4947 178.516 15.4947C176.363 15.4947 174.971 17.1154 174.971 19.4471C174.971 21.7489 176.313 23.3846 178.531 23.3846ZM185.466 23.3995C186.729 23.3995 187.439 22.7582 187.723 22.1864H187.782V23.2305H189.234V18.1594C189.234 15.9371 187.484 15.4947 186.271 15.4947C184.889 15.4947 183.616 16.0515 183.119 17.4435L184.516 17.7617C184.735 17.2198 185.292 16.6978 186.291 16.6978C187.251 16.6978 187.743 17.1999 187.743 18.065V18.0998C187.743 18.6417 187.186 18.6317 185.814 18.7908C184.367 18.9599 182.885 19.3377 182.885 21.0728C182.885 22.5742 184.014 23.3995 185.466 23.3995ZM185.789 22.2063C184.949 22.2063 184.342 21.8285 184.342 21.0927C184.342 20.2972 185.048 20.0138 185.908 19.8995C186.39 19.8349 187.534 19.7056 187.748 19.4918V20.4762C187.748 21.381 187.027 22.2063 185.789 22.2063ZM194.765 15.5941H193.199V13.7646H191.712V15.5941H190.594V16.7873H191.712V21.2965C191.707 22.6836 192.766 23.3548 193.939 23.3299C194.412 23.3249 194.73 23.2354 194.904 23.1708L194.635 21.9428C194.536 21.9627 194.352 22.0075 194.113 22.0075C193.631 22.0075 193.199 21.8484 193.199 20.9883V16.7873H194.765V15.5941ZM196.395 23.2305H197.882V15.5941H196.395V23.2305ZM197.146 14.4158C197.658 14.4158 198.085 14.0181 198.085 13.5309C198.085 13.0437 197.658 12.641 197.146 12.641C196.629 12.641 196.206 13.0437 196.206 13.5309C196.206 14.0181 196.629 14.4158 197.146 14.4158ZM203.084 23.3846C205.237 23.3846 206.644 21.8086 206.644 19.4471C206.644 17.0707 205.237 15.4947 203.084 15.4947C200.931 15.4947 199.524 17.0707 199.524 19.4471C199.524 21.8086 200.931 23.3846 203.084 23.3846ZM203.089 22.1367C201.682 22.1367 201.026 20.9087 201.026 19.4421C201.026 17.9805 201.682 16.7376 203.089 16.7376C204.486 16.7376 205.142 17.9805 205.142 19.4421C205.142 20.9087 204.486 22.1367 203.089 22.1367ZM209.775 18.6964C209.775 17.4783 210.521 16.7823 211.555 16.7823C212.565 16.7823 213.176 17.4435 213.176 18.5522V23.2305H214.663V18.3732C214.663 16.484 213.623 15.4947 212.062 15.4947C210.914 15.4947 210.163 16.0266 209.81 16.837H209.716V15.5941H208.289V23.2305H209.775V18.6964ZM222.364 17.4585C222.056 16.2702 221.127 15.4947 219.476 15.4947C217.751 15.4947 216.528 16.4045 216.528 17.7567C216.528 18.8406 217.184 19.5614 218.616 19.8796L219.909 20.163C220.644 20.3271 220.987 20.6552 220.987 21.1325C220.987 21.7241 220.356 22.1864 219.382 22.1864C218.492 22.1864 217.92 21.8036 217.741 21.0529L216.304 21.2717C216.553 22.6239 217.676 23.3846 219.391 23.3846C221.236 23.3846 222.514 22.4052 222.514 21.0231C222.514 19.9442 221.828 19.2781 220.426 18.9549L219.212 18.6765C218.372 18.4776 218.009 18.1942 218.014 17.6772C218.009 17.0906 218.646 16.6729 219.491 16.6729C220.416 16.6729 220.843 17.185 221.017 17.6971L222.364 17.4585Z" fill="#333333"/>
<path d="M0.616477 411.371H2.42116V418.908H0.616477V420.23H5.7571V418.908H3.95739V411.371H5.7571V410.049H0.616477V411.371ZM8.84289 415.696C8.84289 414.478 9.58863 413.782 10.6227 413.782C11.632 413.782 12.2435 414.444 12.2435 415.552V420.23H13.73V415.373C13.73 413.484 12.6909 412.495 11.1298 412.495C9.98138 412.495 9.23067 413.027 8.87769 413.837H8.78323V412.594H7.35638V420.23H8.84289V415.696ZM19.3438 412.594H17.6982V411.908C17.6982 411.232 17.9766 410.864 18.7025 410.864C19.0107 410.864 19.2295 410.934 19.3687 410.978L19.7167 409.775C19.5079 409.696 19.0753 409.571 18.4738 409.571C17.2657 409.571 16.2067 410.277 16.2067 411.709V412.594H15.0285V413.787H16.2067V420.23H17.6982V413.787H19.3438V412.594ZM23.7794 420.385C25.9321 420.385 27.339 418.809 27.339 416.447C27.339 414.071 25.9321 412.495 23.7794 412.495C21.6267 412.495 20.2197 414.071 20.2197 416.447C20.2197 418.809 21.6267 420.385 23.7794 420.385ZM23.7843 419.137C22.3774 419.137 21.7211 417.909 21.7211 416.442C21.7211 414.98 22.3774 413.738 23.7843 413.738C25.1814 413.738 25.8376 414.98 25.8376 416.442C25.8376 417.909 25.1814 419.137 23.7843 419.137ZM28.9843 420.23H30.4708V415.567C30.4708 414.568 31.2414 413.847 32.2954 413.847C32.6036 413.847 32.9516 413.902 33.071 413.936V412.515C32.9218 412.495 32.6285 412.48 32.4396 412.48C31.5447 412.48 30.7791 412.987 30.5006 413.807H30.4211V412.594H28.9843V420.23ZM34.3434 420.23H35.8299V415.522C35.8299 414.493 36.5507 413.777 37.3959 413.777C38.2212 413.777 38.7929 414.324 38.7929 415.154V420.23H40.2745V415.363C40.2745 414.444 40.8363 413.777 41.8057 413.777C42.5912 413.777 43.2375 414.215 43.2375 415.249V420.23H44.724V415.11C44.724 413.365 43.7496 412.495 42.3675 412.495C41.2688 412.495 40.4435 413.022 40.0756 413.837H39.9961C39.663 413.002 38.962 412.495 37.9428 412.495C36.9336 412.495 36.1828 412.997 35.8647 413.837H35.7702V412.594H34.3434V420.23ZM48.9247 420.4C50.1875 420.4 50.8984 419.758 51.1818 419.186H51.2415V420.23H52.6932V415.159C52.6932 412.937 50.9432 412.495 49.7301 412.495C48.348 412.495 47.0753 413.051 46.5781 414.444L47.9751 414.762C48.1939 414.22 48.7507 413.698 49.75 413.698C50.7095 413.698 51.2017 414.2 51.2017 415.065V415.1C51.2017 415.642 50.6449 415.632 49.2727 415.791C47.826 415.96 46.3444 416.338 46.3444 418.073C46.3444 419.574 47.473 420.4 48.9247 420.4ZM49.2479 419.206C48.4077 419.206 47.8011 418.828 47.8011 418.093C47.8011 417.297 48.5071 417.014 49.3672 416.9C49.8494 416.835 50.9929 416.706 51.2067 416.492V417.476C51.2067 418.381 50.4858 419.206 49.2479 419.206ZM58.2237 412.594H56.6577V410.765H55.1712V412.594H54.0526V413.787H55.1712V418.297C55.1662 419.684 56.2252 420.355 57.3984 420.33C57.8708 420.325 58.1889 420.235 58.3629 420.171L58.0945 418.943C57.995 418.963 57.8111 419.007 57.5725 419.007C57.0902 419.007 56.6577 418.848 56.6577 417.988V413.787H58.2237V412.594ZM59.8541 420.23H61.3406V412.594H59.8541V420.23ZM60.6048 411.416C61.1169 411.416 61.5444 411.018 61.5444 410.531C61.5444 410.044 61.1169 409.641 60.6048 409.641C60.0878 409.641 59.6652 410.044 59.6652 410.531C59.6652 411.018 60.0878 411.416 60.6048 411.416ZM66.543 420.385C68.6957 420.385 70.1027 418.809 70.1027 416.447C70.1027 414.071 68.6957 412.495 66.543 412.495C64.3903 412.495 62.9834 414.071 62.9834 416.447C62.9834 418.809 64.3903 420.385 66.543 420.385ZM66.548 419.137C65.141 419.137 64.4848 417.909 64.4848 416.442C64.4848 414.98 65.141 413.738 66.548 413.738C67.945 413.738 68.6013 414.98 68.6013 416.442C68.6013 417.909 67.945 419.137 66.548 419.137ZM73.2345 415.696C73.2345 414.478 73.9802 413.782 75.0143 413.782C76.0235 413.782 76.635 414.444 76.635 415.552V420.23H78.1215V415.373C78.1215 413.484 77.0825 412.495 75.5214 412.495C74.373 412.495 73.6223 413.027 73.2693 413.837H73.1748V412.594H71.748V420.23H73.2345V415.696ZM83.9115 420.23H85.4478V415.791H90.5238V420.23H92.065V410.049H90.5238V414.473H85.4478V410.049H83.9115V420.23ZM99.0062 417.064C99.0112 418.361 98.0467 418.978 97.2115 418.978C96.2917 418.978 95.6554 418.311 95.6554 417.272V412.594H94.1689V417.451C94.1689 419.346 95.2079 420.33 96.6745 420.33C97.823 420.33 98.6035 419.723 98.9565 418.908H99.036V420.23H100.498V412.594H99.0062V417.064ZM102.6 420.23H104.052V419.042H104.176C104.445 419.529 104.992 420.38 106.384 420.38C108.233 420.38 109.575 418.898 109.575 416.427C109.575 413.951 108.213 412.495 106.369 412.495C104.952 412.495 104.44 413.36 104.176 413.832H104.087V410.049H102.6V420.23ZM104.057 416.412C104.057 414.816 104.753 413.757 106.051 413.757C107.398 413.757 108.074 414.896 108.074 416.412C108.074 417.944 107.378 419.112 106.051 419.112C104.773 419.112 104.057 418.018 104.057 416.412Z" fill="#333333"/>
<path d="M29.4148 212.23C32.517 212.23 34.3118 210.306 34.3118 207.125C34.3118 203.958 32.517 202.049 29.5192 202.049H26.1186V212.23H29.4148ZM27.6548 210.888V203.391H29.4247C31.652 203.391 32.8004 204.723 32.8004 207.125C32.8004 209.536 31.652 210.888 29.3303 210.888H27.6548ZM36.0888 212.23H37.5753V204.594H36.0888V212.23ZM36.8395 203.416C37.3516 203.416 37.7791 203.018 37.7791 202.531C37.7791 202.044 37.3516 201.641 36.8395 201.641C36.3225 201.641 35.8999 202.044 35.8999 202.531C35.8999 203.018 36.3225 203.416 36.8395 203.416ZM42.7628 215.253C44.7067 215.253 46.2082 214.363 46.2082 212.4V204.594H44.7515V205.832H44.6421C44.3786 205.36 43.8516 204.495 42.4297 204.495C40.5853 204.495 39.228 205.951 39.228 208.382C39.228 210.819 40.6151 212.116 42.4198 212.116C43.8218 212.116 44.3637 211.326 44.6322 210.838H44.7266V212.34C44.7266 213.538 43.9063 214.055 42.7778 214.055C41.5398 214.055 41.0576 213.434 40.7941 212.996L39.5164 213.523C39.9191 214.458 40.9383 215.253 42.7628 215.253ZM42.7479 210.883C41.4205 210.883 40.7295 209.864 40.7295 208.363C40.7295 206.896 41.4056 205.757 42.7479 205.757C44.0455 205.757 44.7415 206.816 44.7415 208.363C44.7415 209.939 44.0306 210.883 42.7479 210.883ZM48.1878 212.23H49.6743V204.594H48.1878V212.23ZM48.9385 203.416C49.4505 203.416 49.8781 203.018 49.8781 202.531C49.8781 202.044 49.4505 201.641 48.9385 201.641C48.4214 201.641 47.9988 202.044 47.9988 202.531C47.9988 203.018 48.4214 203.416 48.9385 203.416ZM55.2247 204.594H53.6587V202.765H52.1722V204.594H51.0536V205.787H52.1722V210.297C52.1672 211.684 53.2261 212.355 54.3994 212.33C54.8717 212.325 55.1899 212.235 55.3639 212.171L55.0955 210.943C54.996 210.963 54.8121 211.007 54.5734 211.007C54.0912 211.007 53.6587 210.848 53.6587 209.988V205.787H55.2247V204.594ZM59.0774 212.4C60.3402 212.4 61.0511 211.758 61.3345 211.186H61.3941V212.23H62.8458V207.159C62.8458 204.937 61.0958 204.495 59.8828 204.495C58.5007 204.495 57.2279 205.051 56.7308 206.444L58.1278 206.762C58.3465 206.22 58.9034 205.698 59.9027 205.698C60.8622 205.698 61.3544 206.2 61.3544 207.065V207.1C61.3544 207.642 60.7975 207.632 59.4254 207.791C57.9787 207.96 56.4971 208.338 56.4971 210.073C56.4971 211.574 57.6257 212.4 59.0774 212.4ZM59.4005 211.206C58.5603 211.206 57.9538 210.828 57.9538 210.093C57.9538 209.297 58.6598 209.014 59.5198 208.9C60.0021 208.835 61.1456 208.706 61.3593 208.492V209.476C61.3593 210.381 60.6385 211.206 59.4005 211.206ZM64.8118 202.049V210.451C64.8118 211.659 65.4332 212.305 66.7209 212.285C67.1186 212.28 67.4368 212.216 67.6456 212.151L67.3771 210.963C67.2727 210.993 67.1683 211.027 66.9098 211.032C66.4325 211.047 66.2983 210.799 66.2983 210.142V202.049H64.8118ZM71.9205 203.371H75.0924V212.23H76.6236V203.371H79.8005V202.049H71.9205V203.371ZM82.189 212.23H83.7004L85.2515 206.717H85.3658L86.917 212.23H88.4333L90.6755 204.594H89.1393L87.6528 210.177H87.5782L86.0867 204.594H84.5505L83.0491 210.202H82.9745L81.478 204.594H79.9418L82.189 212.23ZM92.0722 212.23H93.5587V204.594H92.0722V212.23ZM92.8229 203.416C93.335 203.416 93.7625 203.018 93.7625 202.531C93.7625 202.044 93.335 201.641 92.8229 201.641C92.3058 201.641 91.8833 202.044 91.8833 202.531C91.8833 203.018 92.3058 203.416 92.8229 203.416ZM97.031 207.696C97.031 206.478 97.7768 205.782 98.8108 205.782C99.8201 205.782 100.432 206.444 100.432 207.552V212.23H101.918V207.373C101.918 205.484 100.879 204.495 99.3179 204.495C98.1695 204.495 97.4188 205.027 97.0658 205.837H96.9714V204.594H95.5445V212.23H97.031V207.696Z" fill="#333333"/>
<path d="M38.6719 647.723H40.1534C40.1087 646.093 38.6669 644.909 36.5987 644.909C34.5554 644.909 32.9893 646.078 32.9893 647.833C32.9893 649.25 34.0036 650.08 35.6392 650.522L36.8423 650.85C37.9311 651.139 38.7713 651.497 38.7713 652.402C38.7713 653.396 37.8217 654.052 36.5142 654.052C35.331 654.052 34.3466 653.525 34.2571 652.417H32.7159C32.8153 654.261 34.2422 655.4 36.5241 655.4C38.9155 655.4 40.2926 654.142 40.2926 652.417C40.2926 650.582 38.657 649.871 37.3643 649.553L36.37 649.294C35.5746 649.091 34.5156 648.718 34.5206 647.743C34.5206 646.878 35.3111 646.237 36.5639 646.237C37.7322 646.237 38.5625 646.784 38.6719 647.723ZM45.2117 655.385C47.3644 655.385 48.7713 653.809 48.7713 651.447C48.7713 649.071 47.3644 647.495 45.2117 647.495C43.059 647.495 41.652 649.071 41.652 651.447C41.652 653.809 43.059 655.385 45.2117 655.385ZM45.2166 654.137C43.8097 654.137 43.1534 652.909 43.1534 651.442C43.1534 649.98 43.8097 648.738 45.2166 648.738C46.6137 648.738 47.2699 649.98 47.2699 651.442C47.2699 652.909 46.6137 654.137 45.2166 654.137ZM55.254 652.064C55.2589 653.361 54.2944 653.978 53.4592 653.978C52.5395 653.978 51.9031 653.311 51.9031 652.272V647.594H50.4166V652.451C50.4166 654.346 51.4557 655.33 52.9223 655.33C54.0707 655.33 54.8513 654.723 55.2042 653.908H55.2838V655.23H56.7454V647.594H55.254V652.064ZM58.7288 655.23H60.2153V650.567C60.2153 649.568 60.9859 648.847 62.0399 648.847C62.3481 648.847 62.6961 648.902 62.8154 648.936V647.515C62.6663 647.495 62.373 647.48 62.184 647.48C61.2891 647.48 60.5235 647.987 60.2451 648.807H60.1656V647.594H58.7288V655.23ZM67.031 655.385C68.8357 655.385 70.004 654.301 70.1681 652.814H68.7213C68.5324 653.64 67.8911 654.127 67.0409 654.127C65.7831 654.127 64.9728 653.078 64.9728 651.412C64.9728 649.777 65.798 648.748 67.0409 648.748C67.9855 648.748 68.5623 649.344 68.7213 650.06H70.1681C70.009 648.519 68.7512 647.495 67.0161 647.495C64.8634 647.495 63.4713 649.115 63.4713 651.447C63.4713 653.749 64.8137 655.385 67.031 655.385ZM75.0349 655.385C76.7004 655.385 77.8787 654.564 78.2168 653.321L76.8098 653.068C76.5413 653.789 75.895 654.157 75.0499 654.157C73.7771 654.157 72.922 653.331 72.8822 651.86H78.3112V651.333C78.3112 648.574 76.6606 647.495 74.9305 647.495C72.8027 647.495 71.4007 649.115 71.4007 651.462C71.4007 653.833 72.7828 655.385 75.0349 655.385ZM72.8872 650.746C72.9469 649.662 73.7324 648.723 74.9405 648.723C76.0939 648.723 76.8496 649.578 76.8545 650.746H72.8872ZM89.3102 647.723H90.7917C90.747 646.093 89.3052 644.909 87.2371 644.909C85.1937 644.909 83.6277 646.078 83.6277 647.833C83.6277 649.25 84.6419 650.08 86.2775 650.522L87.4807 650.85C88.5694 651.139 89.4096 651.497 89.4096 652.402C89.4096 653.396 88.4601 654.052 87.1525 654.052C85.9693 654.052 84.9849 653.525 84.8954 652.417H83.3542C83.4537 654.261 84.8805 655.4 87.1625 655.4C89.5538 655.4 90.9309 654.142 90.9309 652.417C90.9309 650.582 89.2953 649.871 88.0027 649.553L87.0084 649.294C86.2129 649.091 85.154 648.718 85.1589 647.743C85.1589 646.878 85.9494 646.237 87.2022 646.237C88.3706 646.237 89.2008 646.784 89.3102 647.723ZM93.573 658.094C94.801 658.094 95.5766 657.453 96.019 656.25L99.176 647.609L97.5702 647.594L95.6362 653.52H95.5567L93.6227 647.594H92.0318L94.8259 655.33L94.6419 655.837C94.2641 656.851 93.7321 656.936 92.9168 656.712L92.5588 657.93C92.7378 658.01 93.1256 658.094 93.573 658.094ZM106.285 649.458C105.977 648.27 105.047 647.495 103.397 647.495C101.671 647.495 100.448 648.404 100.448 649.757C100.448 650.841 101.105 651.561 102.536 651.88L103.829 652.163C104.565 652.327 104.908 652.655 104.908 653.132C104.908 653.724 104.277 654.186 103.302 654.186C102.412 654.186 101.84 653.804 101.661 653.053L100.225 653.272C100.473 654.624 101.597 655.385 103.312 655.385C105.156 655.385 106.434 654.405 106.434 653.023C106.434 651.944 105.748 651.278 104.346 650.955L103.133 650.676C102.293 650.478 101.93 650.194 101.935 649.677C101.93 649.091 102.566 648.673 103.411 648.673C104.336 648.673 104.764 649.185 104.938 649.697L106.285 649.458ZM111.619 647.594H110.053V645.765H108.567V647.594H107.448V648.787H108.567V653.297C108.562 654.684 109.621 655.355 110.794 655.33C111.266 655.325 111.584 655.235 111.758 655.171L111.49 653.943C111.391 653.963 111.207 654.007 110.968 654.007C110.486 654.007 110.053 653.848 110.053 652.988V648.787H111.619V647.594ZM116.459 655.385C118.124 655.385 119.302 654.564 119.641 653.321L118.234 653.068C117.965 653.789 117.319 654.157 116.474 654.157C115.201 654.157 114.346 653.331 114.306 651.86H119.735V651.333C119.735 648.574 118.084 647.495 116.354 647.495C114.227 647.495 112.825 649.115 112.825 651.462C112.825 653.833 114.207 655.385 116.459 655.385ZM114.311 650.746C114.371 649.662 115.156 648.723 116.364 648.723C117.518 648.723 118.273 649.578 118.278 650.746H114.311ZM121.37 655.23H122.857V650.522C122.857 649.493 123.578 648.777 124.423 648.777C125.248 648.777 125.82 649.324 125.82 650.154V655.23H127.301V650.363C127.301 649.444 127.863 648.777 128.833 648.777C129.618 648.777 130.265 649.215 130.265 650.249V655.23H131.751V650.11C131.751 648.365 130.777 647.495 129.395 647.495C128.296 647.495 127.47 648.022 127.103 648.837H127.023C126.69 648.002 125.989 647.495 124.97 647.495C123.961 647.495 123.21 647.997 122.892 648.837H122.797V647.594H121.37V655.23ZM139.452 649.458C139.143 648.27 138.214 647.495 136.563 647.495C134.838 647.495 133.615 648.404 133.615 649.757C133.615 650.841 134.271 651.561 135.703 651.88L136.996 652.163C137.732 652.327 138.075 652.655 138.075 653.132C138.075 653.724 137.443 654.186 136.469 654.186C135.579 654.186 135.007 653.804 134.828 653.053L133.391 653.272C133.64 654.624 134.763 655.385 136.479 655.385C138.323 655.385 139.601 654.405 139.601 653.023C139.601 651.944 138.915 651.278 137.513 650.955L136.3 650.676C135.46 650.478 135.097 650.194 135.102 649.677C135.097 649.091 135.733 648.673 136.578 648.673C137.503 648.673 137.93 649.185 138.104 649.697L139.452 649.458Z" fill="#333333"/>
<path d="M353.795 35.7337L321.322 19.4258V61.0859L337.559 69.1332L353.795 77.1805V35.7337Z" fill="url(#paint2_linear)"/>
<path d="M386.268 19.6299L353.522 3.52539L321.322 19.6299L353.522 35.7343L386.268 19.6299Z" fill="#FFB38B"/>
<path opacity="0.7" d="M386 19.7305L353.5 35.7305V77.2305L370.104 69.7799L386.209 61.9377L386 19.7305Z" fill="url(#paint3_linear)"/>
<path d="M406.741 111.246L370.738 93.166V139.354L388.74 148.276L406.741 157.198V111.246Z" fill="url(#paint4_linear)"/>
<path d="M442.744 93.3921L406.438 75.5371L370.738 93.3921L406.438 111.247L442.744 93.3921Z" fill="#FD91B9"/>
<path opacity="0.7" d="M442.452 93.5684L406.449 111.246V157.198L424.304 148.504L442.159 139.809L442.452 93.5684Z" fill="url(#paint5_linear)"/>
<path d="M349.247 411.41L189 330.934V385.861L349.247 465.767V411.41Z" fill="#A4B2FC"/>
<path d="M510.906 331.64L348.6 251.869L189 331.64L348.6 411.41L510.906 331.64Z" fill="#C5CEFF"/>
<path d="M511.612 331.648L349.247 411.41V465.767L511.612 386.702V331.648Z" fill="#DBE1FE"/>
<path d="M349.247 357.758L189 277.281V332.208L349.247 412.115V357.758Z" fill="#6E85FC"/>
<path d="M510.906 277.987L348.6 198.217L189 277.987L348.6 357.758L510.906 277.987Z" fill="#8597F3"/>
<path d="M511.612 277.996L348.541 357.758L349.247 412.115L511.612 333.05V277.996Z" fill="#A4B2FC"/>
<path d="M347.835 303.402L189 225.043V280.258L348.541 359.17L347.835 303.402Z" fill="#4A67FB"/>
<path d="M511.612 226.455L347.835 153.23L189 225.749L347.835 303.401L511.612 226.455Z" fill="#A4B2FC"/>
<path d="M511.612 226.455L347.835 303.402L348.541 359.17L511.612 281.518V226.455Z" fill="#6E85FC"/>
<path opacity="0.95" d="M511.777 227.23L348 304.177L348.706 359.946L511.777 282.293V227.23Z" fill="#6E85FC"/>
<path d="M395.037 370.966L395.115 367.946L398.547 366.264L400.177 368.447L401.255 367.918L395.386 360.266L394.325 360.786L393.959 371.495L395.037 370.966ZM395.144 366.801L395.265 361.991L395.331 361.959L397.93 365.435L395.144 366.801ZM405.033 366.231C406.438 365.542 407.077 364.16 406.893 362.851L405.915 363.331C405.954 364.176 405.51 364.907 404.752 365.279C403.587 365.85 402.518 365.181 402.048 363.581C401.569 362.027 402.034 360.627 403.182 360.064C404.04 359.643 404.732 359.962 405.07 360.516L406.048 360.037C405.492 358.829 404.223 358.464 402.884 359.12C401.156 359.967 400.446 362.001 401.086 364.094C401.701 366.157 403.238 367.111 405.033 366.231ZM411.507 363.057C412.912 362.369 413.551 360.986 413.367 359.678L412.389 360.157C412.427 361.002 411.984 361.734 411.225 362.106C410.061 362.677 408.992 362.007 408.522 360.408C408.043 358.853 408.508 357.453 409.656 356.89C410.514 356.47 411.205 356.789 411.544 357.343L412.522 356.863C411.966 355.655 410.697 355.29 409.358 355.947C407.629 356.794 406.92 358.828 407.56 360.92C408.175 362.984 409.712 363.937 411.507 363.057ZM418.064 359.843C419.361 359.207 420.089 358.049 420.077 356.861L419.052 357.035C419.016 357.875 418.565 358.507 417.782 358.892C416.555 359.493 415.632 359.267 415.104 357.592L419.734 355.323L419.597 354.876C418.837 352.308 417.162 352.121 415.832 352.773C414.111 353.616 413.402 355.651 414.042 357.764C414.673 359.881 416.227 360.744 418.064 359.843ZM414.826 356.68C414.578 355.681 415.044 354.249 416.113 353.725C417.179 353.203 418.116 353.731 418.458 354.9L414.826 356.68ZM425.033 350.134C424.42 349.304 423.547 348.991 422.287 349.609C420.944 350.267 420.19 351.583 420.536 352.75C420.818 353.702 421.533 354.071 422.799 353.8L423.932 353.553C424.635 353.393 425.03 353.57 425.167 354.058C425.352 354.646 424.908 355.419 423.997 355.866C423.201 356.256 422.582 356.127 422.199 355.472L421.335 356.183C421.913 357.237 422.993 357.427 424.303 356.785C425.779 356.062 426.525 354.688 426.171 353.504C425.881 352.536 425.148 352.216 423.916 352.471L422.89 352.686C422.088 352.853 421.659 352.734 421.506 352.212C421.321 351.625 421.773 350.91 422.552 350.528C423.414 350.105 423.907 350.439 424.226 350.838L425.033 350.134ZM431.085 347.168C430.472 346.337 429.599 346.025 428.339 346.642C426.996 347.301 426.242 348.616 426.588 349.783C426.87 350.735 427.585 351.104 428.851 350.833L429.984 350.586C430.687 350.427 431.082 350.603 431.219 351.092C431.404 351.679 430.96 352.452 430.049 352.899C429.253 353.289 428.634 353.161 428.251 352.505L427.387 353.217C427.965 354.27 429.045 354.46 430.355 353.818C431.831 353.095 432.577 351.722 432.223 350.538C431.933 349.569 431.2 349.25 429.968 349.504L428.942 349.719C428.14 349.886 427.711 349.767 427.558 349.246C427.373 348.658 427.825 347.943 428.604 347.561C429.466 347.138 429.959 347.473 430.278 347.872L431.085 347.168ZM442.521 340.451C441.634 338.727 439.887 338.308 438.162 339.153C436.007 340.21 435.004 342.738 435.857 345.61C436.742 348.549 438.906 349.606 441.111 348.525C442.786 347.704 443.807 345.929 443.567 343.887L442.539 344.391C442.669 345.787 441.833 346.978 440.673 347.547C439.164 348.287 437.6 347.614 436.9 345.263C436.168 342.846 437.009 340.912 438.584 340.14C439.678 339.603 440.883 339.794 441.509 340.947L442.521 340.451ZM448.603 344.873C450.295 344.044 451.012 342.109 450.376 340.015C449.712 337.831 448.096 336.958 446.338 337.819C444.647 338.648 443.93 340.583 444.574 342.694C445.234 344.859 446.846 345.735 448.603 344.873ZM448.189 343.986C446.912 344.612 445.995 343.705 445.584 342.364C445.153 340.95 445.409 339.364 446.752 338.706C448.029 338.08 448.955 339.004 449.366 340.345C449.798 341.763 449.532 343.328 448.189 343.986ZM452.551 338.023C452.206 336.814 452.676 335.802 453.621 335.339C454.533 334.892 455.273 335.27 455.595 336.346L456.883 340.65L457.861 340.171L456.558 335.792C456.026 334.037 454.898 333.623 453.621 334.249C452.66 334.72 452.191 335.485 452.11 336.326L452.027 336.367L451.706 335.291L450.76 335.754L452.82 342.642L453.799 342.162L452.551 338.023ZM460.311 331.073L458.947 331.741L458.452 330.092L457.474 330.571L457.969 332.221L457.011 332.69L457.285 333.584L458.239 333.117L459.534 337.417C459.896 338.618 460.952 338.758 461.781 338.352C462.146 338.173 462.362 337.985 462.487 337.862L461.99 337.015C461.915 337.073 461.799 337.171 461.583 337.277C461.152 337.488 460.689 337.55 460.416 336.656L459.213 332.639L460.585 331.967L460.311 331.073ZM463.796 337.262L464.774 336.782L463.462 332.428C463.189 331.492 463.659 330.48 464.588 330.025C464.853 329.895 465.143 329.815 465.217 329.799L464.895 328.723C464.771 328.763 464.522 328.885 464.373 328.958C463.61 329.332 463.076 330.129 463.053 330.921L462.987 330.954L462.681 329.911L461.736 330.374L463.796 337.262ZM470.623 334.08C472.314 333.251 473.031 331.315 472.395 329.221C471.731 327.038 470.115 326.164 468.358 327.026C466.666 327.855 465.949 329.79 466.593 331.901C467.253 334.065 468.865 334.941 470.623 334.08ZM470.208 333.193C468.932 333.818 468.014 332.911 467.603 331.57C467.173 330.156 467.429 328.571 468.772 327.912C470.049 327.287 470.974 328.211 471.385 329.552C471.818 330.969 471.551 332.534 470.208 333.193ZM472.088 322.668L474.389 330.341C474.687 331.326 475.328 331.67 476.257 331.215C476.539 331.077 476.796 330.889 476.954 330.75L476.473 329.937C476.39 330.019 476.315 330.076 476.075 330.214C475.652 330.442 475.488 330.234 475.287 329.572L473.066 322.188L472.088 322.668Z" fill="black"/>
<path d="M383.666 419.424L384.661 418.939C384.155 417.522 382.69 417.044 381.047 417.846C379.42 418.639 378.454 420.281 378.901 421.83C379.277 423.064 380.323 423.396 381.77 423.163L382.912 422.976C383.896 422.804 384.797 422.756 385.06 423.675C385.364 424.677 384.668 425.777 383.489 426.352C382.477 426.845 381.428 426.802 381.042 425.799L379.98 426.317C380.527 427.776 381.967 428.244 383.793 427.354C385.752 426.399 386.504 424.697 386.064 423.206C385.553 421.483 383.874 421.665 382.931 421.837L381.988 422.009C381.31 422.135 380.185 422.272 379.889 421.286C379.626 420.408 380.181 419.398 381.309 418.848C382.338 418.346 383.22 418.512 383.666 419.424ZM390.957 423.84C392.364 423.154 393.005 421.773 392.824 420.464L391.845 420.942C391.882 421.787 391.437 422.517 390.678 422.888C389.512 423.456 388.445 422.785 387.978 421.184C387.502 419.629 387.97 418.23 389.119 417.669C389.978 417.25 390.669 417.571 391.006 418.126L391.985 417.648C391.432 416.439 390.163 416.071 388.823 416.725C387.093 417.568 386.379 419.601 387.014 421.695C387.626 423.759 389.16 424.716 390.957 423.84ZM394.541 417.183C394.198 415.974 394.703 414.946 395.666 414.477C396.579 414.032 397.327 414.386 397.655 415.48L398.933 419.787L399.912 419.309L398.618 414.928C398.083 413.155 396.963 412.756 395.669 413.387C394.656 413.881 394.211 414.611 394.137 415.469L394.054 415.51L393.047 412.138L392.067 412.616L394.8 421.802L395.779 421.325L394.541 417.183ZM404.378 417.296C405.676 416.663 406.406 415.506 406.398 414.319L405.372 414.49C405.335 415.33 404.882 415.962 404.098 416.344C402.87 416.943 401.947 416.715 401.423 415.039L406.058 412.779L405.922 412.332C405.167 409.762 403.492 409.572 402.161 410.221C400.438 411.061 399.724 413.094 400.36 415.208C400.987 417.327 402.539 418.193 404.378 417.296ZM401.147 414.126C400.901 413.126 401.369 411.696 402.44 411.174C403.506 410.654 404.443 411.184 404.782 412.354L401.147 414.126ZM408.434 415.154L409.414 414.677L408.135 410.369C407.831 409.367 408.304 408.315 409.068 407.942C409.815 407.578 410.481 407.849 410.721 408.636L412.119 413.357L413.115 412.872L411.789 408.382C411.517 407.488 411.84 406.591 412.736 406.154C413.433 405.814 414.142 405.92 414.454 406.939L415.82 411.553L416.8 411.075L415.433 406.462C414.954 404.846 413.917 404.489 412.788 405.039C411.875 405.485 411.331 406.264 411.223 407.138L411.157 407.17C410.626 406.587 409.933 406.431 409.104 406.836C408.274 407.241 407.787 407.971 407.737 408.838L407.654 408.878L407.335 407.801L406.389 408.263L408.434 415.154ZM420.475 409.468C421.587 408.926 421.976 407.996 422.04 407.452L422.089 407.428L422.361 408.364L423.34 407.886L421.99 403.347C421.334 401.16 419.727 401.656 418.914 402.053C417.951 402.522 416.951 403.42 416.837 404.914L417.862 404.825C417.934 404.215 418.322 403.409 419.252 402.956C420.148 402.519 420.715 402.839 420.979 403.717L420.995 403.75C421.138 404.255 420.641 404.457 419.535 405.181C418.396 405.921 417.198 406.834 417.661 408.416C418.069 409.758 419.264 410.059 420.475 409.468ZM420.328 408.451C419.548 408.831 418.88 408.725 418.665 407.988C418.417 407.185 419.034 406.596 419.765 406.116C420.156 405.864 421.228 405.197 421.33 404.901L421.618 405.87C421.873 406.732 421.49 407.884 420.328 408.451ZM433.406 395.747C432.523 394.02 430.776 393.598 429.05 394.44C426.892 395.492 425.884 398.017 426.731 400.891C427.61 403.832 429.771 404.894 431.979 403.818C433.655 403 434.681 401.227 434.445 399.184L433.416 399.686C433.542 401.083 432.705 402.272 431.543 402.839C430.032 403.575 428.47 402.899 427.775 400.547C427.047 398.128 427.893 396.196 429.469 395.427C430.565 394.893 431.769 395.086 432.393 396.24L433.406 395.747ZM439.479 400.181C441.172 399.356 441.893 397.422 441.262 395.326C440.602 393.142 438.988 392.265 437.229 393.123C435.536 393.948 434.814 395.882 435.454 397.994C436.11 400.16 437.719 401.039 439.479 400.181ZM439.067 399.294C437.788 399.917 436.873 399.007 436.465 397.665C436.037 396.251 436.296 394.666 437.641 394.01C438.919 393.387 439.843 394.313 440.251 395.655C440.681 397.074 440.411 398.638 439.067 399.294ZM440.968 388.772L443.253 396.451C443.549 397.437 444.189 397.782 445.119 397.328C445.401 397.191 445.659 397.004 445.817 396.865L445.338 396.051C445.255 396.132 445.18 396.189 444.939 396.327C444.516 396.554 444.352 396.346 444.153 395.684L441.947 388.295L440.968 388.772ZM444.116 387.237L446.401 394.916C446.697 395.902 447.338 396.247 448.267 395.793C448.55 395.656 448.807 395.468 448.966 395.33L448.487 394.515C448.403 394.597 448.328 394.654 448.087 394.792C447.664 395.019 447.501 394.811 447.301 394.149L445.095 386.76L444.116 387.237ZM452.546 393.81C453.845 393.176 454.575 392.019 454.566 390.832L453.541 391.003C453.503 391.843 453.051 392.475 452.267 392.857C451.039 393.456 450.116 393.228 449.592 391.552L454.227 389.292L454.091 388.845C453.336 386.275 451.661 386.085 450.329 386.735C448.607 387.574 447.893 389.607 448.529 391.721C449.156 393.84 450.708 394.706 452.546 393.81ZM449.316 390.639C449.07 389.639 449.538 388.209 450.609 387.687C451.675 387.167 452.612 387.697 452.951 388.867L449.316 390.639ZM459.241 390.546C460.647 389.86 461.289 388.479 461.108 387.17L460.128 387.647C460.165 388.492 459.72 389.223 458.961 389.593C457.795 390.162 456.728 389.49 456.261 387.89C455.785 386.334 456.253 384.935 457.403 384.375C458.262 383.956 458.952 384.276 459.289 384.831L460.269 384.354C459.715 383.144 458.447 382.777 457.106 383.43C455.376 384.274 454.662 386.307 455.298 388.4C455.909 390.465 457.444 391.422 459.241 390.546ZM463.81 380.264L462.445 380.93L461.953 379.28L460.974 379.757L461.465 381.407L460.507 381.875L460.779 382.769L461.733 382.304L463.02 386.607C463.38 387.808 464.435 387.951 465.265 387.546C465.63 387.368 465.847 387.181 465.972 387.058L465.477 386.211C465.402 386.268 465.285 386.366 465.069 386.471C464.638 386.681 464.175 386.743 463.903 385.848L462.708 381.829L464.082 381.159L463.81 380.264ZM467.282 386.46L468.261 385.983L466.216 379.091L465.236 379.569L467.282 386.46ZM465.499 378.106C465.88 377.919 466.05 377.467 465.872 377.102C465.694 376.737 465.233 376.592 464.851 376.778C464.469 376.964 464.3 377.416 464.478 377.782C464.656 378.147 465.117 378.292 465.499 378.106ZM472.712 383.977C474.405 383.152 475.126 381.218 474.494 379.122C473.835 376.938 472.221 376.06 470.461 376.918C468.768 377.744 468.047 379.677 468.687 381.79C469.342 383.956 470.952 384.835 472.712 383.977ZM472.299 383.089C471.021 383.713 470.105 382.803 469.698 381.461C469.27 380.047 469.529 378.462 470.874 377.806C472.152 377.183 473.076 378.109 473.484 379.451C473.913 380.869 473.644 382.434 472.299 383.089ZM476.674 377.135C476.331 375.926 476.803 374.915 477.749 374.454C478.662 374.008 479.402 374.388 479.721 375.464L481 379.772L481.979 379.294L480.685 374.912C480.157 373.156 479.03 372.74 477.752 373.364C476.789 373.833 476.319 374.596 476.237 375.438L476.154 375.478L475.834 374.401L474.888 374.863L476.933 381.754L477.913 381.277L476.674 377.135ZM486.655 370.892C486.044 370.06 485.171 369.746 483.91 370.361C482.565 371.017 481.809 372.33 482.152 373.498C482.432 374.451 483.147 374.821 484.413 374.553L485.547 374.308C486.25 374.15 486.645 374.328 486.781 374.816C486.965 375.404 486.519 376.176 485.606 376.621C484.81 377.01 484.192 376.88 483.81 376.224L482.944 376.933C483.52 377.988 484.6 378.181 485.911 377.541C487.388 376.821 488.137 375.449 487.785 374.265C487.498 373.296 486.766 372.974 485.533 373.226L484.507 373.439C483.704 373.605 483.276 373.485 483.124 372.963C482.94 372.375 483.393 371.661 484.173 371.28C485.036 370.86 485.528 371.195 485.847 371.594L486.655 370.892Z" fill="black"/>
<path d="M364.744 328.354C367.346 327.119 368.296 324.727 367.479 321.885C366.655 318.985 364.644 317.936 362.159 319.116L359.439 320.406L362.074 329.621L364.744 328.354ZM362.828 328.139L360.755 320.906L362.444 320.104C364.446 319.154 365.816 320.017 366.431 322.219C367.086 324.504 366.46 326.415 364.342 327.421L362.828 328.139ZM372.275 324.964C373.393 324.434 373.792 323.509 373.861 322.965L373.911 322.941L374.173 323.88L375.157 323.413L373.855 318.859C373.223 316.666 371.61 317.145 370.793 317.533C369.825 317.992 368.816 318.88 368.686 320.372L369.712 320.294C369.79 319.684 370.187 318.883 371.121 318.44C372.022 318.012 372.585 318.338 372.84 319.219L372.856 319.252C372.994 319.759 372.494 319.955 371.381 320.667C370.234 321.395 369.026 322.295 369.473 323.882C369.866 325.228 371.057 325.542 372.275 324.964ZM372.139 323.945C371.355 324.317 370.689 324.205 370.481 323.465C370.241 322.659 370.865 322.077 371.601 321.605C371.994 321.357 373.073 320.702 373.179 320.407L373.456 321.379C373.703 322.243 373.307 323.391 372.139 323.945ZM377.72 314.348L376.348 314.999L375.874 313.343L374.89 313.81L375.364 315.466L374.401 315.923L374.663 316.82L375.622 316.365L376.863 320.682C377.21 321.887 378.264 322.041 379.098 321.645C379.465 321.471 379.684 321.285 379.81 321.164L379.324 320.311C379.248 320.368 379.131 320.464 378.914 320.567C378.48 320.773 378.016 320.83 377.754 319.932L376.602 315.9L377.983 315.245L377.72 314.348ZM383.066 319.844C384.184 319.313 384.583 318.388 384.652 317.845L384.702 317.821L384.963 318.76L385.948 318.292L384.645 313.739C384.013 311.546 382.401 312.024 381.584 312.412C380.616 312.871 379.606 313.759 379.477 315.252L380.502 315.174C380.581 314.564 380.978 313.763 381.912 313.319C382.813 312.892 383.376 313.217 383.63 314.098L383.646 314.132C383.784 314.638 383.285 314.835 382.172 315.547C381.025 316.275 379.817 317.175 380.263 318.762C380.657 320.108 381.848 320.422 383.066 319.844ZM382.93 318.825C382.146 319.197 381.479 319.084 381.271 318.345C381.032 317.539 381.655 316.957 382.392 316.485C382.785 316.237 383.864 315.582 383.969 315.286L384.247 316.259C384.493 317.123 384.098 318.271 382.93 318.825ZM397 307.897C396.152 304.948 394.002 303.863 391.8 304.908C389.631 305.937 388.596 308.451 389.412 311.334C390.26 314.284 392.41 315.369 394.629 314.316C395.267 314.013 395.803 313.58 396.229 313.046L397.573 313.757L398.707 313.219L396.756 312.198C397.332 311.01 397.458 309.509 397 307.897ZM393.307 311.53L395.262 312.539C394.966 312.873 394.608 313.141 394.203 313.333C392.685 314.053 391.13 313.36 390.46 311.001C389.758 308.574 390.624 306.651 392.209 305.899C393.727 305.179 395.282 305.871 395.952 308.231C396.343 309.583 396.247 310.779 395.81 311.701L394.441 310.992L393.307 311.53ZM403.241 306.877C403.611 308.174 402.872 309.199 402.137 309.547C401.32 309.935 400.551 309.564 400.258 308.559L399.025 304.238L398.041 304.705L399.289 309.1C399.798 310.862 400.904 311.298 402.105 310.728C403.073 310.269 403.561 309.403 403.653 308.563L403.72 308.531L404.051 309.702L405.035 309.235L403.063 302.322L402.078 302.79L403.241 306.877ZM408.73 307.666C409.848 307.135 410.247 306.21 410.316 305.666L410.366 305.643L410.628 306.581L411.612 306.114L410.31 301.561C409.678 299.367 408.066 299.846 407.248 300.234C406.28 300.693 405.271 301.581 405.141 303.074L406.167 302.996C406.246 302.386 406.642 301.585 407.576 301.141C408.477 300.714 409.04 301.039 409.295 301.92L409.311 301.954C409.449 302.46 408.949 302.656 407.836 303.369C406.689 304.097 405.481 304.997 405.928 306.584C406.321 307.93 407.513 308.244 408.73 307.666ZM408.595 306.647C407.81 307.019 407.144 306.906 406.936 306.167C406.696 305.361 407.32 304.779 408.056 304.307C408.45 304.059 409.529 303.404 409.634 303.108L409.911 304.08C410.158 304.945 409.762 306.093 408.595 306.647ZM410.727 296.07L412.93 303.772C413.216 304.761 413.853 305.113 414.787 304.669C415.07 304.535 415.33 304.35 415.49 304.213L415.02 303.394C414.935 303.475 414.86 303.531 414.617 303.666C414.192 303.889 414.031 303.679 413.838 303.014L411.711 295.603L410.727 296.07ZM416.354 303.864L417.338 303.397L415.366 296.484L414.382 296.951L416.354 303.864ZM414.66 295.491C415.044 295.309 415.218 294.858 415.044 294.491C414.87 294.124 414.41 293.974 414.027 294.156C413.643 294.338 413.468 294.789 413.643 295.156C413.817 295.523 414.276 295.673 414.66 295.491ZM419.908 294.329L418.536 294.98L418.062 293.325L417.078 293.792L417.552 295.447L416.588 295.904L416.851 296.802L417.81 296.347L419.051 300.663C419.398 301.868 420.452 302.022 421.286 301.626C421.653 301.452 421.872 301.267 421.998 301.145L421.512 300.293C421.436 300.349 421.319 300.446 421.102 300.549C420.668 300.754 420.204 300.811 419.942 299.914L418.79 295.882L420.171 295.227L419.908 294.329ZM424.696 302.849C425.563 302.438 426.067 301.647 426.131 300.36L426.58 291.163L425.471 291.69L425.282 298.054L425.215 298.086L421.867 293.399L420.841 293.886L425.166 299.683L425.128 300.314C425.055 301.539 424.7 301.866 423.928 302.008L423.94 303.065C424.055 303.072 424.362 303.008 424.696 302.849ZM430.571 286.653L433.206 295.868L434.173 295.409L432.178 288.405L432.262 288.365L436.926 294.103L437.86 293.659L438.535 285.388L438.618 285.349L440.613 292.353L441.581 291.894L438.946 282.679L437.711 283.265L437.005 292.287L436.905 292.335L431.805 286.068L430.571 286.653ZM445.414 290.259C446.532 289.729 446.931 288.804 447 288.26L447.05 288.236L447.311 289.175L448.296 288.708L446.993 284.154C446.361 281.961 444.749 282.44 443.932 282.828C442.964 283.287 441.954 284.175 441.825 285.667L442.85 285.589C442.929 284.979 443.325 284.178 444.26 283.735C445.161 283.307 445.724 283.633 445.978 284.513L445.994 284.547C446.132 285.054 445.633 285.25 444.519 285.962C443.373 286.69 442.165 287.59 442.611 289.177C443.005 290.523 444.196 290.837 445.414 290.259ZM445.278 289.24C444.494 289.612 443.827 289.499 443.619 288.76C443.38 287.954 444.003 287.372 444.74 286.9C445.133 286.652 446.212 285.997 446.317 285.702L446.595 286.674C446.841 287.538 446.446 288.686 445.278 289.24ZM449.835 283.256C449.505 282.043 449.988 281.037 450.939 280.586C451.856 280.15 452.592 280.537 452.9 281.617L454.132 285.938L455.117 285.471L453.869 281.076C453.36 279.314 452.238 278.886 450.953 279.496C449.985 279.955 449.507 280.713 449.415 281.554L449.332 281.594L449.024 280.513L448.073 280.965L450.045 287.878L451.029 287.41L449.835 283.256ZM458.808 283.903C459.926 283.373 460.325 282.448 460.394 281.904L460.444 281.88L460.705 282.819L461.69 282.352L460.388 277.799C459.756 275.605 458.143 276.084 457.326 276.472C456.358 276.931 455.349 277.819 455.219 279.311L456.245 279.233C456.323 278.624 456.72 277.822 457.654 277.379C458.555 276.952 459.118 277.277 459.373 278.158L459.388 278.191C459.527 278.698 459.027 278.894 457.914 279.606C456.767 280.334 455.559 281.235 456.006 282.821C456.399 284.168 457.59 284.481 458.808 283.903ZM458.672 282.885C457.888 283.257 457.221 283.144 457.014 282.404C456.774 281.598 457.397 281.016 458.134 280.544C458.527 280.296 459.606 279.641 459.712 279.346L459.989 280.318C460.235 281.182 459.84 282.33 458.672 282.885ZM466.828 283.021C468.355 282.296 469.373 280.954 468.865 279.172L466.822 272.068L465.872 272.519L466.188 273.616L466.087 273.663C465.771 273.405 465.131 272.768 463.88 273.362C462.262 274.13 461.541 276.046 462.154 278.167C462.77 280.327 464.289 280.996 465.844 280.258C467.091 279.666 467.264 278.685 467.365 278.208L467.448 278.168L467.866 279.565C468.189 280.719 467.559 281.611 466.533 282.098C465.357 282.656 464.791 282.173 464.422 281.914L463.8 282.884C464.414 283.415 465.389 283.703 466.828 283.021ZM465.675 279.255C464.432 279.845 463.542 279.122 463.13 277.683C462.73 276.279 462.973 274.875 464.233 274.278C465.426 273.712 466.406 274.432 466.834 275.925C467.273 277.454 466.851 278.697 465.675 279.255ZM473.282 277.015C474.587 276.395 475.33 275.246 475.334 274.059L474.306 274.219C474.26 275.059 473.801 275.685 473.013 276.059C471.778 276.645 470.858 276.407 470.351 274.726L475.01 272.516L474.879 272.067C474.152 269.489 472.479 269.282 471.14 269.917C469.409 270.738 468.674 272.763 469.287 274.884C469.891 277.009 471.434 277.892 473.282 277.015ZM470.085 273.81C469.85 272.808 470.334 271.383 471.41 270.872C472.482 270.364 473.412 270.903 473.739 272.077L470.085 273.81ZM477.361 274.916L478.346 274.449L477.113 270.128C476.82 269.123 477.304 268.075 478.071 267.711C478.822 267.355 479.485 267.633 479.717 268.422L481.065 273.158L482.066 272.683L480.787 268.18C480.525 267.283 480.857 266.389 481.758 265.962C482.459 265.629 483.167 265.743 483.468 266.765L484.785 271.393L485.769 270.926L484.452 266.298C483.99 264.678 482.957 264.31 481.822 264.848C480.905 265.283 480.352 266.057 480.235 266.93L480.168 266.961C479.644 266.372 478.953 266.21 478.119 266.605C477.285 267.001 476.791 267.726 476.732 268.592L476.648 268.632L476.34 267.552L475.389 268.003L477.361 274.916ZM490.255 268.961C491.56 268.342 492.302 267.192 492.306 266.005L491.279 266.166C491.233 267.005 490.774 267.632 489.985 268.006C488.751 268.592 487.831 268.354 487.324 266.673L491.983 264.462L491.852 264.013C491.124 261.436 489.452 261.228 488.113 261.863C486.382 262.684 485.647 264.709 486.26 266.83C486.864 268.955 488.407 269.838 490.255 268.961ZM487.058 265.757C486.823 264.754 487.306 263.329 488.382 262.818C489.454 262.31 490.385 262.849 490.712 264.023L487.058 265.757ZM494.124 262.24C493.793 261.028 494.277 260.022 495.228 259.57C496.145 259.135 496.881 259.522 497.189 260.602L498.421 264.923L499.406 264.455L498.158 260.06C497.649 258.299 496.526 257.871 495.242 258.48C494.274 258.939 493.796 259.698 493.704 260.538L493.621 260.578L493.313 259.498L492.362 259.949L494.334 266.862L495.318 266.395L494.124 262.24ZM501.971 255.389L500.599 256.04L500.125 254.385L499.141 254.852L499.615 256.508L498.651 256.965L498.914 257.862L499.873 257.407L501.114 261.724C501.461 262.928 502.515 263.082 503.349 262.687C503.716 262.512 503.935 262.327 504.061 262.206L503.575 261.353C503.499 261.409 503.382 261.506 503.165 261.609C502.731 261.815 502.267 261.871 502.005 260.974L500.853 256.942L502.234 256.287L501.971 255.389Z" fill="black"/>
<path d="M322.064 75.0796C322.064 75.0796 276.414 69.9711 271.122 43.3509C265.83 16.7307 230 18.2304 230 18.2304" stroke="#404040" stroke-width="1.5" stroke-linecap="round" stroke-dasharray="0.01 5"/>
<path d="M181.053 241.24C165.707 240.63 168.37 234.655 146.412 219.824C124.453 204.993 107.737 209.824 107.737 209.824" stroke="#404040" stroke-width="1.5" stroke-linecap="round" stroke-dasharray="0.01 5"/>
<path d="M165.591 439.532C165.591 439.532 132.678 443.759 134.47 427.278C135.608 416.81 115 416.23 115 416.23" stroke="#404040" stroke-width="1.5" stroke-linecap="round" stroke-dasharray="0.01 5"/>
<path d="M331 530.23L246 570.23V619.5L331 579.286V530.23Z" fill="#F3F3F3"/>
<path d="M333 529.23L253.5 490.73L164 531.23L245.5 571.23L333 529.23Z" fill="#E8E8E8"/>
<path d="M246.53 499.7C246.237 499.407 245.763 499.407 245.47 499.7L240.697 504.473C240.404 504.766 240.404 505.241 240.697 505.534C240.99 505.827 241.464 505.827 241.757 505.534L246 501.291L250.243 505.534C250.536 505.827 251.01 505.827 251.303 505.534C251.596 505.241 251.596 504.766 251.303 504.473L246.53 499.7ZM246.75 533.23L246.75 500.23L245.25 500.23L245.25 533.23L246.75 533.23Z" fill="#404040"/>
<path d="M245.47 533.761C245.763 534.054 246.237 534.054 246.53 533.761L251.303 528.988C251.596 528.695 251.596 528.22 251.303 527.927C251.01 527.634 250.536 527.634 250.243 527.927L246 532.17L241.757 527.927C241.464 527.634 240.99 527.634 240.697 527.927C240.404 528.22 240.404 528.695 240.697 528.988L245.47 533.761ZM245.25 500.23V533.23L246.75 533.23V500.23L245.25 500.23Z" fill="#404040"/>
<path d="M348 623.73L266 582.23V630.23L348 674.73V623.73Z" fill="#D7D7D7"/>
<path d="M432.5 584.23L352 543.23L266 583.23L348.5 624.73L432.5 584.23Z" fill="#E8E8E8"/>
<path d="M433 583.23L348 624.333V675.23L433 630.837V583.23Z" fill="#F3F3F3"/>
<path d="M350.53 551.7C350.237 551.407 349.763 551.407 349.47 551.7L344.697 556.473C344.404 556.766 344.404 557.241 344.697 557.534C344.99 557.827 345.464 557.827 345.757 557.534L350 553.291L354.243 557.534C354.536 557.827 355.01 557.827 355.303 557.534C355.596 557.241 355.596 556.766 355.303 556.473L350.53 551.7ZM350.75 583.23L350.75 552.23L349.25 552.23L349.25 583.23L350.75 583.23Z" fill="#404040"/>
<path d="M349.47 583.761C349.763 584.054 350.237 584.054 350.53 583.761L355.303 578.988C355.596 578.695 355.596 578.22 355.303 577.927C355.01 577.634 354.536 577.634 354.243 577.927L350 582.17L345.757 577.927C345.464 577.634 344.99 577.634 344.697 577.927C344.404 578.22 344.404 578.695 344.697 578.988L349.47 583.761ZM349.25 552.23V583.23H350.75V552.23H349.25Z" fill="#404040"/>
<path d="M145.999 651.231C145.999 651.231 177.81 657.64 186.374 643.767C194.938 629.895 251.999 633.231 251.999 633.231" stroke="#404040" stroke-width="1.5" stroke-linecap="round" stroke-dasharray="0.01 5"/>
<path d="M351 511.826L170 421.23V451.94L351 543.23V511.826Z" fill="#404040"/>
<path d="M292.53 161.7C292.237 161.407 291.763 161.407 291.47 161.7L286.697 166.473C286.404 166.766 286.404 167.241 286.697 167.534C286.99 167.827 287.464 167.827 287.757 167.534L292 163.291L296.243 167.534C296.536 167.827 297.01 167.827 297.303 167.534C297.596 167.241 297.596 166.766 297.303 166.473L292.53 161.7ZM292.75 227.23L292.75 162.23L291.25 162.23L291.25 227.23L292.75 227.23Z" fill="#333333"/>
<path d="M291.47 227.761C291.763 228.054 292.237 228.054 292.53 227.761L297.303 222.988C297.596 222.695 297.596 222.22 297.303 221.927C297.01 221.634 296.536 221.634 296.243 221.927L292 226.17L287.757 221.927C287.464 221.634 286.99 221.634 286.697 221.927C286.404 222.22 286.404 222.695 286.697 222.988L291.47 227.761ZM291.25 162.23V227.23L292.75 227.23V162.23L291.25 162.23Z" fill="#404040"/>
<path d="M409.53 161.7C409.237 161.407 408.763 161.407 408.47 161.7L403.697 166.473C403.404 166.766 403.404 167.241 403.697 167.534C403.99 167.827 404.464 167.827 404.757 167.534L409 163.291L413.243 167.534C413.536 167.827 414.01 167.827 414.303 167.534C414.596 167.241 414.596 166.766 414.303 166.473L409.53 161.7ZM409.75 227.23L409.75 162.23L408.25 162.23L408.25 227.23L409.75 227.23Z" fill="#333333"/>
<path d="M408.47 227.761C408.763 228.054 409.237 228.054 409.53 227.761L414.303 222.988C414.596 222.695 414.596 222.22 414.303 221.927C414.01 221.634 413.536 221.634 413.243 221.927L409 226.17L404.757 221.927C404.464 221.634 403.99 221.634 403.697 221.927C403.404 222.22 403.404 222.695 403.697 222.988L408.47 227.761ZM408.25 162.23V227.23L409.75 227.23V162.23L408.25 162.23Z" fill="#404040"/>
<path d="M354.53 103.7C354.237 103.407 353.763 103.407 353.47 103.7L348.697 108.473C348.404 108.766 348.404 109.241 348.697 109.534C348.99 109.827 349.464 109.827 349.757 109.534L354 105.291L358.243 109.534C358.536 109.827 359.01 109.827 359.303 109.534C359.596 109.241 359.596 108.766 359.303 108.473L354.53 103.7ZM354.75 169.23L354.75 104.23L353.25 104.23L353.25 169.23L354.75 169.23Z" fill="#333333"/>
<path d="M353.47 169.761C353.763 170.054 354.237 170.054 354.53 169.761L359.303 164.988C359.596 164.695 359.596 164.22 359.303 163.927C359.01 163.634 358.536 163.634 358.243 163.927L354 168.17L349.757 163.927C349.464 163.634 348.99 163.634 348.697 163.927C348.404 164.22 348.404 164.695 348.697 164.988L353.47 169.761ZM353.25 104.23V169.23L354.75 169.23V104.23L353.25 104.23Z" fill="#404040"/>
<defs>
<filter id="filter0_d" x="155" y="480" width="389.5" height="210" filterUnits="userSpaceOnUse" color-interpolation-filters="sRGB">
<feFlood flood-opacity="0" result="BackgroundImageFix"/>
<feColorMatrix in="SourceAlpha" type="matrix" values="0 0 0 0 0 0 0 0 0 0 0 0 0 0 0 0 0 0 127 0"/>
<feOffset dy="2"/>
<feGaussianBlur stdDeviation="5"/>
<feColorMatrix type="matrix" values="0 0 0 0 0 0 0 0 0 0 0 0 0 0 0 0 0 0 0.25 0"/>
<feBlend mode="normal" in2="BackgroundImageFix" result="effect1_dropShadow"/>
<feBlend mode="normal" in="SourceGraphic" in2="effect1_dropShadow" result="shape"/>
</filter>
<linearGradient id="paint0_linear" x1="278.586" y1="187.619" x2="332.49" y2="157.841" gradientUnits="userSpaceOnUse">
<stop stop-color="#23D8ED"/>
<stop offset="1" stop-color="#4967FB"/>
</linearGradient>
<linearGradient id="paint1_linear" x1="313.706" y1="187.727" x2="367.451" y2="157.849" gradientUnits="userSpaceOnUse">
<stop stop-color="#23D8ED"/>
<stop offset="1" stop-color="#4967FB"/>
</linearGradient>
<linearGradient id="paint2_linear" x1="337.741" y1="-8.92376" x2="289.144" y2="17.9225" gradientUnits="userSpaceOnUse">
<stop stop-color="#FF6917"/>
<stop offset="1" stop-color="#FB2474"/>
</linearGradient>
<linearGradient id="paint3_linear" x1="370.038" y1="-8.49406" x2="321.356" y2="18.7144" gradientUnits="userSpaceOnUse">
<stop stop-color="#FF6917"/>
<stop offset="1" stop-color="#FB2474"/>
</linearGradient>
<linearGradient id="paint4_linear" x1="388.941" y1="61.735" x2="335.062" y2="91.4994" gradientUnits="userSpaceOnUse">
<stop stop-color="#FB2474"/>
<stop offset="1" stop-color="#C844DB"/>
</linearGradient>
<linearGradient id="paint5_linear" x1="424.652" y1="62.335" x2="370.933" y2="92.199" gradientUnits="userSpaceOnUse">
<stop stop-color="#FB2474"/>
<stop offset="1" stop-color="#C844DB"/>
</linearGradient>
</defs>
</svg>
