<svg xmlns="http://www.w3.org/2000/svg" xmlns:xlink="http://www.w3.org/1999/xlink" viewBox="0 0 200 200"><defs><linearGradient id="a" y1="100" x2="200" y2="100" gradientTransform="matrix(1, 0, 0, -1, 0, 200)" gradientUnits="userSpaceOnUse"><stop offset="0" stop-color="#ff6320"/><stop offset="1" stop-color="#f52a83"/></linearGradient><clipPath id="b"><path d="M183,78.94c-.06-.19-.1-.32-.15-.44q-2.72-7.4-5.42-14.77c-.16-.43-.35-.52-.78-.34-1.1.48-2.21,1-3.33,1.36-.47.18-.57.41-.39.88.73,1.88,1.4,3.77,2.1,5.65q1.68,4.53,3.33,9c.11.29.16.64.63.45,1.22-.5,2.44-1,3.66-1.5A1.47,1.47,0,0,0,183,78.94Z" fill="none"/></clipPath><clipPath id="c"><path d="M149.34,61.33a3.4,3.4,0,0,0-.38-.47c-.9-.78-1.83-1.55-2.72-2.34-.37-.33-.58-.31-.89.07q-4.9,6.15-9.8,12.27c-.31.39-.26.65.12,1,.9.74,1.79,1.48,2.64,2.27.41.37.63.33,1-.09l9.81-12.24Z" fill="none"/></clipPath><linearGradient id="d" x1="128.15" y1="88.15" x2="188.24" y2="88.15" xlink:href="#a"/><linearGradient id="e" x1="18.69" y1="88.32" x2="55.88" y2="88.32" xlink:href="#a"/><linearGradient id="f" x1="31.85" y1="120.77" x2="69.04" y2="120.77" gradientTransform="matrix(0.93, 0.36, 0.36, -0.93, -47.14, 159.46)" xlink:href="#a"/><linearGradient id="g" x1="72.91" y1="138.95" x2="125.55" y2="138.95" gradientTransform="matrix(1, 0, 0, -1, 0, 200)" gradientUnits="userSpaceOnUse"><stop offset="0" stop-color="#fafafa"/><stop offset="1" stop-color="#eee"/></linearGradient><linearGradient id="h" x1="75.54" y1="101.11" x2="123.53" y2="101.11" xlink:href="#g"/><linearGradient id="i" x1="173.33" y1="128" x2="182.46" y2="128" xlink:href="#a"/><linearGradient id="j" x1="135.84" y1="133.7" x2="148.74" y2="133.7" xlink:href="#a"/></defs><polyline points="99.58 132.7 84.48 118.97 84.48 101.7 114.67 101.7 114.67 118.97 99.58 132.7" fill="#fff"/><path d="M99.58,133.33,84,119.17v-18h31.17v18ZM85,118.74,99.58,132l14.6-13.27V102.17H85Z"/><path d="M71.57,77.91c-.14-4.27,3.15-1.29,3.15-1.29S68,41.23,99.59,41.23s24.87,35.39,24.87,35.39,3.29-2.94,3.14,1.29a28.47,28.47,0,0,1-1.13,7.27,9.58,9.58,0,0,1-5,7.26s-.85,8.57-4.42,12.14S107.75,116.27,99.6,116c-8.15.28-13.87-7.84-17.44-11.41s-4.43-12.14-4.43-12.14a9.52,9.52,0,0,1-5-7.26,28,28,0,0,1-1.16-7.27" fill="#fff"/><path d="M99.13,116.49c-6.78,0-11.95-5.7-15.4-9.5-.7-.76-1.36-1.48-2-2.07-3.33-3.33-4.31-10.65-4.51-12.16a10,10,0,0,1-5-7.47A28,28,0,0,1,71.07,78h0c0-1.47.28-2.35,1-2.69a2.31,2.31,0,0,1,2,.3,49.12,49.12,0,0,1-.37-8.82c.25-5.17,1.5-12.49,6-18,4.41-5.33,11.09-8,19.86-8s15.44,2.7,19.86,8c4.54,5.49,5.8,12.81,6,18a50,50,0,0,1-.36,8.82,2.24,2.24,0,0,1,2-.31c.71.34,1,1.22,1,2.69a28.54,28.54,0,0,1-1.1,7.35,10,10,0,0,1-5,7.49c-.17,1.51-1.2,8.83-4.54,12.16-.59.59-1.25,1.32-2,2.1-3.52,3.86-8.82,9.69-15.84,9.46ZM72.66,76.1a.38.38,0,0,0-.21,0c-.14.07-.47.37-.43,1.76h0A27.69,27.69,0,0,0,73.14,85v.12A9.14,9.14,0,0,0,77.86,92l.25.12v.26c0,.09.88,8.43,4.29,11.84.6.59,1.27,1.33,2,2.1,3.61,4,8.54,9.39,15.11,9.17,6.6.24,11.52-5.19,15.12-9.14.71-.78,1.39-1.53,2-2.13,3.4-3.41,4.27-11.77,4.28-11.84v-.26l.25-.12a9.15,9.15,0,0,0,4.73-6.86V85a27.27,27.27,0,0,0,1.12-7.12c0-1.39-.28-1.69-.42-1.76-.43-.2-1.39.39-1.9.84l-1.08,1,.27-1.43c0-.17,3.1-17-5.28-27.13-4.23-5.1-10.66-7.68-19.11-7.68S84.53,44.26,80.3,49.36C71.92,59.49,75,76.32,75,76.49L75.49,78,74.4,77a3.31,3.31,0,0,0-1.71-.88Z"/><path d="M100.49,198.91a99,99,0,0,0,68.63-27.71c-3-11.77-6.87-26.53-7.12-27.29-.41-1.28-1.72-4.57-3.72-5.14s-33.57-12.11-38-14l-20.58,5.27-20.87-5.27c-4.42,1.87-36,13.42-38,14s-3.28,3.86-3.71,5.14c-.25.74-4.05,14-7.07,25.55a99,99,0,0,0,70.44,29.41" fill="#fff"/><path d="M100.49,199.4a99,99,0,0,1-70.78-29.6l-.2-.19.07-.28c3-11.56,6.81-24.8,7.08-25.58.59-1.77,2-4.84,4.05-5.45,1.91-.55,33.64-12.15,37.95-14l.15-.07,20.9,5.28,20.58-5.28.16.07c4.3,1.81,36,13.41,38,14,2.32.66,3.69,4.35,4,5.46.27.79,4.2,15.93,7.12,27.31l.07.27-.21.21A99.27,99.27,0,0,1,100.49,199.4ZM30.6,169.31a98.43,98.43,0,0,0,138,1.73c-3.17-12.22-6.87-26.29-7.06-26.92-.68-2.06-2-4.4-3.39-4.83-2-.56-32.84-11.84-37.92-13.94l-20.58,5.26-20.83-5.26c-5,2.1-35.87,13.33-37.88,13.87-1.81.52-3,3.82-3.39,4.82C37.32,144.83,33.61,157.84,30.6,169.31Z"/><path d="M101.27,129.5l9.24,12.95,12-18.06L115.29,116l-14,13.5m-3.41,0-9.22,12.95-12-18.06,7.1-8.39Z" fill="#fff"/><path d="M88.62,143.32l-12.56-19,7.68-9.08,14.77,14.13ZM77.28,124.43l11.37,17.16,8.58-12L83.8,116.72Zm33.24,18.89-9.88-13.91,14.7-14.16,7.77,9.07Zm-8.6-13.72,8.58,12,11.36-17.16-6.61-7.72Z"/><path d="M100,200A100,100,0,1,1,200,100,100,100,0,0,1,100,200ZM100,3.92A96.08,96.08,0,1,0,196.08,100,96.08,96.08,0,0,0,100,3.92Z" fill="url(#a)"/><path d="M187.75,122.55H135.24a1.47,1.47,0,0,1-1.48-1.47h0v-5.39l-7.68-4.41,7.68-3.85v-4.71a1.47,1.47,0,0,1,1.48-1.47h52.51a1.47,1.47,0,0,1,1.47,1.47v18.35A1.49,1.49,0,0,1,187.75,122.55Zm-59.6-11.2,6.6,3.78v6a.48.48,0,0,0,.49.49h52.51a.51.51,0,0,0,.49-.49v-18.4a.49.49,0,0,0-.49-.49H135.24a.48.48,0,0,0-.49.49V108Z"/><path d="M38.74,129.67a18,18,0,0,1-10.24-3.2l-11.39.63,5.12-8.27a18,18,0,1,1,18.3,10.79C39.93,129.67,39.33,129.68,38.74,129.67Zm-10-4.06.11.09a17.08,17.08,0,1,0-5.81-7l.05.26-.08.14-4.37,7.07Z"/><path d="M159.9,91.43a5,5,0,0,1-1.71-.33A24,24,0,0,1,155.78,90c-.58-.3-1.17-.61-1.66-.82l-.28.26-.71.71a1.83,1.83,0,0,1-2.59.1l-.11-.1a2.11,2.11,0,0,1-.3-2.94,27,27,0,0,1,2.08-2.05,2,2,0,0,1,.83-.41h.38a2.35,2.35,0,0,1,2,1.64,2,2,0,0,1-.54,2.15l-.14.14c.44.2,1,.46,1.42.7a22.18,22.18,0,0,0,2.31,1.1,2.93,2.93,0,0,0,3.36-.51l-.22-.17-3.49-2.52-.19-.12a1.05,1.05,0,0,1-.49-.64.9.9,0,0,1,.15-.71,1,1,0,0,1,.56-.39,1.1,1.1,0,0,1,.8.23l1.25.89c1,.71,2,1.45,3.08,2.1a2.2,2.2,0,0,0,1.83.35,1.55,1.55,0,0,0,.87-1.07c.05-.16.05-.18-.1-.3-.53-.41-1.06-.84-1.59-1.28l-1.45-1.19-2.08-1.7a1.15,1.15,0,0,1-.5-.77.87.87,0,0,1,.24-.67c.27-.3.73-.54,1.41,0l2,1.59,3.26,2.66a1.72,1.72,0,0,0,1.57.35,1.61,1.61,0,0,0,1.09-1.1.51.51,0,0,0-.17-.69c-1.56-1.27-3.1-2.57-4.63-3.92l-1.39-1.16a1.23,1.23,0,0,1-.42-.46,1,1,0,0,1,.08-1,1.21,1.21,0,0,1,.91-.29,1,1,0,0,1,.55.31l.08.08,2.31,2,4.14,3.47a1.62,1.62,0,0,0,1.41.4,1.45,1.45,0,0,0,1-.81,3.4,3.4,0,0,0,.36-2.44,1.7,1.7,0,0,1-.38-.33,81.12,81.12,0,0,0-13.43-12.29.86.86,0,0,0-.8-.21h-.21a4.2,4.2,0,0,0-2.86,1.21,6.37,6.37,0,0,1-4.42,2,4.22,4.22,0,0,1-.87,0,1,1,0,0,1-1-1.67,3.26,3.26,0,0,1,.67-1l.28-.31c.84-.89,1.71-1.8,2.58-2.69-1.78-.57-4.28-1.44-5.46-2.8l.59-.52c1.12,1.29,3.86,2.18,5.49,2.68.34-.35.69-.69,1-1a2.43,2.43,0,0,1,1.59-.58c2,0,3.84.09,5.71.21a23,23,0,0,1,7.43,2.17,6,6,0,0,0,3.26.44,1,1,0,0,1,1,.5c1.3,3.5,2.58,7,3.92,10.5l.48,1.31-.14.48-1,.57L175,80.91l-.19.1a5.16,5.16,0,0,1-.51,2.73A2.19,2.19,0,0,1,172.82,85a2.42,2.42,0,0,1-2.08-.55l-4.14-3.48-2.42-2a.69.69,0,0,0-.13-.11.81.81,0,0,0-.22,0h0a.21.21,0,0,0,.07.15l.18.16.12.1,1.25,1.2c1.54,1.3,3.07,2.59,4.62,3.86a1.27,1.27,0,0,1,.43,1.54,2.41,2.41,0,0,1-1.63,1.61,2.46,2.46,0,0,1-2.28-.5l-3.26-2.65-2-1.6c-.18-.16-.25-.17-.26-.17a1.27,1.27,0,0,0-.11.13s0,.08.21.22l2.09,1.71,1.45,1.2c.52.43,1,.85,1.57,1.26a1,1,0,0,1,.37,1.16,2.27,2.27,0,0,1-1.35,1.57,2.94,2.94,0,0,1-2.52-.43c-1.07-.65-2.11-1.41-3.12-2.12l-1.24-.89c-.13-.08-.19-.1-.21-.09a.71.71,0,0,0-.08.15s0,.07.13.14l.24.17,1.16.8L162,89.08l.43.32.5.38-.26.32A3.54,3.54,0,0,1,159.9,91.43Zm-6.54-6h-.1a1.36,1.36,0,0,0-.53.25c-.74.64-1.42,1.34-2,2a1.35,1.35,0,0,0,.27,1.83,1.06,1.06,0,0,0,1.48.13.8.8,0,0,0,.13-.13c.24-.22.47-.46.7-.7s.69-.67,1-1a1.18,1.18,0,0,0,.34-1.34,1.6,1.6,0,0,0-1.3-1Zm6.19-18.08a1.77,1.77,0,0,1,1,.4,80.61,80.61,0,0,1,13.57,12.4c.22.25.29.22.43.13L177,78.84l.65-.38-.39-1c-1.29-3.5-2.57-7-3.92-10.5h-.11a6.53,6.53,0,0,1-3.65-.5,22.7,22.7,0,0,0-7.2-2.11c-1.84-.12-3.74-.18-5.64-.2a1.66,1.66,0,0,0-1.05.35c-1.45,1.41-2.86,2.94-4.23,4.35l-.28.31a2.55,2.55,0,0,0-.51.79c-.15.38-.13.48-.12.49s.08.08.5.13a4.57,4.57,0,0,0,.74,0,5.63,5.63,0,0,0,3.93-1.74A4.89,4.89,0,0,1,159,67.4l.17.38-.06-.38A1.34,1.34,0,0,1,159.55,67.33ZM148.23,87.92a2,2,0,0,1-1.29-.54,2.42,2.42,0,0,1-.84-1.68,1.81,1.81,0,0,1,.46-1.32c1.11-1.17,2.3-2.31,3.31-3.27a1.8,1.8,0,0,1,2.43.24,2.66,2.66,0,0,1,.81,2v.12l-.07.1c-.06.09-.12.17-.17.26a3.16,3.16,0,0,1-.48.67c-.75.77-1.52,1.53-2.28,2.27l-.48.47a2,2,0,0,1-1.4.63Zm2.63-6.41a.7.7,0,0,0-.45.17c-1,1-2.18,2.07-3.28,3.24a1,1,0,0,0-.25.74,1.7,1.7,0,0,0,.57,1.13,1.06,1.06,0,0,0,1.5.06.86.86,0,0,0,.13-.14l.48-.47c.76-.75,1.53-1.5,2.27-2.27a2.73,2.73,0,0,0,.37-.52l.12-.2a1.81,1.81,0,0,0-.56-1.33,1.38,1.38,0,0,0-.9-.44ZM145,84.87h-.12a2.4,2.4,0,0,1-2-1.62,2,2,0,0,1,.54-2.2c.77-.75,1.55-1.51,2.31-2.27l1.37-1.33a1.83,1.83,0,0,1,2.58-.18l.11.1a2.5,2.5,0,0,1,.83,1.71,1.77,1.77,0,0,1-.47,1.28c-1.19,1.24-2.5,2.53-4.14,4.07a1.84,1.84,0,0,1-.81.38h-.16Zm3.55-7.3a1.21,1.21,0,0,0-.83.41l-1.37,1.33c-.76.77-1.54,1.52-2.32,2.28a1.19,1.19,0,0,0-.34,1.37,1.63,1.63,0,0,0,1.26,1.1h.12a1.14,1.14,0,0,0,.47-.19c1.63-1.54,2.94-2.82,4.12-4a1,1,0,0,0,.24-.71,1.6,1.6,0,0,0-.57-1.15,1.18,1.18,0,0,0-.78-.43Zm-5.94,3.32a2.09,2.09,0,0,1-.78-.16,2.42,2.42,0,0,1-1.39-1.89,2,2,0,0,1,.77-1.88,3.32,3.32,0,0,0,.43-.41l.31-.31L141.12,75c-.45-.67-.92-1.34-1.18-1.8l.69-.39c.23.44.69,1.1,1.13,1.75.32.45.62.91.87,1.28l.45-.18.17-.06h.23a2.31,2.31,0,0,1,2,1.68,1.94,1.94,0,0,1-.58,2.13l-.67.65c-.14.15-.29.28-.44.43a1.59,1.59,0,0,1-1.11.42Zm.79-4.58h-.08a2.84,2.84,0,0,0-.63.31,2.88,2.88,0,0,0-.48.44c-.17.18-.34.34-.52.5a1.16,1.16,0,0,0-.47,1.16,1.62,1.62,0,0,0,.91,1.25.87.87,0,0,0,1.07-.16l.43-.42c.23-.22.46-.45.7-.66a1.22,1.22,0,0,0,.36-1.34,1.56,1.56,0,0,0-1.29-1.11Z"/><g clip-path="url(#b)"><polygon points="173.18 63.19 172.75 65.78 172.75 63.19 173.18 63.19" fill="#ff6320"/><polygon points="173.3 63.19 172.75 66.56 172.75 65.78 173.18 63.19 173.3 63.19" fill="#ff6320"/><polygon points="173.42 63.19 172.75 67.33 172.75 66.56 173.3 63.19 173.42 63.19" fill="#ff6221"/><polygon points="173.55 63.19 172.75 68.11 172.75 67.33 173.42 63.19 173.55 63.19" fill="#ff6222"/><polygon points="173.68 63.19 172.75 68.88 172.75 68.11 173.55 63.19 173.68 63.19" fill="#ff6123"/><polygon points="173.8 63.19 172.75 69.66 172.75 68.88 173.68 63.19 173.8 63.19" fill="#ff6124"/><polygon points="173.92 63.19 172.75 70.43 172.75 69.66 173.8 63.19 173.92 63.19" fill="#fe6025"/><polygon points="174.05 63.19 172.75 71.22 172.75 70.43 173.92 63.19 174.05 63.19" fill="#fe6026"/><polygon points="174.18 63.19 172.75 71.99 172.75 71.22 174.05 63.19 174.18 63.19" fill="#fe5f27"/><polygon points="174.3 63.19 172.75 72.77 172.75 71.99 174.18 63.19 174.3 63.19" fill="#fe5e28"/><polygon points="174.42 63.19 172.75 73.54 172.75 72.77 174.3 63.19 174.42 63.19" fill="#fe5e29"/><polygon points="174.55 63.19 172.75 74.31 172.75 73.54 174.42 63.19 174.55 63.19" fill="#fe5d2a"/><polygon points="174.68 63.19 172.75 75.09 172.75 74.31 174.55 63.19 174.68 63.19" fill="#fe5d2b"/><polygon points="174.8 63.19 172.75 75.86 172.75 75.09 174.68 63.19 174.8 63.19" fill="#fe5c2c"/><polygon points="174.93 63.19 172.75 76.64 172.75 75.86 174.8 63.19 174.93 63.19" fill="#fe5b2d"/><polygon points="175.05 63.19 172.75 77.41 172.75 76.64 174.93 63.19 175.05 63.19" fill="#fe5b2e"/><polygon points="175.18 63.19 172.75 78.19 172.75 77.41 175.05 63.19 175.18 63.19" fill="#fd5a2f"/><polygon points="175.3 63.19 172.75 78.97 172.75 78.19 175.18 63.19 175.3 63.19" fill="#fd5a30"/><polygon points="175.43 63.19 172.75 79.75 172.75 78.97 175.3 63.19 175.43 63.19" fill="#fd5931"/><polygon points="175.55 63.19 172.75 80.52 172.75 79.75 175.43 63.19 175.55 63.19" fill="#fd5932"/><polygon points="175.68 63.19 172.81 80.92 172.75 80.92 172.75 80.52 175.55 63.19 175.68 63.19" fill="#fd5833"/><polygon points="175.8 63.19 172.94 80.92 172.81 80.92 175.68 63.19 175.8 63.19" fill="#fd5734"/><polygon points="175.93 63.19 173.07 80.92 172.94 80.92 175.8 63.19 175.93 63.19" fill="#fd5735"/><polygon points="176.05 63.19 173.2 80.92 173.07 80.92 175.93 63.19 176.05 63.19" fill="#fd5636"/><polygon points="176.18 63.19 173.31 80.92 173.2 80.92 176.05 63.19 176.18 63.19" fill="#fd5637"/><polygon points="176.3 63.19 173.44 80.92 173.31 80.92 176.18 63.19 176.3 63.19" fill="#fd5538"/><polygon points="176.43 63.19 173.57 80.92 173.44 80.92 176.3 63.19 176.43 63.19" fill="#fc5439"/><polygon points="176.55 63.19 173.69 80.92 173.57 80.92 176.43 63.19 176.55 63.19" fill="#fc543a"/><polygon points="176.68 63.19 173.81 80.92 173.69 80.92 176.55 63.19 176.68 63.19" fill="#fc533b"/><polygon points="176.8 63.19 173.94 80.92 173.81 80.92 176.68 63.19 176.8 63.19" fill="#fc533c"/><polygon points="176.93 63.19 174.07 80.92 173.94 80.92 176.8 63.19 176.93 63.19" fill="#fc523d"/><polygon points="177.05 63.19 174.2 80.92 174.07 80.92 176.93 63.19 177.05 63.19" fill="#fc523e"/><polygon points="177.18 63.19 174.31 80.92 174.2 80.92 177.05 63.19 177.18 63.19" fill="#fc513f"/><polygon points="177.3 63.19 174.44 80.92 174.31 80.92 177.18 63.19 177.3 63.19" fill="#fc5040"/><polygon points="177.43 63.19 174.57 80.92 174.44 80.92 177.3 63.19 177.43 63.19" fill="#fc5041"/><polygon points="177.55 63.19 174.7 80.92 174.57 80.92 177.43 63.19 177.55 63.19" fill="#fc4f42"/><polygon points="177.68 63.19 174.81 80.92 174.7 80.92 177.55 63.19 177.68 63.19" fill="#fb4f43"/><polygon points="177.8 63.19 174.94 80.92 174.81 80.92 177.68 63.19 177.8 63.19" fill="#fb4e44"/><polygon points="177.93 63.19 175.07 80.92 174.94 80.92 177.8 63.19 177.93 63.19" fill="#fb4d45"/><polygon points="178.06 63.19 175.2 80.92 175.07 80.92 177.93 63.19 178.06 63.19" fill="#fb4d46"/><polygon points="178.18 63.19 175.31 80.92 175.2 80.92 178.06 63.19 178.18 63.19" fill="#fb4c47"/><polygon points="178.3 63.19 175.44 80.92 175.31 80.92 178.18 63.19 178.3 63.19" fill="#fb4c48"/><polygon points="178.43 63.19 175.57 80.92 175.44 80.92 178.3 63.19 178.43 63.19" fill="#fb4b49"/><polygon points="178.56 63.19 175.7 80.92 175.57 80.92 178.43 63.19 178.56 63.19" fill="#fb4b4a"/><polygon points="178.68 63.19 175.82 80.92 175.7 80.92 178.56 63.19 178.68 63.19" fill="#fb4a4b"/><polygon points="178.8 63.19 175.94 80.92 175.82 80.92 178.68 63.19 178.8 63.19" fill="#fb494c"/><polygon points="178.93 63.19 176.07 80.92 175.94 80.92 178.8 63.19 178.93 63.19" fill="#fa494d"/><polygon points="179.06 63.19 176.2 80.92 176.07 80.92 178.93 63.19 179.06 63.19" fill="#fa484e"/><polygon points="179.18 63.19 176.31 80.92 176.2 80.92 179.06 63.19 179.18 63.19" fill="#fa484f"/><polygon points="179.3 63.19 176.44 80.92 176.31 80.92 179.18 63.19 179.3 63.19" fill="#fa4750"/><polygon points="179.43 63.19 176.57 80.92 176.44 80.92 179.3 63.19 179.43 63.19" fill="#fa4752"/><polygon points="179.56 63.19 176.7 80.92 176.57 80.92 179.43 63.19 179.56 63.19" fill="#fa4653"/><polygon points="179.68 63.19 176.81 80.92 176.7 80.92 179.56 63.19 179.68 63.19" fill="#fa4554"/><polygon points="179.8 63.19 176.94 80.92 176.81 80.92 179.68 63.19 179.8 63.19" fill="#fa4555"/><polygon points="179.93 63.19 177.07 80.92 176.94 80.92 179.8 63.19 179.93 63.19" fill="#fa4456"/><polygon points="180.06 63.19 177.2 80.92 177.07 80.92 179.93 63.19 180.06 63.19" fill="#f94457"/><polygon points="180.18 63.19 177.32 80.92 177.2 80.92 180.06 63.19 180.18 63.19" fill="#f94358"/><polygon points="180.3 63.19 177.44 80.92 177.32 80.92 180.18 63.19 180.3 63.19" fill="#f94259"/><polygon points="180.43 63.19 177.57 80.92 177.44 80.92 180.3 63.19 180.43 63.19" fill="#f9425a"/><polygon points="180.56 63.19 177.7 80.92 177.57 80.92 180.43 63.19 180.56 63.19" fill="#f9415b"/><polygon points="180.68 63.19 177.82 80.92 177.7 80.92 180.56 63.19 180.68 63.19" fill="#f9415c"/><polygon points="180.8 63.19 177.94 80.92 177.82 80.92 180.68 63.19 180.8 63.19" fill="#f9405d"/><polygon points="180.93 63.19 178.07 80.92 177.94 80.92 180.8 63.19 180.93 63.19" fill="#f9405e"/><polygon points="181.06 63.19 178.2 80.92 178.07 80.92 180.93 63.19 181.06 63.19" fill="#f93f5f"/><polygon points="181.19 63.19 178.32 80.92 178.2 80.92 181.06 63.19 181.19 63.19" fill="#f93e60"/><polygon points="181.3 63.19 178.44 80.92 178.32 80.92 181.19 63.19 181.3 63.19" fill="#f83e61"/><polygon points="181.43 63.19 178.57 80.92 178.44 80.92 181.3 63.19 181.43 63.19" fill="#f83d62"/><polygon points="181.56 63.19 178.7 80.92 178.57 80.92 181.43 63.19 181.56 63.19" fill="#f83d63"/><polygon points="181.68 63.19 178.82 80.92 178.7 80.92 181.56 63.19 181.68 63.19" fill="#f83c64"/><polygon points="181.8 63.19 178.95 80.92 178.82 80.92 181.68 63.19 181.8 63.19" fill="#f83b65"/><polygon points="181.93 63.19 179.07 80.92 178.95 80.92 181.8 63.19 181.93 63.19" fill="#f83b66"/><polygon points="182.06 63.19 179.2 80.92 179.07 80.92 181.93 63.19 182.06 63.19" fill="#f83a67"/><polygon points="182.19 63.19 179.32 80.92 179.2 80.92 182.06 63.19 182.19 63.19" fill="#f83a68"/><polygon points="182.3 63.19 179.44 80.92 179.32 80.92 182.19 63.19 182.3 63.19" fill="#f83969"/><polygon points="182.43 63.19 179.57 80.92 179.44 80.92 182.3 63.19 182.43 63.19" fill="#f8396a"/><polygon points="182.56 63.19 179.7 80.92 179.57 80.92 182.43 63.19 182.56 63.19" fill="#f7386b"/><polygon points="182.69 63.19 179.82 80.92 179.7 80.92 182.56 63.19 182.69 63.19" fill="#f7376c"/><polygon points="182.8 63.19 179.94 80.92 179.82 80.92 182.69 63.19 182.8 63.19" fill="#f7376d"/><polygon points="182.93 63.19 180.07 80.92 179.94 80.92 182.8 63.19 182.93 63.19" fill="#f7366e"/><polygon points="183.02 63.43 180.2 80.92 180.07 80.92 182.93 63.19 183.02 63.19 183.02 63.43" fill="#f7366f"/><polygon points="183.02 64.21 180.32 80.92 180.2 80.92 183.02 63.43 183.02 64.21" fill="#f73570"/><polygon points="183.02 64.98 180.45 80.92 180.32 80.92 183.02 64.21 183.02 64.98" fill="#f73471"/><polygon points="183.02 65.75 180.57 80.92 180.45 80.92 183.02 64.98 183.02 65.75" fill="#f73472"/><polygon points="183.02 66.53 180.7 80.92 180.57 80.92 183.02 65.75 183.02 66.53" fill="#f73373"/><polygon points="183.02 67.3 180.82 80.92 180.7 80.92 183.02 66.53 183.02 67.3" fill="#f73374"/><polygon points="183.02 68.08 180.95 80.92 180.82 80.92 183.02 67.3 183.02 68.08" fill="#f63275"/><polygon points="183.02 68.86 181.07 80.92 180.95 80.92 183.02 68.08 183.02 68.86" fill="#f63276"/><polygon points="183.02 69.64 181.2 80.92 181.07 80.92 183.02 68.86 183.02 69.64" fill="#f63177"/><polygon points="183.02 70.41 181.32 80.92 181.2 80.92 183.02 69.64 183.02 70.41" fill="#f63078"/><polygon points="183.02 71.19 181.45 80.92 181.32 80.92 183.02 70.41 183.02 71.19" fill="#f63079"/><polygon points="183.02 71.96 181.57 80.92 181.45 80.92 183.02 71.19 183.02 71.96" fill="#f62f7a"/><polygon points="183.02 72.73 181.7 80.92 181.57 80.92 183.02 71.96 183.02 72.73" fill="#f62f7b"/><polygon points="183.02 73.51 181.82 80.92 181.7 80.92 183.02 72.73 183.02 73.51" fill="#f62e7c"/><polygon points="183.02 74.28 181.95 80.92 181.82 80.92 183.02 73.51 183.02 74.28" fill="#f62d7d"/><polygon points="183.02 75.07 182.08 80.92 181.95 80.92 183.02 74.28 183.02 75.07" fill="#f62d7e"/><polygon points="183.02 75.84 182.2 80.92 182.08 80.92 183.02 75.07 183.02 75.84" fill="#f52c7f"/><polygon points="183.02 76.62 182.32 80.92 182.2 80.92 183.02 75.84 183.02 76.62" fill="#f52c80"/><polygon points="183.02 77.39 182.45 80.92 182.32 80.92 183.02 76.62 183.02 77.39" fill="#f52b81"/><polygon points="183.02 78.17 182.57 80.92 182.45 80.92 183.02 77.39 183.02 78.17" fill="#f52b82"/><polygon points="183.02 78.94 182.7 80.92 182.57 80.92 183.02 78.17 183.02 78.94" fill="#f52a83"/><polygon points="182.7 80.92 183.02 78.94 183.02 80.92 182.7 80.92" fill="#f52a83"/></g><path d="M178.75,81.27a.69.69,0,0,1-.31-.06,1.11,1.11,0,0,1-.51-.67L174,70c-.52-1.41-1-2.82-1.57-4.23a1,1,0,0,1,.28-1.35,1.11,1.11,0,0,1,.39-.16c1.14-.43,2.24-.89,3.3-1.35a1.12,1.12,0,0,1,.88-.07,1.2,1.2,0,0,1,.56.69c1.25,3.41,2.51,6.86,3.77,10.23l1.71,4.55a1.76,1.76,0,0,1,.1.3l.16.49-.34.29a1.6,1.6,0,0,1-.42.3l-2.08.84-1.57.65A1.26,1.26,0,0,1,178.75,81.27Z"/><g clip-path="url(#c)"><polygon points="137.46 58.19 135.24 71.97 135.24 58.19 137.46 58.19" fill="#ff6320"/><polygon points="137.58 58.19 135.24 72.75 135.24 71.97 137.46 58.19 137.58 58.19" fill="#ff6320"/><polygon points="137.71 58.19 135.24 73.52 135.24 72.75 137.58 58.19 137.71 58.19" fill="#ff6221"/><polygon points="137.83 58.19 135.24 74.29 135.24 73.52 137.71 58.19 137.83 58.19" fill="#ff6222"/><polygon points="137.96 58.19 135.33 74.45 135.24 74.45 135.24 74.29 137.83 58.19 137.96 58.19" fill="#ff6123"/><polygon points="138.08 58.19 135.46 74.45 135.33 74.45 137.96 58.19 138.08 58.19" fill="#ff6124"/><polygon points="138.21 58.19 135.59 74.45 135.46 74.45 138.08 58.19 138.21 58.19" fill="#fe6025"/><polygon points="138.33 58.19 135.72 74.45 135.59 74.45 138.21 58.19 138.33 58.19" fill="#fe6026"/><polygon points="138.46 58.19 135.83 74.45 135.72 74.45 138.33 58.19 138.46 58.19" fill="#fe5f27"/><polygon points="138.59 58.19 135.96 74.45 135.83 74.45 138.46 58.19 138.59 58.19" fill="#fe5e28"/><polygon points="138.71 58.19 136.09 74.45 135.96 74.45 138.59 58.19 138.71 58.19" fill="#fe5e29"/><polygon points="138.83 58.19 136.22 74.45 136.09 74.45 138.71 58.19 138.83 58.19" fill="#fe5d2a"/><polygon points="138.96 58.19 136.33 74.45 136.22 74.45 138.83 58.19 138.96 58.19" fill="#fe5d2b"/><polygon points="139.09 58.19 136.46 74.45 136.33 74.45 138.96 58.19 139.09 58.19" fill="#fe5c2c"/><polygon points="139.22 58.19 136.59 74.45 136.46 74.45 139.09 58.19 139.22 58.19" fill="#fe5b2d"/><polygon points="139.33 58.19 136.72 74.45 136.59 74.45 139.22 58.19 139.33 58.19" fill="#fe5b2e"/><polygon points="139.46 58.19 136.83 74.45 136.72 74.45 139.33 58.19 139.46 58.19" fill="#fd5a2f"/><polygon points="139.59 58.19 136.96 74.45 136.83 74.45 139.46 58.19 139.59 58.19" fill="#fd5a30"/><polygon points="139.71 58.19 137.09 74.45 136.96 74.45 139.59 58.19 139.71 58.19" fill="#fd5931"/><polygon points="139.83 58.19 137.22 74.45 137.09 74.45 139.71 58.19 139.83 58.19" fill="#fd5932"/><polygon points="139.96 58.19 137.34 74.45 137.22 74.45 139.83 58.19 139.96 58.19" fill="#fd5833"/><polygon points="140.09 58.19 137.46 74.45 137.34 74.45 139.96 58.19 140.09 58.19" fill="#fd5734"/><polygon points="140.22 58.19 137.59 74.45 137.46 74.45 140.09 58.19 140.22 58.19" fill="#fd5735"/><polygon points="140.33 58.19 137.72 74.45 137.59 74.45 140.22 58.19 140.33 58.19" fill="#fd5636"/><polygon points="140.46 58.19 137.84 74.45 137.72 74.45 140.33 58.19 140.46 58.19" fill="#fd5637"/><polygon points="140.59 58.19 137.96 74.45 137.84 74.45 140.46 58.19 140.59 58.19" fill="#fd5538"/><polygon points="140.72 58.19 138.09 74.45 137.96 74.45 140.59 58.19 140.72 58.19" fill="#fc5439"/><polygon points="140.84 58.19 138.22 74.45 138.09 74.45 140.72 58.19 140.84 58.19" fill="#fc543a"/><polygon points="140.96 58.19 138.34 74.45 138.22 74.45 140.84 58.19 140.96 58.19" fill="#fc533b"/><polygon points="141.09 58.19 138.47 74.45 138.34 74.45 140.96 58.19 141.09 58.19" fill="#fc533c"/><polygon points="141.22 58.19 138.59 74.45 138.47 74.45 141.09 58.19 141.22 58.19" fill="#fc523d"/><polygon points="141.33 58.19 138.72 74.45 138.59 74.45 141.22 58.19 141.33 58.19" fill="#fc523e"/><polygon points="141.46 58.19 138.84 74.45 138.72 74.45 141.33 58.19 141.46 58.19" fill="#fc513f"/><polygon points="141.59 58.19 138.97 74.45 138.84 74.45 141.46 58.19 141.59 58.19" fill="#fc5040"/><polygon points="141.72 58.19 139.09 74.45 138.97 74.45 141.59 58.19 141.72 58.19" fill="#fc5041"/><polygon points="141.84 58.19 139.22 74.45 139.09 74.45 141.72 58.19 141.84 58.19" fill="#fc4f42"/><polygon points="141.96 58.19 139.34 74.45 139.22 74.45 141.84 58.19 141.96 58.19" fill="#fb4f43"/><polygon points="142.09 58.19 139.47 74.45 139.34 74.45 141.96 58.19 142.09 58.19" fill="#fb4e44"/><polygon points="142.22 58.19 139.59 74.45 139.47 74.45 142.09 58.19 142.22 58.19" fill="#fb4d45"/><polygon points="142.34 58.19 139.72 74.45 139.59 74.45 142.22 58.19 142.34 58.19" fill="#fb4d46"/><polygon points="142.46 58.19 139.84 74.45 139.72 74.45 142.34 58.19 142.46 58.19" fill="#fb4c47"/><polygon points="142.59 58.19 139.97 74.45 139.84 74.45 142.46 58.19 142.59 58.19" fill="#fb4c48"/><polygon points="142.72 58.19 140.1 74.45 139.97 74.45 142.59 58.19 142.72 58.19" fill="#fb4b49"/><polygon points="142.84 58.19 140.22 74.45 140.1 74.45 142.72 58.19 142.84 58.19" fill="#fb4b4a"/><polygon points="142.97 58.19 140.34 74.45 140.22 74.45 142.84 58.19 142.97 58.19" fill="#fb4a4b"/><polygon points="143.09 58.19 140.47 74.45 140.34 74.45 142.97 58.19 143.09 58.19" fill="#fb494c"/><polygon points="143.22 58.19 140.6 74.45 140.47 74.45 143.09 58.19 143.22 58.19" fill="#fa494d"/><polygon points="143.34 58.19 140.72 74.45 140.6 74.45 143.22 58.19 143.34 58.19" fill="#fa484e"/><polygon points="143.47 58.19 140.84 74.45 140.72 74.45 143.34 58.19 143.47 58.19" fill="#fa484f"/><polygon points="143.59 58.19 140.97 74.45 140.84 74.45 143.47 58.19 143.59 58.19" fill="#fa4750"/><polygon points="143.72 58.19 141.1 74.45 140.97 74.45 143.59 58.19 143.72 58.19" fill="#fa4752"/><polygon points="143.84 58.19 141.22 74.45 141.1 74.45 143.72 58.19 143.84 58.19" fill="#fa4653"/><polygon points="143.97 58.19 141.34 74.45 141.22 74.45 143.84 58.19 143.97 58.19" fill="#fa4554"/><polygon points="144.09 58.19 141.47 74.45 141.34 74.45 143.97 58.19 144.09 58.19" fill="#fa4555"/><polygon points="144.22 58.19 141.6 74.45 141.47 74.45 144.09 58.19 144.22 58.19" fill="#fa4456"/><polygon points="144.34 58.19 141.72 74.45 141.6 74.45 144.22 58.19 144.34 58.19" fill="#f94457"/><polygon points="144.47 58.19 141.84 74.45 141.72 74.45 144.34 58.19 144.47 58.19" fill="#f94358"/><polygon points="144.6 58.19 141.97 74.45 141.84 74.45 144.47 58.19 144.6 58.19" fill="#f94259"/><polygon points="144.72 58.19 142.1 74.45 141.97 74.45 144.6 58.19 144.72 58.19" fill="#f9425a"/><polygon points="144.84 58.19 142.22 74.45 142.1 74.45 144.72 58.19 144.84 58.19" fill="#f9415b"/><polygon points="144.97 58.19 142.34 74.45 142.22 74.45 144.84 58.19 144.97 58.19" fill="#f9415c"/><polygon points="145.1 58.19 142.47 74.45 142.34 74.45 144.97 58.19 145.1 58.19" fill="#f9405d"/><polygon points="145.22 58.19 142.6 74.45 142.47 74.45 145.1 58.19 145.22 58.19" fill="#f9405e"/><polygon points="145.34 58.19 142.72 74.45 142.6 74.45 145.22 58.19 145.34 58.19" fill="#f93f5f"/><polygon points="145.47 58.19 142.85 74.45 142.72 74.45 145.34 58.19 145.47 58.19" fill="#f93e60"/><polygon points="145.6 58.19 142.97 74.45 142.85 74.45 145.47 58.19 145.6 58.19" fill="#f83e61"/><polygon points="145.72 58.19 143.1 74.45 142.97 74.45 145.6 58.19 145.72 58.19" fill="#f83d62"/><polygon points="145.84 58.19 143.22 74.45 143.1 74.45 145.72 58.19 145.84 58.19" fill="#f83d63"/><polygon points="145.97 58.19 143.35 74.45 143.22 74.45 145.84 58.19 145.97 58.19" fill="#f83c64"/><polygon points="146.1 58.19 143.47 74.45 143.35 74.45 145.97 58.19 146.1 58.19" fill="#f83b65"/><polygon points="146.22 58.19 143.6 74.45 143.47 74.45 146.1 58.19 146.22 58.19" fill="#f83b66"/><polygon points="146.34 58.19 143.72 74.45 143.6 74.45 146.22 58.19 146.34 58.19" fill="#f83a67"/><polygon points="146.47 58.19 143.85 74.45 143.72 74.45 146.34 58.19 146.47 58.19" fill="#f83a68"/><polygon points="146.6 58.19 143.97 74.45 143.85 74.45 146.47 58.19 146.6 58.19" fill="#f83969"/><polygon points="146.72 58.19 144.1 74.45 143.97 74.45 146.6 58.19 146.72 58.19" fill="#f8396a"/><polygon points="146.84 58.19 144.22 74.45 144.1 74.45 146.72 58.19 146.84 58.19" fill="#f7386b"/><polygon points="146.97 58.19 144.35 74.45 144.22 74.45 146.84 58.19 146.97 58.19" fill="#f7376c"/><polygon points="147.1 58.19 144.48 74.45 144.35 74.45 146.97 58.19 147.1 58.19" fill="#f7376d"/><polygon points="147.22 58.19 144.6 74.45 144.48 74.45 147.1 58.19 147.22 58.19" fill="#f7366e"/><polygon points="147.34 58.19 144.72 74.45 144.6 74.45 147.22 58.19 147.34 58.19" fill="#f7366f"/><polygon points="147.47 58.19 144.85 74.45 144.72 74.45 147.34 58.19 147.47 58.19" fill="#f73570"/><polygon points="147.6 58.19 144.98 74.45 144.85 74.45 147.47 58.19 147.6 58.19" fill="#f73471"/><polygon points="147.72 58.19 145.1 74.45 144.98 74.45 147.6 58.19 147.72 58.19" fill="#f73472"/><polygon points="147.85 58.19 145.22 74.45 145.1 74.45 147.72 58.19 147.85 58.19" fill="#f73373"/><polygon points="147.97 58.19 145.35 74.45 145.22 74.45 147.85 58.19 147.97 58.19" fill="#f73374"/><polygon points="148.1 58.19 145.48 74.45 145.35 74.45 147.97 58.19 148.1 58.19" fill="#f63275"/><polygon points="148.22 58.19 145.6 74.45 145.48 74.45 148.1 58.19 148.22 58.19" fill="#f63276"/><polygon points="148.35 58.19 145.72 74.45 145.6 74.45 148.22 58.19 148.35 58.19" fill="#f63177"/><polygon points="148.47 58.19 145.85 74.45 145.72 74.45 148.35 58.19 148.47 58.19" fill="#f63078"/><polygon points="148.6 58.19 145.98 74.45 145.85 74.45 148.47 58.19 148.6 58.19" fill="#f63079"/><polygon points="148.72 58.19 146.11 74.45 145.98 74.45 148.6 58.19 148.72 58.19" fill="#f62f7a"/><polygon points="148.85 58.19 146.22 74.45 146.11 74.45 148.72 58.19 148.85 58.19" fill="#f62f7b"/><polygon points="148.98 58.19 146.35 74.45 146.22 74.45 148.85 58.19 148.98 58.19" fill="#f62e7c"/><polygon points="149.1 58.19 146.48 74.45 146.35 74.45 148.98 58.19 149.1 58.19" fill="#f62d7d"/><polygon points="149.22 58.19 146.61 74.45 146.48 74.45 149.1 58.19 149.22 58.19" fill="#f62d7e"/><polygon points="149.34 58.23 146.72 74.45 146.61 74.45 149.22 58.19 149.34 58.19 149.34 58.23" fill="#f52c7f"/><polygon points="149.34 59 146.85 74.45 146.72 74.45 149.34 58.23 149.34 59" fill="#f52c80"/><polygon points="149.34 59.77 146.98 74.45 146.85 74.45 149.34 59 149.34 59.77" fill="#f52b81"/><polygon points="149.34 60.56 147.11 74.45 146.98 74.45 149.34 59.77 149.34 60.56" fill="#f52b82"/><polygon points="149.34 61.33 147.24 74.45 147.11 74.45 149.34 60.56 149.34 61.33" fill="#f52a83"/><polygon points="147.24 74.45 149.34 61.33 149.34 74.45 147.24 74.45" fill="#f52a83"/></g><path d="M138.78,74.82a1.23,1.23,0,0,1-.8-.38c-.89-.82-1.82-1.6-2.63-2.24a1.08,1.08,0,0,1-.32-1.48,1.15,1.15,0,0,1,.14-.17q4.89-6.12,9.8-12.28a1.21,1.21,0,0,1,.76-.48,1.15,1.15,0,0,1,.83.36c.55.5,1.12,1,1.68,1.45l1,.89a2.64,2.64,0,0,1,.35.4l.33.42-.33.46-.21.29-2.63,3.28-7.12,9a1.18,1.18,0,0,1-.82.53Z"/><path d="M128.15,111.3l6.6,3.78v6a.48.48,0,0,0,.49.49h52.51a.51.51,0,0,0,.49-.49V102.68a.49.49,0,0,0-.49-.49H135.24a.48.48,0,0,0-.49.49V108Z" fill="url(#d)"/><circle cx="152.23" cy="111.85" r="2.37" fill="#fff"/><circle cx="161.56" cy="111.85" r="2.37" fill="#fff"/><circle cx="170.89" cy="111.85" r="2.37" fill="#fff"/><path d="M28.75,125.61l.11.09a17.08,17.08,0,1,0-5.81-7l.05.26-.08.14-4.37,7.07Z" fill="url(#e)"/><path d="M36.84,115.47v-.64a5.65,5.65,0,0,1,1.52-4.23c1.11-1.31,1.73-2.26,1.73-3.36a2.14,2.14,0,0,0-2.34-2.11,4.37,4.37,0,0,0-2.49.76l-.58-1.55a6.58,6.58,0,0,1,3.52-1c2.82,0,4.09,1.75,4.09,3.61,0,1.67-1,2.86-2.1,4.27a4.77,4.77,0,0,0-1.41,3.59v.64Zm-.54,3.43a1.44,1.44,0,0,1,1.34-1.53h.13A1.53,1.53,0,1,1,36.31,119Z" fill="#fff"/><path d="M38.14,82.54a18,18,0,0,1-8.39-6.7L18.91,72.3l7.77-5.88A18,18,0,1,1,39.83,83.09,17.52,17.52,0,0,1,38.14,82.54Zm-7.85-7.41.09.12a17,17,0,1,0-2.85-8.58v.26l-.12.1-6.65,5Z"/><path d="M30.29,75.13l.09.12a17,17,0,1,0-2.85-8.58v.26l-.12.1-6.65,5Z" fill="url(#f)"/><path d="M44.49,74.38A1.41,1.41,0,0,1,43.05,73v-.12a1.39,1.39,0,0,1,1.28-1.51h.16a1.52,1.52,0,0,1,0,3Zm-.83-5-.35-11.76h2.37l-.35,11.76Z" fill="#fff"/><path d="M99.52,40.36c-24.33,0-27.17,23-26.53,30,.42,4.76.15,3.66,1.18,6.22s-.86,5.13,3,5.13V76.35c-.18-6.71,1.18-12.74,4-15.61,3.57-3.65,9.51.5,17.53.5,8.54,0,15.14-5,19-.54,2.58,2.94,3.52,7.45,3.81,15,0,1.08.06,6,.06,6,3.37-.46,2-2,2.94-4.54s.49-2.11.92-6.87c.63-7-2.14-30-25.94-30" stroke="#000" stroke-miterlimit="10" fill="url(#g)"/><path d="M123.53,81l-2,.71c-1.69,17.31-6,18.09-6,18.09s-5.15-2.71-8.18-2.75c-3.74-.06-5.88.65-7.84.65-2.84,0-4.9-.52-7.06-.53s-7.84,0-8.66,2.8c-3.92-2-6.6-18.32-6.6-18.32l-1.66-.31L77.3,96.08s1.15,7.36,9.28,14.15,9.48,6.75,12.74,6.41a20.27,20.27,0,0,0,14.56-8.35c5.17-6.76,3.31-2.85,5.51-7.62S123.53,81,123.53,81Z" stroke="#000" stroke-miterlimit="10" fill="url(#h)"/><path d="M173.33,65.26a.42.42,0,0,0,.06.18c.54,1.4,1.06,2.81,1.58,4.23l3.92,10.56h0l1.52-.61,2.06-.86h0v-.11l-1.69-4.56L177,63.85v-.09h-.09a34.5,34.5,0,0,1-3.35,1.37Z" fill="url(#i)"/><path d="M135.84,71.31a.86.86,0,0,0,.14.13c.8.66,1.75,1.44,2.67,2.28l.13.1.11-.13q3.56-4.48,7.19-9l2.63-3.29.07-.12a.43.43,0,0,0-.09-.1l-1-.89L146,58.85l-.09-.08-.08.09Q140.89,65,136,71.14A.39.39,0,0,0,135.84,71.31Z" fill="url(#j)"/></svg>