<svg width="112" height="66" viewBox="0 0 112 66" fill="none" xmlns="http://www.w3.org/2000/svg">
<path d="M88.0622 26.732V21.193C88.0622 18.544 85.8952 16.376 83.2462 16.376C80.5972 16.376 78.4292 18.543 78.4292 21.193V28.418C75.2982 28.9 72.1672 29.623 68.7962 30.104V4.816C68.7962 2.167 66.6292 0 63.7392 0C61.0902 0 58.9222 2.167 58.9222 4.816V32.512C58.6812 32.512 58.1992 32.512 57.9592 32.753C54.8282 33.475 52.1792 33.957 49.2892 34.68V13.246C49.2892 10.597 47.1222 8.43 44.4722 8.43C41.8232 8.43 39.8962 10.597 39.6562 13.246V36.848C36.0422 37.57 33.1522 38.051 30.0212 38.534V27.696C30.0212 25.047 27.8542 22.879 25.2042 22.879C22.5552 22.879 20.3882 25.046 20.3882 27.696V39.978C9.5512 41.182 3.2892 40.942 2.5662 38.774C1.1212 35.403 10.9952 30.827 13.8852 29.381H13.6442C10.7542 30.344 -1.5278 35.402 0.158199 39.736C1.6032 44.553 20.3882 45.757 59.6442 36.365C92.3972 28.177 107.57 26.732 109.015 29.863C110.219 32.512 102.031 37.57 94.0832 40.942C94.0832 40.942 93.8422 41.182 93.8422 41.423C94.0832 41.664 94.3232 41.904 94.5652 41.664C97.4552 40.7 112.386 34.438 111.664 29.14C110.941 25.528 103.234 24.565 88.0622 26.732ZM20.6282 49.612V53.224C20.6282 55.873 22.7952 58.04 25.4452 57.799C28.0942 57.799 30.0212 55.632 30.0212 53.224V48.407C27.1312 49.129 23.7592 49.371 20.6282 49.612ZM39.8952 46.962V60.207C39.8952 62.857 41.8222 65.024 44.4712 65.024C47.1202 65.024 49.2882 63.097 49.2882 60.449V60.207V45.036C46.1572 45.758 43.0262 46.481 39.8952 46.962Z" fill="black"/>
</svg>
