<svg width="97" height="91" viewBox="0 0 97 91" fill="none" xmlns="http://www.w3.org/2000/svg">
<rect x="1" y="59" width="23.2" height="30.2" rx="2" fill="#F6F7FF" stroke="#4A67FB" stroke-width="2"/>
<rect x="37" y="59" width="23.2" height="30.2" rx="2" fill="#F6F7FF" stroke="#4A67FB" stroke-width="2"/>
<rect x="29" y="14" width="41" height="26" rx="2" fill="#DBE1FE" stroke="#4A67FB" stroke-width="2"/>
<rect x="72" y="59" width="23.2" height="30.2" rx="2" fill="#F6F7FF" stroke="#4A67FB" stroke-width="2"/>
<rect x="18.5" y="77.5" width="1" height="1" rx="0.5" fill="#4A67FB" stroke="#4A67FB"/>
<rect x="54.5" y="77.5" width="1" height="1" rx="0.5" fill="#4A67FB" stroke="#4A67FB"/>
<rect x="89.5" y="77.5" width="1" height="1" rx="0.5" fill="#4A67FB" stroke="#4A67FB"/>
<rect x="18.5" y="73.5" width="1" height="1" rx="0.5" fill="#4A67FB" stroke="#4A67FB"/>
<rect x="54.5" y="73.5" width="1" height="1" rx="0.5" fill="#4A67FB" stroke="#4A67FB"/>
<rect x="89.5" y="73.5" width="1" height="1" rx="0.5" fill="#4A67FB" stroke="#4A67FB"/>
<rect x="18.5" y="81.5" width="1" height="1" rx="0.5" fill="#4A67FB" stroke="#4A67FB"/>
<rect x="54.5" y="81.5" width="1" height="1" rx="0.5" fill="#4A67FB" stroke="#4A67FB"/>
<rect x="89.5" y="81.5" width="1" height="1" rx="0.5" fill="#4A67FB" stroke="#4A67FB"/>
<line x1="5" y1="65.4004" x2="14.2" y2="65.4004" stroke="#4A67FB" stroke-width="2" stroke-linecap="round"/>
<line x1="41" y1="65.4004" x2="50.2" y2="65.4004" stroke="#4A67FB" stroke-width="2" stroke-linecap="round"/>
<line x1="76" y1="65.4004" x2="85.2" y2="65.4004" stroke="#4A67FB" stroke-width="2" stroke-linecap="round"/>
<line x1="5" y1="69.5996" x2="14.2" y2="69.5996" stroke="#4A67FB" stroke-width="2" stroke-linecap="round"/>
<line x1="41" y1="69.5996" x2="50.2" y2="69.5996" stroke="#4A67FB" stroke-width="2" stroke-linecap="round"/>
<line x1="76" y1="69.5996" x2="85.2" y2="69.5996" stroke="#4A67FB" stroke-width="2" stroke-linecap="round"/>
<line x1="5" y1="78" x2="13" y2="78" stroke="#4A67FB" stroke-width="2" stroke-linecap="round"/>
<line x1="41" y1="78" x2="49" y2="78" stroke="#4A67FB" stroke-width="2" stroke-linecap="round"/>
<line x1="76" y1="78" x2="84" y2="78" stroke="#4A67FB" stroke-width="2" stroke-linecap="round"/>
<line x1="5" y1="74" x2="10" y2="74" stroke="#4A67FB" stroke-width="2" stroke-linecap="round"/>
<line x1="41" y1="74" x2="46" y2="74" stroke="#4A67FB" stroke-width="2" stroke-linecap="round"/>
<line x1="76" y1="74" x2="81" y2="74" stroke="#4A67FB" stroke-width="2" stroke-linecap="round"/>
<line x1="5" y1="82" x2="12" y2="82" stroke="#4A67FB" stroke-width="2" stroke-linecap="round"/>
<line x1="41" y1="82" x2="48" y2="82" stroke="#4A67FB" stroke-width="2" stroke-linecap="round"/>
<line x1="76" y1="82" x2="83" y2="82" stroke="#4A67FB" stroke-width="2" stroke-linecap="round"/>
<line x1="49" y1="58" x2="49" y2="41" stroke="#4A67FB" stroke-width="2"/>
<path fill-rule="evenodd" clip-rule="evenodd" d="M12 49C11.4477 49 11 49.4477 11 50V58H13V51L48 51C48.5523 51 49 50.5523 49 50C49 49.4477 48.5523 49 48 49L12 49Z" fill="#4A67FB"/>
<path fill-rule="evenodd" clip-rule="evenodd" d="M84 49C84.5523 49 85 49.4477 85 50V58H83V51L48 51C47.4477 51 47 50.5523 47 50C47 49.4477 47.4477 49 48 49L84 49Z" fill="#4A67FB"/>
<circle cx="41.5511" cy="21.3072" r="3.96734" fill="#EDF0FF"/>
<path d="M48.0829 20.2737C48.0654 20.1561 47.9782 20.0616 47.8607 20.0326L47.18 19.8684C46.8057 19.7788 46.5353 19.5734 46.4185 19.2896C46.3 19.0062 46.3462 18.6695 46.5478 18.3415L46.9128 17.7446C46.9745 17.6427 46.9688 17.5144 46.899 17.4183C46.4914 16.8572 45.9996 16.3657 45.4383 15.9577C45.3875 15.9209 45.3276 15.901 45.2644 15.901C45.2103 15.901 45.158 15.9157 45.1118 15.9437L44.5151 16.3089C44.3097 16.4345 44.0945 16.5008 43.8927 16.5008C43.4572 16.5008 43.11 16.185 42.987 15.677L42.8244 14.9941C42.795 14.8782 42.7002 14.7918 42.5832 14.774C42.2445 14.721 41.8974 14.6938 41.5509 14.6938C41.2047 14.6938 40.8573 14.721 40.5188 14.774C40.4024 14.7916 40.306 14.8804 40.2789 14.995L40.1142 15.6766C39.9911 16.1849 39.6445 16.5007 39.2088 16.5007C39.0069 16.5007 38.7918 16.4343 38.5864 16.3089L37.9892 15.9434C37.9434 15.9157 37.8909 15.9009 37.8374 15.9009C37.7738 15.9009 37.7138 15.9206 37.6636 15.9575C37.1026 16.3649 36.6117 16.8562 36.2029 17.4178C36.1326 17.514 36.1266 17.642 36.1884 17.7446L36.5547 18.3413C36.7551 18.6683 36.8012 19.0047 36.6835 19.2897C36.5661 19.5736 36.296 19.7788 35.922 19.8683L35.2402 20.0326C35.1239 20.0614 35.0368 20.1561 35.0192 20.2735C34.9657 20.6197 34.9387 20.9671 34.9387 21.3052C34.9387 21.6448 34.9657 21.9926 35.0192 22.3377C35.0367 22.4545 35.126 22.5509 35.2405 22.578L35.922 22.7427C36.2957 22.8327 36.5661 23.0386 36.6835 23.3217C36.801 23.6066 36.7549 23.9438 36.5543 24.2712L36.1884 24.8675C36.1267 24.9698 36.1328 25.0978 36.2026 25.1937C36.6117 25.7556 37.103 26.2475 37.663 26.6539C37.7135 26.6907 37.7734 26.7106 37.8358 26.7106C37.8904 26.7106 37.9438 26.6951 37.9897 26.6666L38.5866 26.3027C38.7937 26.1765 39.0091 26.1094 39.209 26.1094C39.6444 26.1094 39.9912 26.4254 40.1144 26.9348L40.2791 27.616C40.306 27.731 40.3996 27.8183 40.519 27.8382C40.8628 27.8914 41.21 27.9183 41.5519 27.9183C41.8926 27.9183 42.2393 27.8914 42.5844 27.8382C42.7023 27.8183 42.7966 27.7314 42.8246 27.616L42.9875 26.9348C43.111 26.4254 43.4579 26.1094 43.8932 26.1094C44.0926 26.1094 44.3082 26.1765 44.5157 26.3027L45.1117 26.6662C45.1581 26.6951 45.2117 26.7106 45.2664 26.7106C45.3288 26.7106 45.3888 26.6907 45.4385 26.6539C45.9998 26.2466 46.4911 25.7553 46.8991 25.1937C46.9693 25.0975 46.975 24.9693 46.9133 24.8672L46.5483 24.2712C46.3463 23.9426 46.3006 23.6054 46.4191 23.3217C46.5355 23.0386 46.8059 22.8332 47.18 22.7427L47.8612 22.5784C47.9763 22.5511 48.0661 22.4545 48.0827 22.3381C48.1362 21.9947 48.1632 21.6473 48.1632 21.3052C48.163 20.9677 48.1361 20.6208 48.0829 20.2737ZM41.5517 24.4253C39.8314 24.4253 38.4318 23.0253 38.4318 21.3049C38.4318 19.5855 39.8314 18.1865 41.5517 18.1865C43.2713 18.1865 44.6704 19.5855 44.6704 21.3049C44.6704 23.0253 43.2713 24.4253 41.5517 24.4253Z" fill="#DBE1FE" stroke="#4A67FB" stroke-width="2"/>
<rect x="47.6938" y="28.918" width="2.40815" height="6.08161" rx="1" stroke="#4A67FB" stroke-width="2"/>
<path fill-rule="evenodd" clip-rule="evenodd" d="M51.9838 26.7112C51.9838 25.8375 52.5608 25.0825 53.3483 24.704C56.8006 23.0447 59.1837 19.5148 59.1837 15.4283C59.1837 9.74764 54.5786 5.14258 48.898 5.14258C43.2174 5.14258 38.6123 9.74764 38.6123 15.4283C38.6123 19.5148 40.9955 23.0447 44.4478 24.7041C45.2353 25.0826 45.8124 25.8376 45.8124 26.7113V28.8574C45.8124 29.9619 46.7078 30.8574 47.8124 30.8574H49.9838C51.0884 30.8574 51.9838 29.9619 51.9838 28.8574V26.7112Z" fill="#A4B2FC"/>
<mask id="path-36-inside-1" fill="white">
<path fill-rule="evenodd" clip-rule="evenodd" d="M51.9838 26.7112C51.9838 25.8375 52.5608 25.0825 53.3483 24.704C56.8006 23.0447 59.1837 19.5148 59.1837 15.4283C59.1837 9.74764 54.5786 5.14258 48.898 5.14258C43.2174 5.14258 38.6123 9.74764 38.6123 15.4283C38.6123 19.5148 40.9955 23.0447 44.4478 24.7041C45.2353 25.0826 45.8124 25.8376 45.8124 26.7113V28.8574C45.8124 29.9619 46.7078 30.8574 47.8124 30.8574H49.9838C51.0884 30.8574 51.9838 29.9619 51.9838 28.8574V26.7112Z"/>
</mask>
<path d="M44.4478 24.7041L43.5814 26.5067L44.4478 24.7041ZM53.3483 24.704L52.4819 22.9014L53.3483 24.704ZM57.1837 15.4283C57.1837 18.7172 55.2676 21.5625 52.4819 22.9014L54.2147 26.5066C58.3336 24.5269 61.1837 20.3124 61.1837 15.4283H57.1837ZM48.898 7.14258C53.4741 7.14258 57.1837 10.8522 57.1837 15.4283H61.1837C61.1837 8.64307 55.6832 3.14258 48.898 3.14258V7.14258ZM40.6123 15.4283C40.6123 10.8522 44.3219 7.14258 48.898 7.14258V3.14258C42.1128 3.14258 36.6123 8.64307 36.6123 15.4283H40.6123ZM45.3142 22.9015C42.5285 21.5625 40.6123 18.7172 40.6123 15.4283H36.6123C36.6123 20.3124 39.4625 24.527 43.5814 26.5067L45.3142 22.9015ZM47.8124 28.8574V26.7113H43.8124V28.8574H47.8124ZM49.9838 28.8574H47.8124V32.8574H49.9838V28.8574ZM49.9838 26.7112V28.8574H53.9838V26.7112H49.9838ZM43.8124 28.8574C43.8124 31.0665 45.6032 32.8574 47.8124 32.8574V28.8574H47.8124H43.8124ZM43.5814 26.5067C43.6854 26.5566 43.7545 26.6227 43.7892 26.6721C43.8196 26.7154 43.8124 26.7267 43.8124 26.7113H47.8124C47.8124 24.9138 46.6431 23.5402 45.3142 22.9015L43.5814 26.5067ZM49.9838 32.8574C52.1929 32.8574 53.9838 31.0665 53.9838 28.8574H49.9838V32.8574ZM52.4819 22.9014C51.153 23.5401 49.9838 24.9138 49.9838 26.7112H53.9838C53.9838 26.7267 53.9765 26.7153 54.007 26.672C54.0417 26.6226 54.1108 26.5565 54.2147 26.5066L52.4819 22.9014Z" fill="#4A67FB" mask="url(#path-36-inside-1)"/>
<line x1="46.6938" y1="32.061" x2="51.102" y2="32.061" stroke="#4A67FB" stroke-width="2"/>
<path d="M48.898 21.3059C45.652 21.3059 43.0205 18.6744 43.0205 15.4283C43.0205 13.4611 43.9869 11.7197 45.4709 10.6528" stroke="#4A67FB" stroke-width="2" stroke-linecap="round"/>
<circle cx="58.8163" cy="10.6528" r="5.51019" fill="#EDF0FF"/>
<path d="M67.8883 9.21905C67.8641 9.05566 67.7429 8.92442 67.5797 8.88411L66.6344 8.65617C66.1145 8.53165 65.739 8.24637 65.5768 7.85216C65.4122 7.45867 65.4762 6.99104 65.7562 6.53541L66.2632 5.70644C66.3489 5.56488 66.341 5.38661 66.244 5.25321C65.678 4.47391 64.9949 3.7913 64.2154 3.22458C64.1448 3.17348 64.0616 3.14589 63.9738 3.14589C63.8987 3.14589 63.826 3.16628 63.7619 3.20515L62.9332 3.71237C62.6479 3.8868 62.3489 3.97893 62.0687 3.97893C61.4638 3.97893 60.9815 3.54033 60.8107 2.83469L60.5849 1.88624C60.5441 1.72525 60.4124 1.60528 60.25 1.58057C59.7794 1.50691 59.2974 1.46924 58.8161 1.46924C58.3353 1.46924 57.8528 1.50691 57.3827 1.58057C57.221 1.60504 57.0871 1.72837 57.0495 1.88744L56.8208 2.83421C56.6497 3.54009 56.1684 3.97869 55.5633 3.97869C55.2828 3.97869 54.9841 3.88656 54.6988 3.71237L53.8693 3.20467C53.8058 3.16628 53.7328 3.14565 53.6584 3.14565C53.5702 3.14565 53.4869 3.173 53.4171 3.22434C52.638 3.7901 51.9561 4.47247 51.3884 5.25249C51.2908 5.38613 51.2824 5.56392 51.3683 5.70644L51.8769 6.53517C52.1553 6.98936 52.2193 7.45651 52.0559 7.8524C51.8928 8.24661 51.5177 8.53165 50.9983 8.65593L50.0513 8.88411C49.8898 8.92418 49.7689 9.05566 49.7444 9.21881C49.67 9.69964 49.6326 10.1821 49.6326 10.6517C49.6326 11.1234 49.67 11.6064 49.7444 12.0858C49.7686 12.248 49.8927 12.3818 50.0517 12.4195L50.9983 12.6482C51.5173 12.7732 51.8928 13.0592 52.0559 13.4524C52.2191 13.8481 52.155 14.3164 51.8764 14.7711L51.3683 15.5993C51.2826 15.7414 51.291 15.9192 51.3879 16.0523C51.9561 16.8328 52.6385 17.5159 53.4164 18.0805C53.4864 18.1316 53.5697 18.1592 53.6563 18.1592C53.7321 18.1592 53.8062 18.1376 53.8701 18.098L54.699 17.5927C54.9867 17.4173 55.2859 17.3242 55.5635 17.3242C56.1682 17.3242 56.65 17.763 56.821 18.4706L57.0497 19.4167C57.0871 19.5765 57.2172 19.6976 57.383 19.7252C57.8604 19.7991 58.3427 19.8365 58.8175 19.8365C59.2907 19.8365 59.7722 19.7991 60.2516 19.7252C60.4153 19.6976 60.5463 19.5769 60.5851 19.4167L60.8114 18.4706C60.983 17.763 61.4647 17.3242 62.0694 17.3242C62.3463 17.3242 62.6457 17.4173 62.9339 17.5927L63.7617 18.0975C63.8262 18.1376 63.9006 18.1592 63.9766 18.1592C64.0632 18.1592 64.1465 18.1316 64.2156 18.0805C64.9952 17.5147 65.6775 16.8323 66.2443 16.0523C66.3417 15.9187 66.3496 15.7407 66.2639 15.5989L65.757 14.7711C65.4765 14.3147 65.4129 13.8464 65.5775 13.4524C65.7392 13.0592 66.1147 12.7739 66.6344 12.6482L67.5805 12.42C67.7403 12.3821 67.865 12.248 67.8881 12.0862C67.9624 11.6093 67.9999 11.1268 67.9999 10.6517C67.9996 10.1829 67.9622 9.70108 67.8883 9.21905ZM58.8173 14.9851C56.428 14.9851 54.4841 13.0407 54.4841 10.6512C54.4841 8.26316 56.428 6.32019 58.8173 6.32019C61.2056 6.32019 63.1489 8.26316 63.1489 10.6512C63.1489 13.0407 61.2056 14.9851 58.8173 14.9851Z" fill="#DBE1FE" stroke="#4A67FB" stroke-width="2"/>
<line x1="40.5524" y1="4.08759" x2="38.981" y2="1.3658" stroke="#4A67FB" stroke-width="2" stroke-linecap="round"/>
<line x1="37.2919" y1="7.34552" x2="34.5701" y2="5.77409" stroke="#4A67FB" stroke-width="2" stroke-linecap="round"/>
<line x1="36.2604" y1="11.5104" x2="33.2247" y2="12.3238" stroke="#4A67FB" stroke-width="2" stroke-linecap="round"/>
<line x1="55.3906" y1="28.9572" x2="56.4426" y2="31.9187" stroke="#4A67FB" stroke-width="2" stroke-linecap="round"/>
<line x1="59.1873" y1="26.3442" x2="61.5792" y2="28.3829" stroke="#4A67FB" stroke-width="2" stroke-linecap="round"/>
<line x1="60.9567" y1="22.4359" x2="64.0896" y2="22.1862" stroke="#4A67FB" stroke-width="2" stroke-linecap="round"/>
</svg>
