<svg width="25" height="25" viewBox="0 0 25 25" fill="none" xmlns="http://www.w3.org/2000/svg">
<path fill-rule="evenodd" clip-rule="evenodd" d="M23.8144 6.27397L2.97344 0.06849C2.81738 0.0218585 2.66132 0 2.50869 0C1.63006 0 0.864336 0.726576 0.864336 1.68077V11.7118H2.09967V1.68077C2.09967 1.42051 2.31204 1.25963 2.50897 1.25963C2.54756 1.25963 2.58729 1.26546 2.62702 1.27741L23.4683 7.48289C23.6429 7.53477 23.7649 7.70089 23.7649 7.88625V21.2683C23.7649 21.5283 23.5526 21.6895 23.3559 21.6895C23.3165 21.6895 23.2776 21.6833 23.2373 21.6714L18.484 20.2561V21.5682L22.8909 22.8806C23.0472 22.9269 23.203 22.9488 23.3559 22.9488C24.2346 22.9488 25 22.2222 25 21.2683V7.88625C25 7.13986 24.517 6.48294 23.8144 6.27397ZM16.9677 23.4067V9.84448C16.9677 8.96461 16.2683 8.25115 15.4051 8.25115C14.5422 8.25115 13.8428 8.96461 13.8428 9.84448V23.4067C13.8428 24.2868 14.5422 25 15.4051 25C16.2683 25 16.9677 24.2868 16.9677 23.4067ZM12.3537 21.915V11.5078C12.3537 10.6279 11.654 9.91443 10.7911 9.91443C9.92814 9.91443 9.22873 10.6279 9.22873 11.5078V21.915C9.22873 22.7952 9.92814 23.5084 10.7911 23.5084C11.654 23.5084 12.3537 22.7952 12.3537 21.915ZM7.73929 20.3039V13.0277C7.73929 12.1478 7.03959 11.4343 6.17669 11.4343C5.31378 11.4343 4.61436 12.1478 4.61436 13.0277V20.3039C4.61436 21.1838 5.31378 21.8973 6.17669 21.8973C7.03959 21.8973 7.73929 21.1838 7.73929 20.3039ZM1.56261 20.4575C0.699415 20.4575 0 19.7443 0 18.8642V14.6609C0 13.7811 0.699415 13.0679 1.56261 13.0679C2.42551 13.0679 3.12493 13.7811 3.12493 14.6609V18.8642C3.12493 19.7443 2.42551 20.4575 1.56261 20.4575Z" fill="#0A0B09"/>
</svg>
