<svg width="26" height="22" viewBox="0 0 26 22" fill="none" xmlns="http://www.w3.org/2000/svg">
<path d="M2 0C0.895 0 0 0.895 0 2V6V22H26V4V2C26 0.895 25.105 0 24 0H2ZM2 6H24V20H2V6ZM14.0332 7.98633C13.8026 7.97936 13.5766 8.05237 13.3936 8.19298C13.2107 8.33359 13.0819 8.53314 13.0293 8.75781L11.0293 16.7578C10.9975 16.8853 10.991 17.0178 11.0104 17.1478C11.0298 17.2777 11.0746 17.4026 11.1422 17.5153C11.2099 17.6279 11.299 17.7262 11.4047 17.8043C11.5103 17.8825 11.6303 17.9391 11.7577 17.971C11.8852 18.0028 12.0178 18.0091 12.1477 17.9897C12.2777 17.9703 12.4025 17.9255 12.5152 17.8578C12.6278 17.7902 12.726 17.701 12.8042 17.5953C12.8823 17.4897 12.9389 17.3697 12.9707 17.2422L14.9707 9.24219C15.0093 9.09651 15.0145 8.944 14.9859 8.79604C14.9572 8.64808 14.8955 8.5085 14.8054 8.38774C14.7152 8.26697 14.599 8.16814 14.4653 8.09863C14.3315 8.02912 14.1838 7.99073 14.0332 7.98633V7.98633ZM7.98047 8.98828C7.81811 8.99276 7.65928 9.03671 7.51771 9.11634C7.37615 9.19597 7.25611 9.30888 7.16797 9.44531L4.79883 13L7.16797 16.5547C7.23981 16.6662 7.33313 16.7623 7.44247 16.8374C7.55182 16.9125 7.67501 16.9651 7.80488 16.9921C7.93475 17.0192 8.0687 17.0201 8.19893 16.9949C8.32916 16.9696 8.45307 16.9188 8.56345 16.8452C8.67382 16.7716 8.76845 16.6768 8.84184 16.5663C8.91522 16.4558 8.96588 16.3318 8.99088 16.2015C9.01587 16.0712 9.0147 15.9373 8.98743 15.8074C8.96016 15.6776 8.90733 15.5545 8.83203 15.4453L7.20117 13L8.83203 10.5547C8.93662 10.4026 8.99708 10.2245 9.00671 10.0402C9.01635 9.85589 8.97479 9.67249 8.88663 9.51033C8.79847 9.34817 8.66715 9.21357 8.50722 9.12143C8.34729 9.02929 8.16498 8.9832 7.98047 8.98828V8.98828ZM17.9883 8.98828C17.8064 8.98901 17.6282 9.03931 17.4728 9.13378C17.3174 9.22824 17.1907 9.36329 17.1063 9.5244C17.0219 9.68551 16.9831 9.86657 16.994 10.0481C17.0048 10.2297 17.065 10.4048 17.168 10.5547L18.7988 13L17.168 15.4453C17.0927 15.5545 17.0398 15.6776 17.0126 15.8074C16.9853 15.9373 16.9841 16.0712 17.0091 16.2015C17.0341 16.3318 17.0848 16.4558 17.1582 16.5663C17.2315 16.6768 17.3262 16.7716 17.4366 16.8452C17.5469 16.9188 17.6708 16.9696 17.8011 16.9949C17.9313 17.0201 18.0652 17.0192 18.1951 16.9922C18.325 16.9651 18.4482 16.9125 18.5575 16.8374C18.6669 16.7623 18.7602 16.6662 18.832 16.5547L21.2012 13L18.832 9.44531C18.741 9.30451 18.616 9.18886 18.4685 9.10899C18.3211 9.02913 18.156 8.98762 17.9883 8.98828V8.98828Z" fill="black"/>
</svg>
