<?xml version="1.0" encoding="UTF-8"?>
<svg width="101px" height="101px" viewBox="0 0 101 101" version="1.1" xmlns="http://www.w3.org/2000/svg" xmlns:xlink="http://www.w3.org/1999/xlink">
    <title>Group 3</title>
    <g id="Page-1" stroke="none" stroke-width="1" fill="none" fill-rule="evenodd">
        <g id="Group-3" transform="translate(0.189100, 0.189100)">
            <circle id="Oval" fill="#F2F4FF" fill-rule="nonzero" cx="49.8109" cy="49.8109" r="41"></circle>
            <path d="M49.8109,96.6218 C75.6638462,96.6218 96.6218,75.6638462 96.6218,49.8109 C96.6218,23.9579538 75.6638462,3 49.8109,3 C23.9579538,3 3,23.9579538 3,49.8109 C3,75.6638462 23.9579538,96.6218 49.8109,96.6218 Z" id="Oval" stroke="#FAB4AC" stroke-dasharray="5" transform="translate(49.810900, 49.810900) rotate(3.356810) translate(-49.810900, -49.810900) "></path>
            <path d="M50.3109,86.3109 C70.7454357,86.3109 87.3109,69.7454357 87.3109,49.3109 C87.3109,28.8763643 70.7454357,12.3109 50.3109,12.3109 C29.8763643,12.3109 13.3109,28.8763643 13.3109,49.3109 C13.3109,69.7454357 29.8763643,86.3109 50.3109,86.3109 Z" id="Oval" stroke="#FAB4AC" stroke-dasharray="5"></path>
            <g id="Group" transform="translate(23.612260, 19.646600)">
                <rect id="Rectangle" stroke="#DADADA" fill="#FFFFFF" fill-rule="nonzero" x="-1.0658141e-14" y="4.0001" width="48.3461" height="69.4944" rx="1.5"></rect>
                <line x1="6.69864" y1="14.6643" x2="40.69864" y2="14.6643" id="Path" stroke="#DADADA" stroke-linecap="round"></line>
                <line x1="14.69864" y1="20.3285" x2="40.69864" y2="20.3285" id="Path-Copy" stroke="#DADADA" stroke-linecap="round"></line>
                <line x1="6.69864" y1="25.6643" x2="40.69864" y2="25.6643" id="Path" stroke="#DADADA" stroke-linecap="round"></line>
                <line x1="6.6986" y1="44.1642" x2="24.6986" y2="44.1642" id="Path-Copy-2" stroke="#DADADA" stroke-linecap="round"></line>
                <line x1="6.69864" y1="38.6643" x2="40.69864" y2="38.6643" id="Path" stroke="#DADADA" stroke-linecap="round"></line>
                <line x1="6.69864" y1="49.6643" x2="40.69864" y2="49.6643" id="Path" stroke="#DADADA" stroke-linecap="round"></line>
                <line x1="7.00004" y1="62.0001" x2="42.00004" y2="62.0001" id="Path" stroke="#DADADA" stroke-linecap="round"></line>
                <circle id="Oval" fill="#FFBB00" fill-rule="nonzero" cx="48.84604" cy="3.5" r="3.5"></circle>
            </g>
            <circle id="Oval" fill="#E67B66" fill-rule="nonzero" cx="23.7744" cy="43.141" r="3.5"></circle>
            <circle id="Oval" fill="#ACB1FA" fill-rule="nonzero" cx="50.2872" cy="90.879" r="3.5"></circle>
            <g id="Group-2" transform="translate(49.810900, 42.810900)" fill-rule="nonzero">
                <path d="M1.70877309,33 C1.09176475,33 0.539757294,32.6760425 0.231753132,32.1337437 C-0.0772510439,31.5914448 -0.0772510439,30.9435298 0.231753132,30.401231 L17.02298,0.866256347 C17.3309842,0.323957532 17.8829917,0 18.5,0 C19.1170083,0 19.6690158,0.323957532 19.97702,0.866256347 L36.7682469,30.401231 C37.077251,30.9435298 37.077251,31.5904293 36.7682469,32.1337437 C36.4602427,32.6760425 35.9082352,33 35.2912269,33 L1.70877309,33 Z" id="Path" fill="#EFEFEF"></path>
                <path d="M18.5,1 C18.7031839,1 19.2096854,1.05807455 19.5149474,1.59354163 L35.838684,30.2203594 C36.143946,30.7558265 35.9407621,31.2292818 35.838684,31.4074427 C35.736606,31.5846193 35.4342606,32 34.8237367,32 L2.17626333,32 C1.56573944,32 1.26242184,31.5846193 1.16131597,31.4064584 C1.05923793,31.2282975 0.856054027,30.7548422 1.16131597,30.2193751 L17.4850526,1.59354163 C17.7903146,1.05709024 18.2968161,1 18.5,1 M18.5,0 C17.7765467,0 17.0530934,0.362572401 16.6402479,1.08673195 L0.29098229,29.7398041 C-0.535682382,31.1891085 0.497405035,33 2.15073438,33 L34.8492656,33 C36.502595,33 37.5356824,31.1891085 36.7090177,29.7398041 L20.3597521,1.08673195 C19.9469066,0.36158715 19.2234533,0 18.5,0 L18.5,0 Z" id="Shape" fill="#B9BCCA"></path>
                <path d="M18.696,25.589 C17.7593251,25.589 17,26.3483251 17,27.285 C17,28.2216749 17.7593251,28.981 18.696,28.981 C19.6326749,28.981 20.392,28.2216749 20.392,27.285 C20.392,26.3483251 19.6326749,25.589 18.696,25.589 Z M17.339,11 L20.053,11 L20.053,23.214 L17.339,23.214 L17.339,11 Z" id="Shape" fill="#E67B66"></path>
            </g>
        </g>
    </g>
</svg>