<svg width="41" height="40" viewBox="0 0 41 40" fill="none" xmlns="http://www.w3.org/2000/svg">
<path d="M14.299 39.2777C14.9105 39.0145 15.3387 38.4065 15.3387 37.6987V33.0547C15.3387 32.8853 15.3525 32.709 15.374 32.5301C15.362 32.5336 15.3508 32.5362 15.3387 32.5387C15.3387 32.5387 12.7587 32.5387 12.2427 32.5387C10.9527 32.5387 9.83475 32.0227 9.31875 30.9907C8.71675 29.8727 8.45875 27.9807 6.91075 26.9487C6.65275 26.7767 6.82475 26.5187 7.34075 26.5187C7.85675 26.6047 8.97475 27.2927 9.66275 28.2387C10.4367 29.1847 11.2107 29.9587 12.5867 29.9587C14.7256 29.9587 15.872 29.8512 16.5617 29.4814C17.3649 28.2869 18.4769 27.3787 19.6387 27.3787V27.3572C14.7643 27.2007 11.6502 25.5805 10.2002 23.0787C7.04835 23.1149 4.30409 23.427 2.73803 23.6868C2.68815 23.4056 2.64515 23.1226 2.60817 22.8379C4.15359 22.5834 6.77315 22.2815 9.78487 22.2239C9.68855 21.9865 9.60513 21.7432 9.53461 21.4938C6.51515 21.3407 3.90935 21.4602 2.49379 21.5772C2.47659 21.2917 2.45337 21.007 2.44993 20.718C3.86807 20.6019 6.40335 20.4858 9.34541 20.6226C9.27747 20.1926 9.23361 19.7531 9.23361 19.2956C9.23361 17.8336 9.74961 16.2856 10.6956 14.9956C10.2656 13.5336 9.66361 10.4376 10.8676 9.31961C13.1896 9.31961 14.8236 10.4376 15.5976 11.1256C17.0588 10.5227 18.6927 10.1787 20.4987 10.1787C22.3047 10.1787 23.9387 10.5227 25.3147 11.1248C26.0887 10.4367 27.7227 9.31875 30.0447 9.31875C31.3347 10.5227 30.6467 13.6187 30.2167 14.9948C31.1627 16.2847 31.6787 17.7467 31.5928 19.2948C31.5928 19.711 31.554 20.1126 31.4981 20.5065C34.5073 20.3586 37.1114 20.4772 38.5536 20.5942C38.5519 20.884 38.5252 21.167 38.5097 21.4534C37.0727 21.3347 34.4032 21.2125 31.321 21.3768C31.2444 21.6658 31.1516 21.947 31.0415 22.2196C34.091 22.2592 36.7734 22.5541 38.3928 22.8121C38.3558 23.0977 38.3128 23.3806 38.2629 23.661C36.6186 23.3978 33.8158 23.0899 30.627 23.0744C29.1951 25.5495 26.1378 27.1637 21.3587 27.3521V27.3787C23.5947 27.3787 25.6587 30.7327 25.6587 33.0547V37.6987C25.6587 38.4065 26.087 39.0145 26.6985 39.2777C34.5769 36.6702 40.2787 29.2398 40.2787 20.4987C40.2787 9.59223 31.4061 0.71875 20.4987 0.71875C9.59137 0.71875 0.71875 9.59223 0.71875 20.4987C0.71875 29.2398 6.42055 36.6702 14.299 39.2777Z" fill="black"/>
</svg>
