<svg width="23" height="25" viewBox="0 0 23 25" fill="none" xmlns="http://www.w3.org/2000/svg">
<path d="M22.7071 18.0711C23.0976 17.6805 23.0976 17.0474 22.7071 16.6569L16.3432 10.2929C15.9526 9.90237 15.3195 9.90237 14.9289 10.2929C14.5384 10.6834 14.5384 11.3166 14.9289 11.7071L20.5858 17.364L14.9289 23.0209C14.5384 23.4114 14.5384 24.0445 14.9289 24.4351C15.3195 24.8256 15.9526 24.8256 16.3431 24.4351L22.7071 18.0711ZM-3.656e-07 18.364L22 18.364L22 16.364L-2.78178e-07 16.364L-3.656e-07 18.364Z" fill="black"/>
<path d="M0.999999 -1.78814e-07L1 18" stroke="black" stroke-width="2"/>
</svg>
