<svg width="101" height="55" viewBox="0 0 101 55" fill="none" xmlns="http://www.w3.org/2000/svg">
<rect x="2.18651" y="2.28416" width="39.127" height="50.9325" rx="3.37302" fill="#F0FCF8" stroke="#18AF8E" stroke-width="3.37302"/>
<rect x="31.7003" y="33.4849" width="1.68651" height="1.68651" rx="0.843254" fill="#18AF8E" stroke="#18AF8E" stroke-width="1.68651"/>
<rect x="31.7003" y="26.7393" width="1.68651" height="1.68651" rx="0.843254" fill="#18AF8E" stroke="#18AF8E" stroke-width="1.68651"/>
<rect x="31.7003" y="40.2305" width="1.68651" height="1.68651" rx="0.843254" fill="#18AF8E" stroke="#18AF8E" stroke-width="1.68651"/>
<line x1="8.93236" y1="13.0791" x2="24.4482" y2="13.0791" stroke="#18AF8E" stroke-width="3.37302" stroke-linecap="round"/>
<line x1="8.93236" y1="20.1592" x2="24.4482" y2="20.1592" stroke="#18AF8E" stroke-width="3.37302" stroke-linecap="round"/>
<line x1="8.93236" y1="34.3267" x2="22.4244" y2="34.3267" stroke="#18AF8E" stroke-width="3.37302" stroke-linecap="round"/>
<line x1="8.93236" y1="27.5811" x2="17.3649" y2="27.5811" stroke="#18AF8E" stroke-width="3.37302" stroke-linecap="round"/>
<line x1="8.93236" y1="41.0723" x2="20.7379" y2="41.0723" stroke="#18AF8E" stroke-width="3.37302" stroke-linecap="round"/>
<path d="M68 22.5L78 27.5V42.5L68 37.5V22.5Z" fill="#6ED8BE"/>
<path d="M83.0001 27.4933L93.0001 22.4933V37.4933L83.0001 42.4933V27.4933Z" fill="#C8F4E7"/>
<path d="M70.5 18.75L80.5 12.5L90.5 18.75L80.5 25L70.5 18.75Z" fill="#C8F4E7"/>
<path fill-rule="evenodd" clip-rule="evenodd" d="M70.6681 19.0024L80.5909 13.2735L90.4232 18.9502L80.5 24.6206L70.6681 19.0024ZM80.5457 7.5261L80.5 7.5L63 17.5V37.5L80.5 47.5L80.5457 47.4739L80.5909 47.5L89.3619 42.436L98 37.5V17.5L89.3619 12.564L80.5909 7.5L80.5457 7.5261ZM83 28.9508L92.9114 23.2871V34.6132L83 40.3356V28.9508ZM78 40.2306L68.2704 34.6132V23.391L78 28.9508V40.2306Z" fill="#18AF8E"/>
<rect x="47.8682" y="29.8668" width="1.57896" height="1.57896" rx="0.789478" transform="rotate(180 47.8682 29.8668)" fill="#18AF8E" stroke="#18AF8E" stroke-width="1.57896"/>
<rect x="54.1832" y="29.8668" width="1.57896" height="1.57896" rx="0.789478" transform="rotate(180 54.1832 29.8668)" fill="#18AF8E" stroke="#18AF8E" stroke-width="1.57896"/>
<rect x="60.4979" y="29.8663" width="1.57896" height="1.57896" rx="0.789478" transform="rotate(180 60.4979 29.8663)" fill="#18AF8E" stroke="#18AF8E" stroke-width="1.57896"/>
</svg>
