<svg width="92" height="81" viewBox="0 0 92 81" fill="none" xmlns="http://www.w3.org/2000/svg">
<rect x="2.5" y="2.5" width="58" height="75.5" rx="5" fill="#FAFAFA" stroke="#1AA3C1" stroke-width="5"/>
<line x1="11" y1="24.75" x2="34" y2="24.75" stroke="#1AA3C1" stroke-width="5" stroke-linecap="round"/>
<line x1="11" y1="35.25" x2="34" y2="35.25" stroke="#1AA3C1" stroke-width="5" stroke-linecap="round"/>
<line x1="11" y1="56.25" x2="31" y2="56.25" stroke="#1AA3C1" stroke-width="5" stroke-linecap="round"/>
<line x1="11" y1="46.25" x2="23.5" y2="46.25" stroke="#1AA3C1" stroke-width="5" stroke-linecap="round"/>
<line x1="11" y1="66.25" x2="28.5" y2="66.25" stroke="#1AA3C1" stroke-width="5" stroke-linecap="round"/>
<circle cx="10.5" cy="10.5" r="2.25" fill="white" stroke="#1AA3C1" stroke-width="2.5"/>
<circle cx="21" cy="10.5" r="2.25" fill="white" stroke="#1AA3C1" stroke-width="2.5"/>
<path d="M89.5 56C89.5 60.1421 81.665 63.5 72 63.5C62.335 63.5 54.5 60.1421 54.5 56C54.5 51.8579 62.335 48.5 72 48.5C81.665 48.5 89.5 51.8579 89.5 56Z" fill="#F4FDFE"/>
<path fill-rule="evenodd" clip-rule="evenodd" d="M57.6546 54.8368C57.0793 55.4197 57 55.8099 57 56C57 56.1901 57.0793 56.5803 57.6546 57.1632C58.2405 57.7569 59.2123 58.4062 60.6104 59.0054C63.3979 60.2001 67.423 61 72 61C76.577 61 80.6021 60.2001 83.3896 59.0054C84.7877 58.4062 85.7595 57.7569 86.3454 57.1632C86.9207 56.5803 87 56.1901 87 56C87 55.8099 86.9207 55.4197 86.3454 54.8368C85.7595 54.2431 84.7877 53.5938 83.3896 52.9946C80.6021 51.7999 76.577 51 72 51C67.423 51 63.3979 51.7999 60.6104 52.9946C59.2123 53.5938 58.2405 54.2431 57.6546 54.8368ZM58.6408 48.3988C62.1871 46.879 66.912 46 72 46C77.0879 46 81.8129 46.879 85.3592 48.3988C87.1279 49.1569 88.7189 50.1237 89.9041 51.3246C91.0999 52.5362 92 54.1191 92 56C92 57.8809 91.0999 59.4638 89.9041 60.6754C88.7189 61.8763 87.1279 62.8431 85.3592 63.6012C81.8129 65.121 77.0879 66 72 66C66.912 66 62.1871 65.121 58.6408 63.6012C56.8721 62.8431 55.2811 61.8763 54.0959 60.6754C52.9001 59.4638 52 57.8809 52 56C52 54.1191 52.9001 52.5362 54.0959 51.3246C55.2811 50.1237 56.8721 49.1569 58.6408 48.3988Z" fill="#1AA3C1"/>
<path d="M89.5 46C89.5 50.1421 81.665 53.5 72 53.5C62.335 53.5 54.5 50.1421 54.5 46C54.5 41.8579 62.335 38.5 72 38.5C81.665 38.5 89.5 41.8579 89.5 46Z" fill="#F4FDFE"/>
<path fill-rule="evenodd" clip-rule="evenodd" d="M57.6546 44.8368C57.0793 45.4197 57 45.8099 57 46C57 46.1901 57.0793 46.5803 57.6546 47.1632C58.2405 47.7569 59.2123 48.4062 60.6104 49.0054C63.3979 50.2001 67.423 51 72 51C76.577 51 80.6021 50.2001 83.3896 49.0054C84.7877 48.4062 85.7595 47.7569 86.3454 47.1632C86.9207 46.5803 87 46.1901 87 46C87 45.8099 86.9207 45.4197 86.3454 44.8368C85.7595 44.2431 84.7877 43.5938 83.3896 42.9946C80.6021 41.7999 76.577 41 72 41C67.423 41 63.3979 41.7999 60.6104 42.9946C59.2123 43.5938 58.2405 44.2431 57.6546 44.8368ZM58.6408 38.3988C62.1871 36.879 66.912 36 72 36C77.0879 36 81.8129 36.879 85.3592 38.3988C87.1279 39.1569 88.7189 40.1237 89.9041 41.3246C91.0999 42.5362 92 44.1191 92 46C92 47.8809 91.0999 49.4638 89.9041 50.6754C88.7189 51.8763 87.1279 52.8431 85.3592 53.6012C81.8129 55.121 77.0879 56 72 56C66.912 56 62.1871 55.121 58.6408 53.6012C56.8721 52.8431 55.2811 51.8763 54.0959 50.6754C52.9001 49.4638 52 47.8809 52 46C52 44.1191 52.9001 42.5362 54.0959 41.3246C55.2811 40.1237 56.8721 39.1569 58.6408 38.3988Z" fill="#1AA3C1"/>
<path d="M89.5 36C89.5 40.1421 81.665 43.5 72 43.5C62.335 43.5 54.5 40.1421 54.5 36C54.5 31.8579 62.335 28.5 72 28.5C81.665 28.5 89.5 31.8579 89.5 36Z" fill="#F4FDFE"/>
<path fill-rule="evenodd" clip-rule="evenodd" d="M57.6546 34.8368C57.0793 35.4197 57 35.8099 57 36C57 36.1901 57.0793 36.5803 57.6546 37.1632C58.2405 37.7569 59.2123 38.4062 60.6104 39.0054C63.3979 40.2001 67.423 41 72 41C76.577 41 80.6021 40.2001 83.3896 39.0054C84.7877 38.4062 85.7595 37.7569 86.3454 37.1632C86.9207 36.5803 87 36.1901 87 36C87 35.8099 86.9207 35.4197 86.3454 34.8368C85.7595 34.2431 84.7877 33.5938 83.3896 32.9946C80.6021 31.7999 76.577 31 72 31C67.423 31 63.3979 31.7999 60.6104 32.9946C59.2123 33.5938 58.2405 34.2431 57.6546 34.8368ZM58.6408 28.3988C62.1871 26.879 66.912 26 72 26C77.0879 26 81.8129 26.879 85.3592 28.3988C87.1279 29.1569 88.7189 30.1237 89.9041 31.3246C91.0999 32.5362 92 34.1191 92 36C92 37.8809 91.0999 39.4638 89.9041 40.6754C88.7189 41.8763 87.1279 42.8431 85.3592 43.6012C81.8129 45.121 77.0879 46 72 46C66.912 46 62.1871 45.121 58.6408 43.6012C56.8721 42.8431 55.2811 41.8763 54.0959 40.6754C52.9001 39.4638 52 37.8809 52 36C52 34.1191 52.9001 32.5362 54.0959 31.3246C55.2811 30.1237 56.8721 29.1569 58.6408 28.3988Z" fill="#1AA3C1"/>
<path fill-rule="evenodd" clip-rule="evenodd" d="M34.7125 44.3567L31 46.5001L34.7125 48.6435C34.7385 48.6592 34.7649 48.6744 34.7915 48.6892L43.75 53.8613L43.75 49.0001L48.5 49.0001C49.8807 49.0001 51 47.8808 51 46.5001C51 45.1194 49.8807 44.0001 48.5 44.0001L43.75 44.0001L43.75 39.1389L34.7916 44.311C34.7649 44.3258 34.7385 44.341 34.7125 44.3567Z" fill="#1AA3C1"/>
</svg>
