<svg width="100" height="98" viewBox="0 0 100 98" fill="none" xmlns="http://www.w3.org/2000/svg">
<rect x="22.5" y="20" width="58" height="75.5" rx="5" fill="#FFF7F3" stroke="#FF6918" stroke-width="5"/>
<rect x="66.25" y="66.25" width="2.5" height="2.5" rx="1.25" fill="#FF6918" stroke="#FF6918" stroke-width="2.5"/>
<rect x="66.25" y="56.25" width="2.5" height="2.5" rx="1.25" fill="#FF6918" stroke="#FF6918" stroke-width="2.5"/>
<rect x="66.25" y="76.25" width="2.5" height="2.5" rx="1.25" fill="#FF6918" stroke="#FF6918" stroke-width="2.5"/>
<line x1="32.5" y1="36.001" x2="55.5" y2="36.001" stroke="#FF6918" stroke-width="5" stroke-linecap="round"/>
<line x1="32.5" y1="46.499" x2="55.5" y2="46.499" stroke="#FF6918" stroke-width="5" stroke-linecap="round"/>
<line x1="32.5" y1="67.5" x2="52.5" y2="67.5" stroke="#FF6918" stroke-width="5" stroke-linecap="round"/>
<line x1="32.5" y1="57.5" x2="45" y2="57.5" stroke="#FF6918" stroke-width="5" stroke-linecap="round"/>
<line x1="32.5" y1="77.5" x2="50" y2="77.5" stroke="#FF6918" stroke-width="5" stroke-linecap="round"/>
<path d="M97.5 82.5C97.5 86.6421 89.665 90 80 90C70.335 90 62.5 86.6421 62.5 82.5C62.5 78.3579 70.335 75 80 75C89.665 75 97.5 78.3579 97.5 82.5Z" fill="#FFE1D1"/>
<path fill-rule="evenodd" clip-rule="evenodd" d="M65.6546 81.3368C65.0793 81.9197 65 82.3099 65 82.5C65 82.6901 65.0793 83.0803 65.6546 83.6632C66.2405 84.2569 67.2123 84.9062 68.6104 85.5054C71.3979 86.7001 75.423 87.5 80 87.5C84.577 87.5 88.6021 86.7001 91.3896 85.5054C92.7877 84.9062 93.7595 84.2569 94.3454 83.6632C94.9207 83.0803 95 82.6901 95 82.5C95 82.3099 94.9207 81.9197 94.3454 81.3368C93.7595 80.7431 92.7877 80.0938 91.3896 79.4946C88.6021 78.2999 84.577 77.5 80 77.5C75.423 77.5 71.3979 78.2999 68.6104 79.4946C67.2123 80.0938 66.2405 80.7431 65.6546 81.3368ZM66.6408 74.8988C70.1871 73.379 74.912 72.5 80 72.5C85.0879 72.5 89.8129 73.379 93.3592 74.8988C95.1279 75.6569 96.7189 76.6237 97.9041 77.8246C99.0999 79.0362 100 80.6191 100 82.5C100 84.3809 99.0999 85.9638 97.9041 87.1754C96.7189 88.3763 95.1279 89.3431 93.3592 90.1012C89.8129 91.621 85.0879 92.5 80 92.5C74.912 92.5 70.1871 91.621 66.6408 90.1012C64.8721 89.3431 63.2811 88.3763 62.0959 87.1754C60.9001 85.9638 60 84.3809 60 82.5C60 80.6191 60.9001 79.0362 62.0959 77.8246C63.2811 76.6237 64.8721 75.6569 66.6408 74.8988Z" fill="#FF6918"/>
<path d="M97.5 72.5C97.5 76.6421 89.665 80 80 80C70.335 80 62.5 76.6421 62.5 72.5C62.5 68.3579 70.335 65 80 65C89.665 65 97.5 68.3579 97.5 72.5Z" fill="#FFE1D1"/>
<path fill-rule="evenodd" clip-rule="evenodd" d="M65.6546 71.3368C65.0793 71.9197 65 72.3099 65 72.5C65 72.6901 65.0793 73.0803 65.6546 73.6632C66.2405 74.2569 67.2123 74.9062 68.6104 75.5054C71.3979 76.7001 75.423 77.5 80 77.5C84.577 77.5 88.6021 76.7001 91.3896 75.5054C92.7877 74.9062 93.7595 74.2569 94.3454 73.6632C94.9207 73.0803 95 72.6901 95 72.5C95 72.3099 94.9207 71.9197 94.3454 71.3368C93.7595 70.7431 92.7877 70.0938 91.3896 69.4946C88.6021 68.2999 84.577 67.5 80 67.5C75.423 67.5 71.3979 68.2999 68.6104 69.4946C67.2123 70.0938 66.2405 70.7431 65.6546 71.3368ZM66.6408 64.8988C70.1871 63.379 74.912 62.5 80 62.5C85.0879 62.5 89.8129 63.379 93.3592 64.8988C95.1279 65.6569 96.7189 66.6237 97.9041 67.8246C99.0999 69.0362 100 70.6191 100 72.5C100 74.3809 99.0999 75.9638 97.9041 77.1754C96.7189 78.3763 95.1279 79.3431 93.3592 80.1012C89.8129 81.621 85.0879 82.5 80 82.5C74.912 82.5 70.1871 81.621 66.6408 80.1012C64.8721 79.3431 63.2811 78.3763 62.0959 77.1754C60.9001 75.9638 60 74.3809 60 72.5C60 70.6191 60.9001 69.0362 62.0959 67.8246C63.2811 66.6237 64.8721 65.6569 66.6408 64.8988Z" fill="#FF6918"/>
<path d="M97.5 62.5C97.5 66.6421 89.665 70 80 70C70.335 70 62.5 66.6421 62.5 62.5C62.5 58.3579 70.335 55 80 55C89.665 55 97.5 58.3579 97.5 62.5Z" fill="#FFE1D1"/>
<path fill-rule="evenodd" clip-rule="evenodd" d="M65.6546 61.3368C65.0793 61.9197 65 62.3099 65 62.5C65 62.6901 65.0793 63.0803 65.6546 63.6632C66.2405 64.2569 67.2123 64.9062 68.6104 65.5054C71.3979 66.7001 75.423 67.5 80 67.5C84.577 67.5 88.6021 66.7001 91.3896 65.5054C92.7877 64.9062 93.7595 64.2569 94.3454 63.6632C94.9207 63.0803 95 62.6901 95 62.5C95 62.3099 94.9207 61.9197 94.3454 61.3368C93.7595 60.7431 92.7877 60.0938 91.3896 59.4946C88.6021 58.2999 84.577 57.5 80 57.5C75.423 57.5 71.3979 58.2999 68.6104 59.4946C67.2123 60.0938 66.2405 60.7431 65.6546 61.3368ZM66.6408 54.8988C70.1871 53.379 74.912 52.5 80 52.5C85.0879 52.5 89.8129 53.379 93.3592 54.8988C95.1279 55.6569 96.7189 56.6237 97.9041 57.8246C99.0999 59.0362 100 60.6191 100 62.5C100 64.3809 99.0999 65.9638 97.9041 67.1754C96.7189 68.3763 95.1279 69.3431 93.3592 70.1012C89.8129 71.621 85.0879 72.5 80 72.5C74.912 72.5 70.1871 71.621 66.6408 70.1012C64.8721 69.3431 63.2811 68.3763 62.0959 67.1754C60.9001 65.9638 60 64.3809 60 62.5C60 60.6191 60.9001 59.0362 62.0959 57.8246C63.2811 56.6237 64.8721 55.6569 66.6408 54.8988Z" fill="#FF6918"/>
<mask id="path-16-inside-1" fill="white">
<path fill-rule="evenodd" clip-rule="evenodd" d="M51.4283 15.0759C51.4285 15.0506 51.4285 15.0253 51.4285 15C51.4285 6.71573 44.7128 0 36.4285 0C30.8267 0 25.9421 3.07077 23.3661 7.62082C21.598 5.57745 18.9856 4.28467 16.0714 4.28467C10.7458 4.28467 6.42853 8.60192 6.42853 13.9275C6.42853 14.313 6.45114 14.6931 6.49512 15.0667C2.82813 15.5578 0 18.6986 0 22.5C0 26.6421 3.35786 30 7.5 30H36.4285H50.3571C54.4993 30 57.8571 26.6421 57.8571 22.5C57.8571 18.7216 55.0631 15.5957 51.4283 15.0759Z"/>
</mask>
<path fill-rule="evenodd" clip-rule="evenodd" d="M51.4283 15.0759C51.4285 15.0506 51.4285 15.0253 51.4285 15C51.4285 6.71573 44.7128 0 36.4285 0C30.8267 0 25.9421 3.07077 23.3661 7.62082C21.598 5.57745 18.9856 4.28467 16.0714 4.28467C10.7458 4.28467 6.42853 8.60192 6.42853 13.9275C6.42853 14.313 6.45114 14.6931 6.49512 15.0667C2.82813 15.5578 0 18.6986 0 22.5C0 26.6421 3.35786 30 7.5 30H36.4285H50.3571C54.4993 30 57.8571 26.6421 57.8571 22.5C57.8571 18.7216 55.0631 15.5957 51.4283 15.0759Z" fill="#FFE1D1"/>
<path d="M51.4283 15.0759L46.4284 15.051L46.4067 19.4087L50.7205 20.0256L51.4283 15.0759ZM23.3661 7.62082L19.5852 10.8926L24.2244 16.2538L27.7172 10.0841L23.3661 7.62082ZM6.49512 15.0667L7.15872 20.0225L12.036 19.3694L11.4608 14.4823L6.49512 15.0667ZM46.4285 15C46.4285 15.0173 46.4285 15.0343 46.4284 15.051L56.4283 15.1008C56.4284 15.067 56.4285 15.0334 56.4285 15H46.4285ZM36.4285 5C41.9514 5 46.4285 9.47715 46.4285 15H56.4285C56.4285 3.9543 47.4742 -5 36.4285 -5V5ZM27.7172 10.0841C29.4419 7.03776 32.7004 5 36.4285 5V-5C28.9529 -5 22.4422 -0.896228 19.015 5.15751L27.7172 10.0841ZM27.1471 4.34908C24.4696 1.2549 20.4978 -0.715332 16.0714 -0.715332V9.28467C17.4735 9.28467 18.7263 9.90001 19.5852 10.8926L27.1471 4.34908ZM16.0714 -0.715332C7.98436 -0.715332 1.42853 5.8405 1.42853 13.9275H11.4285C11.4285 11.3633 13.5072 9.28467 16.0714 9.28467V-0.715332ZM1.42853 13.9275C1.42853 14.5087 1.46264 15.084 1.52939 15.6512L11.4608 14.4823C11.4396 14.3022 11.4285 14.1172 11.4285 13.9275H1.42853ZM5.83151 10.111C-0.285054 10.93 -5 16.1603 -5 22.5H5C5 21.2369 5.94131 20.1855 7.15872 20.0225L5.83151 10.111ZM-5 22.5C-5 29.4036 0.596431 35 7.5 35V25C6.11929 25 5 23.8807 5 22.5H-5ZM7.5 35H36.4285V25H7.5V35ZM36.4285 35H50.3571V25H36.4285V35ZM50.3571 35C57.2607 35 62.8571 29.4036 62.8571 22.5H52.8571C52.8571 23.8807 51.7379 25 50.3571 25V35ZM62.8571 22.5C62.8571 16.1983 58.1987 10.9933 52.1362 10.1263L50.7205 20.0256C51.9274 20.1982 52.8571 21.2448 52.8571 22.5H62.8571Z" fill="#FF6918" mask="url(#path-16-inside-1)"/>
</svg>
